<svg xmlns="http://www.w3.org/2000/svg" width="401" height="22" viewBox="0 0 401 22"><defs><linearGradient id="crisp-grad" gradientUnits="userSpaceOnUse" x1="0" y1="0" x2="50070" y2="0"><stop offset="0%" stop-color="#0A78E8"/><stop offset="50%" stop-color="#0071E3"/><stop offset="100%" stop-color="#006ADD"/></linearGradient></defs><g fill="url(#crisp-grad)" transform="translate(6, 15) scale(0.007812, -0.007812)"><path d="M174 972Q287 1116 562 1116Q741 1116 880 1045Q1019 974 1019 777V277Q1019 225 1021 151Q1024 95 1038.0 75.0Q1052 55 1080 42V0H770Q757 33 752.0 62.0Q747 91 744 128Q685 64 608 19Q516 -34 400 -34Q252 -34 155.5 50.5Q59 135 59 290Q59 491 214 581Q299 630 464 651L561 663Q640 673 674 688Q735 714 735 769Q735 836 688.5 861.5Q642 887 552 887Q451 887 409 837Q379 800 369 737H94Q103 880 174 972ZM386 206Q426 173 484 173Q576 173 653.5 227.0Q731 281 734 424V530Q707 513 679.5 502.5Q652 492 604 483L540 471Q450 455 411 432Q345 393 345 311Q345 238 386 206ZM1914 0H1622V1000H1281V1194Q1416 1200 1470 1212Q1556 1231 1610 1288Q1647 1327 1666 1392Q1677 1431 1677 1450H1914ZM2904 941Q3097 941 3220.5 810.0Q3344 679 3344 475Q3344 272 3223.0 117.0Q3102 -38 2847 -38Q2573 -38 2443 191Q2342 370 2342 653Q2342 819 2356 923Q2381 1108 2453 1231Q2515 1336 2615.5 1400.0Q2716 1464 2856 1464Q3058 1464 3178.0 1360.5Q3298 1257 3313 1085H3029Q3029 1120 3002 1162Q2956 1230 2863 1230Q2724 1230 2665 1074Q2633 988 2621 820Q2674 883 2744.0 912.0Q2814 941 2904 941ZM2712 669Q2628 604 2628 459Q2628 342 2691.0 268.0Q2754 194 2851 194Q2946 194 3000.5 265.5Q3055 337 3055 451Q3055 578 2993.0 645.5Q2931 713 2841 713Q2768 713 2712 669ZM4391 0H3450V222L4009 858H3488V1090H4372V853L3819 234H4391ZM6237 1474V1213H5796V0H5486V1213H5043V1474ZM7303 952Q7441 779 7441 543Q7441 303 7303.0 132.5Q7165 -38 6884 -38Q6603 -38 6465.0 132.5Q6327 303 6327 543Q6327 779 6465.0 952.0Q6603 1125 6884 1125Q7165 1125 7303 952ZM6883 884Q6758 884 6690.5 795.5Q6623 707 6623 543Q6623 379 6690.5 290.0Q6758 201 6883 201Q7008 201 7075.0 290.0Q7142 379 7142 543Q7142 707 7075.0 795.5Q7008 884 6883 884ZM8558 973Q8690 832 8690 559Q8690 271 8560.5 120.0Q8431 -31 8227 -31Q8097 -31 8011 34Q7964 70 7919 139V-429H7637V1090H7910V929Q7956 1000 8008 1041Q8103 1114 8234 1114Q8425 1114 8558 973ZM8396 545Q8396 671 8338.5 768.0Q8281 865 8152 865Q7997 865 7939 718Q7909 640 7909 520Q7909 330 8010 253Q8070 208 8152 208Q8271 208 8333.5 300.0Q8396 392 8396 545ZM10107 0H9815V1000H9474V1194Q9609 1200 9663 1212Q9749 1231 9803 1288Q9840 1327 9859 1392Q9870 1431 9870 1450H10107ZM11035 -36Q10758 -36 10646.5 158.0Q10535 352 10535 711Q10535 1070 10646.5 1265.0Q10758 1460 11035 1460Q11312 1460 11424 1265Q11535 1070 11535 711Q11535 352 11423.5 158.0Q11312 -36 11035 -36ZM11202 329Q11241 461 11241 711Q11241 973 11201.5 1099.0Q11162 1225 11035 1225Q10908 1225 10867.0 1099.0Q10826 973 10826 711Q10826 461 10867.0 328.5Q10908 196 11035 196Q11162 196 11202 329ZM12174 -36Q11897 -36 11785.5 158.0Q11674 352 11674 711Q11674 1070 11785.5 1265.0Q11897 1460 12174 1460Q12451 1460 12563 1265Q12674 1070 12674 711Q12674 352 12562.5 158.0Q12451 -36 12174 -36ZM12341 329Q12380 461 12380 711Q12380 973 12340.5 1099.0Q12301 1225 12174 1225Q12047 1225 12006.0 1099.0Q11965 973 11965 711Q11965 461 12006.0 328.5Q12047 196 12174 196Q12301 196 12341 329ZM14378 36Q14256 -39 14078 -39Q13785 -39 13598 164Q13403 368 13403 722Q13403 1080 13600 1296Q13797 1512 14121 1512Q14402 1512 14572.5 1369.5Q14743 1227 14768 1014H14465Q14430 1165 14294 1225Q14218 1258 14125 1258Q13947 1258 13832.5 1123.5Q13718 989 13718 719Q13718 447 13842.0 334.0Q13966 221 14124 221Q14279 221 14378.0 310.5Q14477 400 14500 545H14159V791H14773V0H14569L14538 184Q14449 79 14378 36ZM15977 320Q15966 223 15876 123Q15736 -36 15484 -36Q15276 -36 15117.0 98.0Q14958 232 14958 534Q14958 817 15101.5 968.0Q15245 1119 15474 1119Q15610 1119 15719.0 1068.0Q15828 1017 15899 907Q15963 810 15982 682Q15993 607 15991 466H15245Q15251 302 15348 236Q15407 195 15490 195Q15578 195 15633 245Q15663 272 15686 320ZM15695 654Q15688 767 15626.5 825.5Q15565 884 15474 884Q15375 884 15320.5 822.0Q15266 760 15252 654ZM16696 879Q16551 879 16497 756Q16469 691 16469 590V0H16185V1088H16460V929Q16515 1013 16564 1050Q16652 1116 16787 1116Q16956 1116 17063.5 1027.5Q17171 939 17171 734V0H16879V663Q16879 749 16856 795Q16814 879 16696 879ZM18889 303H18346L18244 0H17922L18448 1474H18796L19318 0H18984ZM18803 557 18619 1137 18429 557ZM19481 1474H19787V0H19481ZM21683 110Q21518 -41 21261 -41Q20943 -41 20761 163Q20579 368 20579 725Q20579 1111 20786 1320Q20966 1502 21244 1502Q21616 1502 21788 1258Q21883 1121 21890 983H21582Q21552 1089 21505 1143Q21421 1239 21256 1239Q21088 1239 20991.0 1103.5Q20894 968 20894 720Q20894 472 20996.5 348.5Q21099 225 21257 225Q21419 225 21504 331Q21551 388 21582 502H21887Q21847 261 21683 110ZM23008 952Q23146 779 23146 543Q23146 303 23008.0 132.5Q22870 -38 22589 -38Q22308 -38 22170.0 132.5Q22032 303 22032 543Q22032 779 22170.0 952.0Q22308 1125 22589 1125Q22870 1125 23008 952ZM22588 884Q22463 884 22395.5 795.5Q22328 707 22328 543Q22328 379 22395.5 290.0Q22463 201 22588 201Q22713 201 22780.0 290.0Q22847 379 22847 543Q22847 707 22780.0 795.5Q22713 884 22588 884ZM23863 879Q23718 879 23664 756Q23636 691 23636 590V0H23352V1088H23627V929Q23682 1013 23731 1050Q23819 1116 23954 1116Q24123 1116 24230.5 1027.5Q24338 939 24338 734V0H24046V663Q24046 749 24023 795Q23981 879 23863 879ZM25352 1040Q25480 958 25499 758H25214Q25208 813 25183 845Q25136 903 25023 903Q24930 903 24890.5 874.0Q24851 845 24851 806Q24851 757 24893 735Q24935 712 25190 656Q25360 616 25445 535Q25529 453 25529 330Q25529 168 25408.5 65.5Q25288 -37 25036 -37Q24779 -37 24656.5 71.5Q24534 180 24534 348H24823Q24832 272 24862 240Q24915 183 25058 183Q25142 183 25191.5 208.0Q25241 233 25241 283Q25241 331 25201 356Q25161 381 24904 442Q24719 488 24643 557Q24567 625 24567 753Q24567 904 24685.5 1012.5Q24804 1121 25019 1121Q25223 1121 25352 1040ZM26439 154Q26435 149 26419.0 124.0Q26403 99 26381 80Q26314 20 26251.5 -2.0Q26189 -24 26105 -24Q25863 -24 25779 150Q25732 246 25732 433V1090H26024V433Q26024 340 26046 293Q26085 210 26199 210Q26345 210 26399 328Q26427 392 26427 497V1090H26716V0H26439ZM27603 790Q27567 869 27462 869Q27340 869 27298 790Q27275 745 27275 656V0H26986V1088H27263V929Q27316 1014 27363 1050Q27446 1114 27578 1114Q27703 1114 27780 1059Q27842 1008 27874 928Q27930 1024 28013 1069Q28101 1114 28209 1114Q28281 1114 28351.0 1086.0Q28421 1058 28478 988Q28524 931 28540 848Q28550 793 28550 687L28548 0H28256V694Q28256 756 28236 796Q28198 872 28096 872Q27978 872 27933 774Q27910 722 27910 649V0H27623V649Q27623 746 27603 790ZM29745 320Q29734 223 29644 123Q29504 -36 29252 -36Q29044 -36 28885.0 98.0Q28726 232 28726 534Q28726 817 28869.5 968.0Q29013 1119 29242 1119Q29378 1119 29487.0 1068.0Q29596 1017 29667 907Q29731 810 29750 682Q29761 607 29759 466H29013Q29019 302 29116 236Q29175 195 29258 195Q29346 195 29401 245Q29431 272 29454 320ZM29463 654Q29456 767 29394.5 825.5Q29333 884 29242 884Q29143 884 29088.5 822.0Q29034 760 29020 654ZM30499 827Q30327 827 30268 715Q30235 652 30235 521V0H29948V1090H30220V900Q30286 1009 30335 1049Q30415 1116 30543 1116Q30551 1116 30556.5 1115.5Q30562 1115 30581 1114V822Q30554 825 30533.0 826.0Q30512 827 30499 827ZM32203 303H31660L31558 0H31236L31762 1474H32110L32632 0H32298ZM32117 557 31933 1137 31743 557ZM33709 973Q33841 832 33841 559Q33841 271 33711.5 120.0Q33582 -31 33378 -31Q33248 -31 33162 34Q33115 70 33070 139V-429H32788V1090H33061V929Q33107 1000 33159 1041Q33254 1114 33385 1114Q33576 1114 33709 973ZM33547 545Q33547 671 33489.5 768.0Q33432 865 33303 865Q33148 865 33090 718Q33060 640 33060 520Q33060 330 33161 253Q33221 208 33303 208Q33422 208 33484.5 300.0Q33547 392 33547 545ZM34960 973Q35092 832 35092 559Q35092 271 34962.5 120.0Q34833 -31 34629 -31Q34499 -31 34413 34Q34366 70 34321 139V-429H34039V1090H34312V929Q34358 1000 34410 1041Q34505 1114 34636 1114Q34827 1114 34960 973ZM34798 545Q34798 671 34740.5 768.0Q34683 865 34554 865Q34399 865 34341 718Q34311 640 34311 520Q34311 330 34412 253Q34472 208 34554 208Q34673 208 34735.5 300.0Q34798 392 34798 545ZM36049 1040Q36177 958 36196 758H35911Q35905 813 35880 845Q35833 903 35720 903Q35627 903 35587.5 874.0Q35548 845 35548 806Q35548 757 35590 735Q35632 712 35887 656Q36057 616 36142 535Q36226 453 36226 330Q36226 168 36105.5 65.5Q35985 -37 35733 -37Q35476 -37 35353.5 71.5Q35231 180 35231 348H35520Q35529 272 35559 240Q35612 183 35755 183Q35839 183 35888.5 208.0Q35938 233 35938 283Q35938 331 35898 356Q35858 381 35601 442Q35416 488 35340 557Q35264 625 35264 753Q35264 904 35382.5 1012.5Q35501 1121 35716 1121Q35920 1121 36049 1040ZM37114 682H38679V464H37114ZM40116 941Q40309 941 40432.5 810.0Q40556 679 40556 475Q40556 272 40435.0 117.0Q40314 -38 40059 -38Q39785 -38 39655 191Q39554 370 39554 653Q39554 819 39568 923Q39593 1108 39665 1231Q39727 1336 39827.5 1400.0Q39928 1464 40068 1464Q40270 1464 40390.0 1360.5Q40510 1257 40525 1085H40241Q40241 1120 40214 1162Q40168 1230 40075 1230Q39936 1230 39877 1074Q39845 988 39833 820Q39886 883 39956.0 912.0Q40026 941 40116 941ZM39924 669Q39840 604 39840 459Q39840 342 39903.0 268.0Q39966 194 40063 194Q40158 194 40212.5 265.5Q40267 337 40267 451Q40267 578 40205.0 645.5Q40143 713 40053 713Q39980 713 39924 669ZM41261 203V-10L41126 -15Q40924 -22 40850 55Q40802 104 40802 206V877H40650V1080H40802V1384H41084V1080H41261V877H41084V301Q41084 234 41101.0 217.5Q41118 201 41205 201Q41218 201 41232.5 201.5Q41247 202 41261 203ZM42429 640V0H42138V663Q42138 751 42108 805Q42069 881 41960 881Q41847 881 41788.5 805.5Q41730 730 41730 590V0H41446V1469H41730V948Q41792 1043 41873.5 1080.5Q41955 1118 42045 1118Q42146 1118 42228.5 1083.0Q42311 1048 42364 976Q42409 915 42419.0 850.5Q42429 786 42429 640ZM44313 644H43597V265H44413V0H43296V1474H44377V1213H43597V900H44313ZM45622 1472V0H45345V151Q45284 54 45206.0 10.0Q45128 -34 45012 -34Q44821 -34 44690.5 120.5Q44560 275 44560 517Q44560 796 44688.5 956.0Q44817 1116 45032 1116Q45131 1116 45208.0 1072.5Q45285 1029 45333 952V1472ZM44854 538Q44854 387 44914 297Q44973 206 45094 206Q45215 206 45278.0 296.0Q45341 386 45341 529Q45341 729 45240 815Q45178 867 45096 867Q44971 867 44912.5 772.5Q44854 678 44854 538ZM46174 1090V0H45885V1090ZM46174 1483V1220H45885V1483ZM46949 203V-10L46814 -15Q46612 -22 46538 55Q46490 104 46490 206V877H46338V1080H46490V1384H46772V1080H46949V877H46772V301Q46772 234 46789.0 217.5Q46806 201 46893 201Q46906 201 46920.5 201.5Q46935 202 46949 203ZM47425 1090V0H47136V1090ZM47425 1483V1220H47136V1483ZM48610 952Q48748 779 48748 543Q48748 303 48610.0 132.5Q48472 -38 48191 -38Q47910 -38 47772.0 132.5Q47634 303 47634 543Q47634 779 47772.0 952.0Q47910 1125 48191 1125Q48472 1125 48610 952ZM48190 884Q48065 884 47997.5 795.5Q47930 707 47930 543Q47930 379 47997.5 290.0Q48065 201 48190 201Q48315 201 48382.0 290.0Q48449 379 48449 543Q48449 707 48382.0 795.5Q48315 884 48190 884ZM49465 879Q49320 879 49266 756Q49238 691 49238 590V0H48954V1088H49229V929Q49284 1013 49333 1050Q49421 1116 49556 1116Q49725 1116 49832.5 1027.5Q49940 939 49940 734V0H49648V663Q49648 749 49625 795Q49583 879 49465 879Z"/></g></svg>
