<svg xmlns="http://www.w3.org/2000/svg" width="166" height="22" viewBox="0 0 166 22"><defs><linearGradient id="crisp-grad" gradientUnits="userSpaceOnUse" x1="0" y1="0" x2="20028" y2="0"><stop offset="0%" stop-color="#0A78E8"/><stop offset="50%" stop-color="#0071E3"/><stop offset="100%" stop-color="#006ADD"/></linearGradient></defs><g fill="url(#crisp-grad)" transform="translate(6, 15) scale(0.007812, -0.007812)"><path d="M1019 303H476L374 0H52L578 1474H926L1448 0H1114ZM933 557 749 1137 559 557ZM1611 1474H1917V0H1611ZM3399 530H3086V0H2780V1474H3422Q3644 1474 3776.0 1360.0Q3908 1246 3908 1007Q3908 746 3776.0 638.0Q3644 530 3399 530ZM3543 837Q3603 890 3603 1005Q3603 1120 3542.5 1169.0Q3482 1218 3373 1218H3086V784H3373Q3482 784 3543 837ZM4664 827Q4492 827 4433 715Q4400 652 4400 521V0H4113V1090H4385V900Q4451 1009 4500 1049Q4580 1116 4708 1116Q4716 1116 4721.5 1115.5Q4727 1115 4746 1114V822Q4719 825 4698.0 826.0Q4677 827 4664 827ZM5822 952Q5960 779 5960 543Q5960 303 5822.0 132.5Q5684 -38 5403 -38Q5122 -38 4984.0 132.5Q4846 303 4846 543Q4846 779 4984.0 952.0Q5122 1125 5403 1125Q5684 1125 5822 952ZM5402 884Q5277 884 5209.5 795.5Q5142 707 5142 543Q5142 379 5209.5 290.0Q5277 201 5402 201Q5527 201 5594.0 290.0Q5661 379 5661 543Q5661 707 5594.0 795.5Q5527 884 5402 884ZM7156 1472V0H6879V151Q6818 54 6740.0 10.0Q6662 -34 6546 -34Q6355 -34 6224.5 120.5Q6094 275 6094 517Q6094 796 6222.5 956.0Q6351 1116 6566 1116Q6665 1116 6742.0 1072.5Q6819 1029 6867 952V1472ZM6388 538Q6388 387 6448 297Q6507 206 6628 206Q6749 206 6812.0 296.0Q6875 386 6875 529Q6875 729 6774 815Q6712 867 6630 867Q6505 867 6446.5 772.5Q6388 678 6388 538ZM8114 154Q8110 149 8094.0 124.0Q8078 99 8056 80Q7989 20 7926.5 -2.0Q7864 -24 7780 -24Q7538 -24 7454 150Q7407 246 7407 433V1090H7699V433Q7699 340 7721 293Q7760 210 7874 210Q8020 210 8074 328Q8102 392 8102 497V1090H8391V0H8114ZM9609 699H9317Q9309 760 9276 809Q9228 875 9127 875Q8983 875 8930 732Q8902 656 8902 530Q8902 410 8930 337Q8981 201 9122 201Q9222 201 9264.0 255.0Q9306 309 9315 395H9606Q9596 265 9512 149Q9378 -38 9115 -38Q8852 -38 8728.0 118.0Q8604 274 8604 523Q8604 804 8741.0 960.0Q8878 1116 9119 1116Q9324 1116 9454.5 1024.0Q9585 932 9609 699ZM10304 203V-10L10169 -15Q9967 -22 9893 55Q9845 104 9845 206V877H9693V1080H9845V1384H10127V1080H10304V877H10127V301Q10127 234 10144.0 217.5Q10161 201 10248 201Q10261 201 10275.5 201.5Q10290 202 10304 203ZM11705 530H11392V0H11086V1474H11728Q11950 1474 12082.0 1360.0Q12214 1246 12214 1007Q12214 746 12082.0 638.0Q11950 530 11705 530ZM11849 837Q11909 890 11909 1005Q11909 1120 11848.5 1169.0Q11788 1218 11679 1218H11392V784H11679Q11788 784 11849 837ZM12428 1474H12713V0H12428ZM13032 972Q13145 1116 13420 1116Q13599 1116 13738 1045Q13877 974 13877 777V277Q13877 225 13879 151Q13882 95 13896.0 75.0Q13910 55 13938 42V0H13628Q13615 33 13610.0 62.0Q13605 91 13602 128Q13543 64 13466 19Q13374 -34 13258 -34Q13110 -34 13013.5 50.5Q12917 135 12917 290Q12917 491 13072 581Q13157 630 13322 651L13419 663Q13498 673 13532 688Q13593 714 13593 769Q13593 836 13546.5 861.5Q13500 887 13410 887Q13309 887 13267 837Q13237 800 13227 737H12952Q12961 880 13032 972ZM13244 206Q13284 173 13342 173Q13434 173 13511.5 227.0Q13589 281 13592 424V530Q13565 513 13537.5 502.5Q13510 492 13462 483L13398 471Q13308 455 13269 432Q13203 393 13203 311Q13203 238 13244 206ZM14573 286 14798 1090H15101L14727 18Q14619 -292 14556.0 -366.5Q14493 -441 14304 -441Q14266 -441 14243.0 -440.5Q14220 -440 14174 -437V-209L14210 -211Q14252 -213 14290.0 -208.0Q14328 -203 14354 -185Q14379 -168 14400.5 -114.0Q14422 -60 14418 -48L14018 1090H14335ZM15861 -29Q15726 -29 15644 25Q15595 57 15538 137V0H15259V1472H15543V948Q15597 1024 15662 1064Q15739 1114 15858 1114Q16073 1114 16194.5 959.0Q16316 804 16316 559Q16316 305 16196.0 138.0Q16076 -29 15861 -29ZM16017 529Q16017 645 15987 721Q15930 865 15777 865Q15622 865 15564 724Q15534 649 15534 530Q15534 390 15596.0 298.0Q15658 206 15785 206Q15895 206 15956.0 295.0Q16017 384 16017 529ZM17429 952Q17567 779 17567 543Q17567 303 17429.0 132.5Q17291 -38 17010 -38Q16729 -38 16591.0 132.5Q16453 303 16453 543Q16453 779 16591.0 952.0Q16729 1125 17010 1125Q17291 1125 17429 952ZM17009 884Q16884 884 16816.5 795.5Q16749 707 16749 543Q16749 379 16816.5 290.0Q16884 201 17009 201Q17134 201 17201.0 290.0Q17268 379 17268 543Q17268 707 17201.0 795.5Q17134 884 17009 884ZM18680 952Q18818 779 18818 543Q18818 303 18680.0 132.5Q18542 -38 18261 -38Q17980 -38 17842.0 132.5Q17704 303 17704 543Q17704 779 17842.0 952.0Q17980 1125 18261 1125Q18542 1125 18680 952ZM18260 884Q18135 884 18067.5 795.5Q18000 707 18000 543Q18000 379 18067.5 290.0Q18135 201 18260 201Q18385 201 18452.0 290.0Q18519 379 18519 543Q18519 707 18452.0 795.5Q18385 884 18260 884ZM20022 0H19678L19417 466L19299 343V0H19019V1469H19299V675L19654 1085H20007L19626 668Z"/></g></svg>
