<svg xmlns="http://www.w3.org/2000/svg" width="273" height="22" viewBox="0 0 273 22"><defs><linearGradient id="crisp-grad" gradientUnits="userSpaceOnUse" x1="0" y1="0" x2="33687" y2="0"><stop offset="0%" stop-color="#0A78E8"/><stop offset="50%" stop-color="#0071E3"/><stop offset="100%" stop-color="#006ADD"/></linearGradient></defs><g fill="url(#crisp-grad)" transform="translate(6, 15) scale(0.007812, -0.007812)"><path d="M1019 303H476L374 0H52L578 1474H926L1448 0H1114ZM933 557 749 1137 559 557ZM1611 1474H1917V0H1611ZM3399 530H3086V0H2780V1474H3422Q3644 1474 3776.0 1360.0Q3908 1246 3908 1007Q3908 746 3776.0 638.0Q3644 530 3399 530ZM3543 837Q3603 890 3603 1005Q3603 1120 3542.5 1169.0Q3482 1218 3373 1218H3086V784H3373Q3482 784 3543 837ZM4664 827Q4492 827 4433 715Q4400 652 4400 521V0H4113V1090H4385V900Q4451 1009 4500 1049Q4580 1116 4708 1116Q4716 1116 4721.5 1115.5Q4727 1115 4746 1114V822Q4719 825 4698.0 826.0Q4677 827 4664 827ZM5822 952Q5960 779 5960 543Q5960 303 5822.0 132.5Q5684 -38 5403 -38Q5122 -38 4984.0 132.5Q4846 303 4846 543Q4846 779 4984.0 952.0Q5122 1125 5403 1125Q5684 1125 5822 952ZM5402 884Q5277 884 5209.5 795.5Q5142 707 5142 543Q5142 379 5209.5 290.0Q5277 201 5402 201Q5527 201 5594.0 290.0Q5661 379 5661 543Q5661 707 5594.0 795.5Q5527 884 5402 884ZM7156 1472V0H6879V151Q6818 54 6740.0 10.0Q6662 -34 6546 -34Q6355 -34 6224.5 120.5Q6094 275 6094 517Q6094 796 6222.5 956.0Q6351 1116 6566 1116Q6665 1116 6742.0 1072.5Q6819 1029 6867 952V1472ZM6388 538Q6388 387 6448 297Q6507 206 6628 206Q6749 206 6812.0 296.0Q6875 386 6875 529Q6875 729 6774 815Q6712 867 6630 867Q6505 867 6446.5 772.5Q6388 678 6388 538ZM8114 154Q8110 149 8094.0 124.0Q8078 99 8056 80Q7989 20 7926.5 -2.0Q7864 -24 7780 -24Q7538 -24 7454 150Q7407 246 7407 433V1090H7699V433Q7699 340 7721 293Q7760 210 7874 210Q8020 210 8074 328Q8102 392 8102 497V1090H8391V0H8114ZM9609 699H9317Q9309 760 9276 809Q9228 875 9127 875Q8983 875 8930 732Q8902 656 8902 530Q8902 410 8930 337Q8981 201 9122 201Q9222 201 9264.0 255.0Q9306 309 9315 395H9606Q9596 265 9512 149Q9378 -38 9115 -38Q8852 -38 8728.0 118.0Q8604 274 8604 523Q8604 804 8741.0 960.0Q8878 1116 9119 1116Q9324 1116 9454.5 1024.0Q9585 932 9609 699ZM10304 203V-10L10169 -15Q9967 -22 9893 55Q9845 104 9845 206V877H9693V1080H9845V1384H10127V1080H10304V877H10127V301Q10127 234 10144.0 217.5Q10161 201 10248 201Q10261 201 10275.5 201.5Q10290 202 10304 203ZM11361 0H11074V1474H11522L11790 315L12056 1474H12499V0H12212V997Q12212 1040 12213.0 1117.5Q12214 1195 12214 1237L11935 0H11636L11359 1237Q11359 1195 11360.0 1117.5Q11361 1040 11361 997ZM12803 972Q12916 1116 13191 1116Q13370 1116 13509 1045Q13648 974 13648 777V277Q13648 225 13650 151Q13653 95 13667.0 75.0Q13681 55 13709 42V0H13399Q13386 33 13381.0 62.0Q13376 91 13373 128Q13314 64 13237 19Q13145 -34 13029 -34Q12881 -34 12784.5 50.5Q12688 135 12688 290Q12688 491 12843 581Q12928 630 13093 651L13190 663Q13269 673 13303 688Q13364 714 13364 769Q13364 836 13317.5 861.5Q13271 887 13181 887Q13080 887 13038 837Q13008 800 12998 737H12723Q12732 880 12803 972ZM13015 206Q13055 173 13113 173Q13205 173 13282.5 227.0Q13360 281 13363 424V530Q13336 513 13308.5 502.5Q13281 492 13233 483L13169 471Q13079 455 13040 432Q12974 393 12974 311Q12974 238 13015 206ZM14414 879Q14269 879 14215 756Q14187 691 14187 590V0H13903V1088H14178V929Q14233 1013 14282 1050Q14370 1116 14505 1116Q14674 1116 14781.5 1027.5Q14889 939 14889 734V0H14597V663Q14597 749 14574 795Q14532 879 14414 879ZM15193 972Q15306 1116 15581 1116Q15760 1116 15899 1045Q16038 974 16038 777V277Q16038 225 16040 151Q16043 95 16057.0 75.0Q16071 55 16099 42V0H15789Q15776 33 15771.0 62.0Q15766 91 15763 128Q15704 64 15627 19Q15535 -34 15419 -34Q15271 -34 15174.5 50.5Q15078 135 15078 290Q15078 491 15233 581Q15318 630 15483 651L15580 663Q15659 673 15693 688Q15754 714 15754 769Q15754 836 15707.5 861.5Q15661 887 15571 887Q15470 887 15428 837Q15398 800 15388 737H15113Q15122 880 15193 972ZM15405 206Q15445 173 15503 173Q15595 173 15672.5 227.0Q15750 281 15753 424V530Q15726 513 15698.5 502.5Q15671 492 15623 483L15559 471Q15469 455 15430 432Q15364 393 15364 311Q15364 238 15405 206ZM16599 -191Q16645 -230 16754 -230Q16908 -230 16960 -127Q16994 -61 16994 95V165Q16953 95 16906 60Q16821 -5 16685 -5Q16475 -5 16349.5 142.5Q16224 290 16224 542Q16224 785 16345.0 950.5Q16466 1116 16688 1116Q16770 1116 16831 1091Q16935 1048 16999 933V1090H17276V56Q17276 -155 17205 -262Q17083 -446 16737 -446Q16528 -446 16396.0 -364.0Q16264 -282 16250 -119H16560Q16572 -169 16599 -191ZM16551 372Q16609 234 16759 234Q16859 234 16928.0 309.5Q16997 385 16997 550Q16997 705 16931.5 786.0Q16866 867 16756 867Q16606 867 16549 726Q16519 651 16519 541Q16519 446 16551 372ZM18475 320Q18464 223 18374 123Q18234 -36 17982 -36Q17774 -36 17615.0 98.0Q17456 232 17456 534Q17456 817 17599.5 968.0Q17743 1119 17972 1119Q18108 1119 18217.0 1068.0Q18326 1017 18397 907Q18461 810 18480 682Q18491 607 18489 466H17743Q17749 302 17846 236Q17905 195 17988 195Q18076 195 18131 245Q18161 272 18184 320ZM18193 654Q18186 767 18124.5 825.5Q18063 884 17972 884Q17873 884 17818.5 822.0Q17764 760 17750 654ZM19293 790Q19257 869 19152 869Q19030 869 18988 790Q18965 745 18965 656V0H18676V1088H18953V929Q19006 1014 19053 1050Q19136 1114 19268 1114Q19393 1114 19470 1059Q19532 1008 19564 928Q19620 1024 19703 1069Q19791 1114 19899 1114Q19971 1114 20041.0 1086.0Q20111 1058 20168 988Q20214 931 20230 848Q20240 793 20240 687L20238 0H19946V694Q19946 756 19926 796Q19888 872 19786 872Q19668 872 19623 774Q19600 722 19600 649V0H19313V649Q19313 746 19293 790ZM21435 320Q21424 223 21334 123Q21194 -36 20942 -36Q20734 -36 20575.0 98.0Q20416 232 20416 534Q20416 817 20559.5 968.0Q20703 1119 20932 1119Q21068 1119 21177.0 1068.0Q21286 1017 21357 907Q21421 810 21440 682Q21451 607 21449 466H20703Q20709 302 20806 236Q20865 195 20948 195Q21036 195 21091 245Q21121 272 21144 320ZM21153 654Q21146 767 21084.5 825.5Q21023 884 20932 884Q20833 884 20778.5 822.0Q20724 760 20710 654ZM22154 879Q22009 879 21955 756Q21927 691 21927 590V0H21643V1088H21918V929Q21973 1013 22022 1050Q22110 1116 22245 1116Q22414 1116 22521.5 1027.5Q22629 939 22629 734V0H22337V663Q22337 749 22314 795Q22272 879 22154 879ZM23391 203V-10L23256 -15Q23054 -22 22980 55Q22932 104 22932 206V877H22780V1080H22932V1384H23214V1080H23391V877H23214V301Q23214 234 23231.0 217.5Q23248 201 23335 201Q23348 201 23362.5 201.5Q23377 202 23391 203ZM24722 1155Q24671 1216 24576 1216Q24446 1216 24399 1119Q24372 1063 24367 941H24090Q24097 1126 24157 1240Q24271 1457 24562 1457Q24792 1457 24928.0 1329.5Q25064 1202 25064 992Q25064 831 24968 706Q24905 623 24761 521L24647 440Q24540 364 24500.5 330.0Q24461 296 24434 251H25067V0H24074Q24078 156 24141 285Q24202 430 24429 592Q24626 733 24684 794Q24773 889 24773 1002Q24773 1094 24722 1155ZM27064 1474 26571 554V0H26263V554L25753 1474H26116L26422 832L26715 1474ZM28150 320Q28139 223 28049 123Q27909 -36 27657 -36Q27449 -36 27290.0 98.0Q27131 232 27131 534Q27131 817 27274.5 968.0Q27418 1119 27647 1119Q27783 1119 27892.0 1068.0Q28001 1017 28072 907Q28136 810 28155 682Q28166 607 28164 466H27418Q27424 302 27521 236Q27580 195 27663 195Q27751 195 27806 245Q27836 272 27859 320ZM27868 654Q27861 767 27799.5 825.5Q27738 884 27647 884Q27548 884 27493.5 822.0Q27439 760 27425 654ZM28397 972Q28510 1116 28785 1116Q28964 1116 29103 1045Q29242 974 29242 777V277Q29242 225 29244 151Q29247 95 29261.0 75.0Q29275 55 29303 42V0H28993Q28980 33 28975.0 62.0Q28970 91 28967 128Q28908 64 28831 19Q28739 -34 28623 -34Q28475 -34 28378.5 50.5Q28282 135 28282 290Q28282 491 28437 581Q28522 630 28687 651L28784 663Q28863 673 28897 688Q28958 714 28958 769Q28958 836 28911.5 861.5Q28865 887 28775 887Q28674 887 28632 837Q28602 800 28592 737H28317Q28326 880 28397 972ZM28609 206Q28649 173 28707 173Q28799 173 28876.5 227.0Q28954 281 28957 424V530Q28930 513 28902.5 502.5Q28875 492 28827 483L28763 471Q28673 455 28634 432Q28568 393 28568 311Q28568 238 28609 206ZM30043 827Q29871 827 29812 715Q29779 652 29779 521V0H29492V1090H29764V900Q29830 1009 29879 1049Q29959 1116 30087 1116Q30095 1116 30100.5 1115.5Q30106 1115 30125 1114V822Q30098 825 30077.0 826.0Q30056 827 30043 827ZM31043 1040Q31171 958 31190 758H30905Q30899 813 30874 845Q30827 903 30714 903Q30621 903 30581.5 874.0Q30542 845 30542 806Q30542 757 30584 735Q30626 712 30881 656Q31051 616 31136 535Q31220 453 31220 330Q31220 168 31099.5 65.5Q30979 -37 30727 -37Q30470 -37 30347.5 71.5Q30225 180 30225 348H30514Q30523 272 30553 240Q30606 183 30749 183Q30833 183 30882.5 208.0Q30932 233 30932 283Q30932 331 30892 356Q30852 381 30595 442Q30410 488 30334 557Q30258 625 30258 753Q30258 904 30376.5 1012.5Q30495 1121 30710 1121Q30914 1121 31043 1040ZM31999 1474H32305V0H31999ZM33082 879Q32937 879 32883 756Q32855 691 32855 590V0H32571V1088H32846V929Q32901 1013 32950 1050Q33038 1116 33173 1116Q33342 1116 33449.5 1027.5Q33557 939 33557 734V0H33265V663Q33265 749 33242 795Q33200 879 33082 879Z"/></g></svg>
