<svg xmlns="http://www.w3.org/2000/svg" width="134" height="22" viewBox="0 0 134 22"><defs><linearGradient id="crisp-grad" gradientUnits="userSpaceOnUse" x1="0" y1="0" x2="15932" y2="0"><stop offset="0%" stop-color="#0A78E8"/><stop offset="50%" stop-color="#0071E3"/><stop offset="100%" stop-color="#006ADD"/></linearGradient></defs><g fill="url(#crisp-grad)" transform="translate(6, 15) scale(0.007812, -0.007812)"><path d="M1019 303H476L374 0H52L578 1474H926L1448 0H1114ZM933 557 749 1137 559 557ZM2125 879Q1980 879 1926 756Q1898 691 1898 590V0H1614V1088H1889V929Q1944 1013 1993 1050Q2081 1116 2216 1116Q2385 1116 2492.5 1027.5Q2600 939 2600 734V0H2308V663Q2308 749 2285 795Q2243 879 2125 879ZM3855 1472V0H3578V151Q3517 54 3439.0 10.0Q3361 -34 3245 -34Q3054 -34 2923.5 120.5Q2793 275 2793 517Q2793 796 2921.5 956.0Q3050 1116 3265 1116Q3364 1116 3441.0 1072.5Q3518 1029 3566 952V1472ZM3087 538Q3087 387 3147 297Q3206 206 3327 206Q3448 206 3511.0 296.0Q3574 386 3574 529Q3574 729 3473 815Q3411 867 3329 867Q3204 867 3145.5 772.5Q3087 678 3087 538ZM4662 827Q4490 827 4431 715Q4398 652 4398 521V0H4111V1090H4383V900Q4449 1009 4498 1049Q4578 1116 4706 1116Q4714 1116 4719.5 1115.5Q4725 1115 4744 1114V822Q4717 825 4696.0 826.0Q4675 827 4662 827ZM5844 320Q5833 223 5743 123Q5603 -36 5351 -36Q5143 -36 4984.0 98.0Q4825 232 4825 534Q4825 817 4968.5 968.0Q5112 1119 5341 1119Q5477 1119 5586.0 1068.0Q5695 1017 5766 907Q5830 810 5849 682Q5860 607 5858 466H5112Q5118 302 5215 236Q5274 195 5357 195Q5445 195 5500 245Q5530 272 5553 320ZM5562 654Q5555 767 5493.5 825.5Q5432 884 5341 884Q5242 884 5187.5 822.0Q5133 760 5119 654ZM6063 1085H6348V-117Q6348 -282 6283.0 -361.0Q6218 -440 6028 -440Q6015 -440 5989.5 -439.0Q5964 -438 5926 -437V-209Q5950 -211 5960.0 -211.5Q5970 -212 5978 -212Q6020 -212 6041.5 -191.5Q6063 -171 6063 -112ZM6063 1483H6348V1220H6063ZM8517 0H8121L7666 644L7519 493V0H7216V1474H7519V867L8088 1474H8486L7882 867ZM8708 972Q8821 1116 9096 1116Q9275 1116 9414 1045Q9553 974 9553 777V277Q9553 225 9555 151Q9558 95 9572.0 75.0Q9586 55 9614 42V0H9304Q9291 33 9286.0 62.0Q9281 91 9278 128Q9219 64 9142 19Q9050 -34 8934 -34Q8786 -34 8689.5 50.5Q8593 135 8593 290Q8593 491 8748 581Q8833 630 8998 651L9095 663Q9174 673 9208 688Q9269 714 9269 769Q9269 836 9222.5 861.5Q9176 887 9086 887Q8985 887 8943 837Q8913 800 8903 737H8628Q8637 880 8708 972ZM8920 206Q8960 173 9018 173Q9110 173 9187.5 227.0Q9265 281 9268 424V530Q9241 513 9213.5 502.5Q9186 492 9138 483L9074 471Q8984 455 8945 432Q8879 393 8879 311Q8879 238 8920 206ZM10354 827Q10182 827 10123 715Q10090 652 10090 521V0H9803V1090H10075V900Q10141 1009 10190 1049Q10270 1116 10398 1116Q10406 1116 10411.5 1115.5Q10417 1115 10436 1114V822Q10409 825 10388.0 826.0Q10367 827 10354 827ZM11516 973Q11648 832 11648 559Q11648 271 11518.5 120.0Q11389 -31 11185 -31Q11055 -31 10969 34Q10922 70 10877 139V-429H10595V1090H10868V929Q10914 1000 10966 1041Q11061 1114 11192 1114Q11383 1114 11516 973ZM11354 545Q11354 671 11296.5 768.0Q11239 865 11110 865Q10955 865 10897 718Q10867 640 10867 520Q10867 330 10968 253Q11028 208 11110 208Q11229 208 11291.5 300.0Q11354 392 11354 545ZM11895 972Q12008 1116 12283 1116Q12462 1116 12601 1045Q12740 974 12740 777V277Q12740 225 12742 151Q12745 95 12759.0 75.0Q12773 55 12801 42V0H12491Q12478 33 12473.0 62.0Q12468 91 12465 128Q12406 64 12329 19Q12237 -34 12121 -34Q11973 -34 11876.5 50.5Q11780 135 11780 290Q11780 491 11935 581Q12020 630 12185 651L12282 663Q12361 673 12395 688Q12456 714 12456 769Q12456 836 12409.5 861.5Q12363 887 12273 887Q12172 887 12130 837Q12100 800 12090 737H11815Q11824 880 11895 972ZM12107 206Q12147 173 12205 173Q12297 173 12374.5 227.0Q12452 281 12455 424V530Q12428 513 12400.5 502.5Q12373 492 12325 483L12261 471Q12171 455 12132 432Q12066 393 12066 311Q12066 238 12107 206ZM13492 203V-10L13357 -15Q13155 -22 13081 55Q13033 104 13033 206V877H12881V1080H13033V1384H13315V1080H13492V877H13315V301Q13315 234 13332.0 217.5Q13349 201 13436 201Q13449 201 13463.5 201.5Q13478 202 13492 203ZM14660 640V0H14369V663Q14369 751 14339 805Q14300 881 14191 881Q14078 881 14019.5 805.5Q13961 730 13961 590V0H13677V1469H13961V948Q14023 1043 14104.5 1080.5Q14186 1118 14276 1118Q14377 1118 14459.5 1083.0Q14542 1048 14595 976Q14640 915 14650.0 850.5Q14660 786 14660 640ZM15369 286 15594 1090H15897L15523 18Q15415 -292 15352.0 -366.5Q15289 -441 15100 -441Q15062 -441 15039.0 -440.5Q15016 -440 14970 -437V-209L15006 -211Q15048 -213 15086.0 -208.0Q15124 -203 15150 -185Q15175 -168 15196.5 -114.0Q15218 -60 15214 -48L14814 1090H15131Z"/></g></svg>
