<svg xmlns="http://www.w3.org/2000/svg" width="63" height="22" viewBox="0 0 63 22"><defs><linearGradient id="crisp-grad" gradientUnits="userSpaceOnUse" x1="0" y1="0" x2="6828" y2="0"><stop offset="0%" stop-color="#0A78E8"/><stop offset="50%" stop-color="#0071E3"/><stop offset="100%" stop-color="#006ADD"/></linearGradient></defs><g fill="url(#crisp-grad)" transform="translate(6, 15) scale(0.007812, -0.007812)"><path d="M1019 303H476L374 0H52L578 1474H926L1448 0H1114ZM933 557 749 1137 559 557ZM2453 0H1512V222L2071 858H1550V1090H2434V853L1881 234H2453ZM2677 972Q2790 1116 3065 1116Q3244 1116 3383 1045Q3522 974 3522 777V277Q3522 225 3524 151Q3527 95 3541.0 75.0Q3555 55 3583 42V0H3273Q3260 33 3255.0 62.0Q3250 91 3247 128Q3188 64 3111 19Q3019 -34 2903 -34Q2755 -34 2658.5 50.5Q2562 135 2562 290Q2562 491 2717 581Q2802 630 2967 651L3064 663Q3143 673 3177 688Q3238 714 3238 769Q3238 836 3191.5 861.5Q3145 887 3055 887Q2954 887 2912 837Q2882 800 2872 737H2597Q2606 880 2677 972ZM2889 206Q2929 173 2987 173Q3079 173 3156.5 227.0Q3234 281 3237 424V530Q3210 513 3182.5 502.5Q3155 492 3107 483L3043 471Q2953 455 2914 432Q2848 393 2848 311Q2848 238 2889 206ZM5230 303H4687L4585 0H4263L4789 1474H5137L5659 0H5325ZM5144 557 4960 1137 4770 557ZM5829 1474H6114V0H5829ZM6685 1090V0H6396V1090ZM6685 1483V1220H6396V1483Z"/></g></svg>
