<svg xmlns="http://www.w3.org/2000/svg" width="59" height="22" viewBox="0 0 59 22"><defs><linearGradient id="crisp-grad" gradientUnits="userSpaceOnUse" x1="0" y1="0" x2="6259" y2="0"><stop offset="0%" stop-color="#0A78E8"/><stop offset="50%" stop-color="#0071E3"/><stop offset="100%" stop-color="#006ADD"/></linearGradient></defs><g fill="url(#crisp-grad)" transform="translate(6, 15) scale(0.007812, -0.007812)"><path d="M829 0H161V1474H877Q1148 1470 1261 1317Q1329 1223 1329 1092Q1329 957 1261 875Q1223 829 1149 791Q1262 750 1319.5 661.0Q1377 572 1377 445Q1377 314 1311 210Q1269 141 1206 94Q1135 40 1038.5 20.0Q942 0 829 0ZM822 649H455V256H817Q914 256 968 282Q1066 330 1066 466Q1066 581 971 624Q918 648 822 649ZM975 930Q1035 966 1035 1059Q1035 1162 955 1195Q886 1218 779 1218H455V893H817Q914 893 975 930ZM2521 952Q2659 779 2659 543Q2659 303 2521.0 132.5Q2383 -38 2102 -38Q1821 -38 1683.0 132.5Q1545 303 1545 543Q1545 779 1683.0 952.0Q1821 1125 2102 1125Q2383 1125 2521 952ZM2101 884Q1976 884 1908.5 795.5Q1841 707 1841 543Q1841 379 1908.5 290.0Q1976 201 2101 201Q2226 201 2293.0 290.0Q2360 379 2360 543Q2360 707 2293.0 795.5Q2226 884 2101 884ZM3772 952Q3910 779 3910 543Q3910 303 3772.0 132.5Q3634 -38 3353 -38Q3072 -38 2934.0 132.5Q2796 303 2796 543Q2796 779 2934.0 952.0Q3072 1125 3353 1125Q3634 1125 3772 952ZM3352 884Q3227 884 3159.5 795.5Q3092 707 3092 543Q3092 379 3159.5 290.0Q3227 201 3352 201Q3477 201 3544.0 290.0Q3611 379 3611 543Q3611 707 3544.0 795.5Q3477 884 3352 884ZM5114 0H4770L4509 466L4391 343V0H4111V1469H4391V675L4746 1085H5099L4718 668ZM6004 1040Q6132 958 6151 758H5866Q5860 813 5835 845Q5788 903 5675 903Q5582 903 5542.5 874.0Q5503 845 5503 806Q5503 757 5545 735Q5587 712 5842 656Q6012 616 6097 535Q6181 453 6181 330Q6181 168 6060.5 65.5Q5940 -37 5688 -37Q5431 -37 5308.5 71.5Q5186 180 5186 348H5475Q5484 272 5514 240Q5567 183 5710 183Q5794 183 5843.5 208.0Q5893 233 5893 283Q5893 331 5853 356Q5813 381 5556 442Q5371 488 5295 557Q5219 625 5219 753Q5219 904 5337.5 1012.5Q5456 1121 5671 1121Q5875 1121 6004 1040Z"/></g></svg>
