<svg xmlns="http://www.w3.org/2000/svg" width="50" height="22" viewBox="0 0 50 22"><defs><linearGradient id="crisp-grad" gradientUnits="userSpaceOnUse" x1="0" y1="0" x2="5120" y2="0"><stop offset="0%" stop-color="#0A78E8"/><stop offset="50%" stop-color="#0071E3"/><stop offset="100%" stop-color="#006ADD"/></linearGradient></defs><g fill="url(#crisp-grad)" transform="translate(6, 15) scale(0.007812, -0.007812)"><path d="M1196 110Q1031 -41 774 -41Q456 -41 274 163Q92 368 92 725Q92 1111 299 1320Q479 1502 757 1502Q1129 1502 1301 1258Q1396 1121 1403 983H1095Q1065 1089 1018 1143Q934 1239 769 1239Q601 1239 504.0 1103.5Q407 968 407 720Q407 472 509.5 348.5Q612 225 770 225Q932 225 1017 331Q1064 388 1095 502H1400Q1360 261 1196 110ZM2521 952Q2659 779 2659 543Q2659 303 2521.0 132.5Q2383 -38 2102 -38Q1821 -38 1683.0 132.5Q1545 303 1545 543Q1545 779 1683.0 952.0Q1821 1125 2102 1125Q2383 1125 2521 952ZM2101 884Q1976 884 1908.5 795.5Q1841 707 1841 543Q1841 379 1908.5 290.0Q1976 201 2101 201Q2226 201 2293.0 290.0Q2360 379 2360 543Q2360 707 2293.0 795.5Q2226 884 2101 884ZM3855 1472V0H3578V151Q3517 54 3439.0 10.0Q3361 -34 3245 -34Q3054 -34 2923.5 120.5Q2793 275 2793 517Q2793 796 2921.5 956.0Q3050 1116 3265 1116Q3364 1116 3441.0 1072.5Q3518 1029 3566 952V1472ZM3087 538Q3087 387 3147 297Q3206 206 3327 206Q3448 206 3511.0 296.0Q3574 386 3574 529Q3574 729 3473 815Q3411 867 3329 867Q3204 867 3145.5 772.5Q3087 678 3087 538ZM4155 972Q4268 1116 4543 1116Q4722 1116 4861 1045Q5000 974 5000 777V277Q5000 225 5002 151Q5005 95 5019.0 75.0Q5033 55 5061 42V0H4751Q4738 33 4733.0 62.0Q4728 91 4725 128Q4666 64 4589 19Q4497 -34 4381 -34Q4233 -34 4136.5 50.5Q4040 135 4040 290Q4040 491 4195 581Q4280 630 4445 651L4542 663Q4621 673 4655 688Q4716 714 4716 769Q4716 836 4669.5 861.5Q4623 887 4533 887Q4432 887 4390 837Q4360 800 4350 737H4075Q4084 880 4155 972ZM4367 206Q4407 173 4465 173Q4557 173 4634.5 227.0Q4712 281 4715 424V530Q4688 513 4660.5 502.5Q4633 492 4585 483L4521 471Q4431 455 4392 432Q4326 393 4326 311Q4326 238 4367 206Z"/></g></svg>
