<svg xmlns="http://www.w3.org/2000/svg" width="111" height="22" viewBox="0 0 111 22"><defs><linearGradient id="crisp-grad" gradientUnits="userSpaceOnUse" x1="0" y1="0" x2="12972" y2="0"><stop offset="0%" stop-color="#0A78E8"/><stop offset="50%" stop-color="#0071E3"/><stop offset="100%" stop-color="#006ADD"/></linearGradient></defs><g fill="url(#crisp-grad)" transform="translate(6, 15) scale(0.007812, -0.007812)"><path d="M1196 110Q1031 -41 774 -41Q456 -41 274 163Q92 368 92 725Q92 1111 299 1320Q479 1502 757 1502Q1129 1502 1301 1258Q1396 1121 1403 983H1095Q1065 1089 1018 1143Q934 1239 769 1239Q601 1239 504.0 1103.5Q407 968 407 720Q407 472 509.5 348.5Q612 225 770 225Q932 225 1017 331Q1064 388 1095 502H1400Q1360 261 1196 110ZM2521 952Q2659 779 2659 543Q2659 303 2521.0 132.5Q2383 -38 2102 -38Q1821 -38 1683.0 132.5Q1545 303 1545 543Q1545 779 1683.0 952.0Q1821 1125 2102 1125Q2383 1125 2521 952ZM2101 884Q1976 884 1908.5 795.5Q1841 707 1841 543Q1841 379 1908.5 290.0Q1976 201 2101 201Q2226 201 2293.0 290.0Q2360 379 2360 543Q2360 707 2293.0 795.5Q2226 884 2101 884ZM3475 790Q3439 869 3334 869Q3212 869 3170 790Q3147 745 3147 656V0H2858V1088H3135V929Q3188 1014 3235 1050Q3318 1114 3450 1114Q3575 1114 3652 1059Q3714 1008 3746 928Q3802 1024 3885 1069Q3973 1114 4081 1114Q4153 1114 4223.0 1086.0Q4293 1058 4350 988Q4396 931 4412 848Q4422 793 4422 687L4420 0H4128V694Q4128 756 4108 796Q4070 872 3968 872Q3850 872 3805 774Q3782 722 3782 649V0H3495V649Q3495 746 3475 790ZM5296 790Q5260 869 5155 869Q5033 869 4991 790Q4968 745 4968 656V0H4679V1088H4956V929Q5009 1014 5056 1050Q5139 1114 5271 1114Q5396 1114 5473 1059Q5535 1008 5567 928Q5623 1024 5706 1069Q5794 1114 5902 1114Q5974 1114 6044.0 1086.0Q6114 1058 6171 988Q6217 931 6233 848Q6243 793 6243 687L6241 0H5949V694Q5949 756 5929 796Q5891 872 5789 872Q5671 872 5626 774Q5603 722 5603 649V0H5316V649Q5316 746 5296 790ZM7204 154Q7200 149 7184.0 124.0Q7168 99 7146 80Q7079 20 7016.5 -2.0Q6954 -24 6870 -24Q6628 -24 6544 150Q6497 246 6497 433V1090H6789V433Q6789 340 6811 293Q6850 210 6964 210Q7110 210 7164 328Q7192 392 7192 497V1090H7481V0H7204ZM8269 879Q8124 879 8070 756Q8042 691 8042 590V0H7758V1088H8033V929Q8088 1013 8137 1050Q8225 1116 8360 1116Q8529 1116 8636.5 1027.5Q8744 939 8744 734V0H8452V663Q8452 749 8429 795Q8387 879 8269 879ZM9300 1090V0H9011V1090ZM9300 1483V1220H9011V1483ZM10075 203V-10L9940 -15Q9738 -22 9664 55Q9616 104 9616 206V877H9464V1080H9616V1384H9898V1080H10075V877H9898V301Q9898 234 9915.0 217.5Q9932 201 10019 201Q10032 201 10046.5 201.5Q10061 202 10075 203ZM10551 1090V0H10262V1090ZM10551 1483V1220H10262V1483ZM11760 320Q11749 223 11659 123Q11519 -36 11267 -36Q11059 -36 10900.0 98.0Q10741 232 10741 534Q10741 817 10884.5 968.0Q11028 1119 11257 1119Q11393 1119 11502.0 1068.0Q11611 1017 11682 907Q11746 810 11765 682Q11776 607 11774 466H11028Q11034 302 11131 236Q11190 195 11273 195Q11361 195 11416 245Q11446 272 11469 320ZM11478 654Q11471 767 11409.5 825.5Q11348 884 11257 884Q11158 884 11103.5 822.0Q11049 760 11035 654ZM12717 1040Q12845 958 12864 758H12579Q12573 813 12548 845Q12501 903 12388 903Q12295 903 12255.5 874.0Q12216 845 12216 806Q12216 757 12258 735Q12300 712 12555 656Q12725 616 12810 535Q12894 453 12894 330Q12894 168 12773.5 65.5Q12653 -37 12401 -37Q12144 -37 12021.5 71.5Q11899 180 11899 348H12188Q12197 272 12227 240Q12280 183 12423 183Q12507 183 12556.5 208.0Q12606 233 12606 283Q12606 331 12566 356Q12526 381 12269 442Q12084 488 12008 557Q11932 625 11932 753Q11932 904 12050.5 1012.5Q12169 1121 12384 1121Q12588 1121 12717 1040Z"/></g></svg>
