<svg xmlns="http://www.w3.org/2000/svg" width="106" height="22" viewBox="0 0 106 22"><defs><linearGradient id="crisp-grad" gradientUnits="userSpaceOnUse" x1="0" y1="0" x2="12284" y2="0"><stop offset="0%" stop-color="#0A78E8"/><stop offset="50%" stop-color="#0071E3"/><stop offset="100%" stop-color="#006ADD"/></linearGradient></defs><g fill="url(#crisp-grad)" transform="translate(6, 15) scale(0.007812, -0.007812)"><path d="M1196 110Q1031 -41 774 -41Q456 -41 274 163Q92 368 92 725Q92 1111 299 1320Q479 1502 757 1502Q1129 1502 1301 1258Q1396 1121 1403 983H1095Q1065 1089 1018 1143Q934 1239 769 1239Q601 1239 504.0 1103.5Q407 968 407 720Q407 472 509.5 348.5Q612 225 770 225Q932 225 1017 331Q1064 388 1095 502H1400Q1360 261 1196 110ZM2521 952Q2659 779 2659 543Q2659 303 2521.0 132.5Q2383 -38 2102 -38Q1821 -38 1683.0 132.5Q1545 303 1545 543Q1545 779 1683.0 952.0Q1821 1125 2102 1125Q2383 1125 2521 952ZM2101 884Q1976 884 1908.5 795.5Q1841 707 1841 543Q1841 379 1908.5 290.0Q1976 201 2101 201Q2226 201 2293.0 290.0Q2360 379 2360 543Q2360 707 2293.0 795.5Q2226 884 2101 884ZM3376 879Q3231 879 3177 756Q3149 691 3149 590V0H2865V1088H3140V929Q3195 1013 3244 1050Q3332 1116 3467 1116Q3636 1116 3743.5 1027.5Q3851 939 3851 734V0H3559V663Q3559 749 3536 795Q3494 879 3376 879ZM4613 203V-10L4478 -15Q4276 -22 4202 55Q4154 104 4154 206V877H4002V1080H4154V1384H4436V1080H4613V877H4436V301Q4436 234 4453.0 217.5Q4470 201 4557 201Q4570 201 4584.5 201.5Q4599 202 4613 203ZM5344 827Q5172 827 5113 715Q5080 652 5080 521V0H4793V1090H5065V900Q5131 1009 5180 1049Q5260 1116 5388 1116Q5396 1116 5401.5 1115.5Q5407 1115 5426 1114V822Q5399 825 5378.0 826.0Q5357 827 5344 827ZM5886 1090V0H5597V1090ZM5886 1483V1220H5597V1483ZM6754 -29Q6619 -29 6537 25Q6488 57 6431 137V0H6152V1472H6436V948Q6490 1024 6555 1064Q6632 1114 6751 1114Q6966 1114 7087.5 959.0Q7209 804 7209 559Q7209 305 7089.0 138.0Q6969 -29 6754 -29ZM6910 529Q6910 645 6880 721Q6823 865 6670 865Q6515 865 6457 724Q6427 649 6427 530Q6427 390 6489.0 298.0Q6551 206 6678 206Q6788 206 6849.0 295.0Q6910 384 6910 529ZM8112 154Q8108 149 8092.0 124.0Q8076 99 8054 80Q7987 20 7924.5 -2.0Q7862 -24 7778 -24Q7536 -24 7452 150Q7405 246 7405 433V1090H7697V433Q7697 340 7719 293Q7758 210 7872 210Q8018 210 8072 328Q8100 392 8100 497V1090H8389V0H8112ZM9163 203V-10L9028 -15Q8826 -22 8752 55Q8704 104 8704 206V877H8552V1080H8704V1384H8986V1080H9163V877H8986V301Q8986 234 9003.0 217.5Q9020 201 9107 201Q9120 201 9134.5 201.5Q9149 202 9163 203ZM9639 1090V0H9350V1090ZM9639 1483V1220H9350V1483ZM10428 879Q10283 879 10229 756Q10201 691 10201 590V0H9917V1088H10192V929Q10247 1013 10296 1050Q10384 1116 10519 1116Q10688 1116 10795.5 1027.5Q10903 939 10903 734V0H10611V663Q10611 749 10588 795Q10546 879 10428 879ZM11474 -191Q11520 -230 11629 -230Q11783 -230 11835 -127Q11869 -61 11869 95V165Q11828 95 11781 60Q11696 -5 11560 -5Q11350 -5 11224.5 142.5Q11099 290 11099 542Q11099 785 11220.0 950.5Q11341 1116 11563 1116Q11645 1116 11706 1091Q11810 1048 11874 933V1090H12151V56Q12151 -155 12080 -262Q11958 -446 11612 -446Q11403 -446 11271.0 -364.0Q11139 -282 11125 -119H11435Q11447 -169 11474 -191ZM11426 372Q11484 234 11634 234Q11734 234 11803.0 309.5Q11872 385 11872 550Q11872 705 11806.5 786.0Q11741 867 11631 867Q11481 867 11424 726Q11394 651 11394 541Q11394 446 11426 372Z"/></g></svg>
