<svg xmlns="http://www.w3.org/2000/svg" width="72" height="22" viewBox="0 0 72 22"><defs><linearGradient id="crisp-grad" gradientUnits="userSpaceOnUse" x1="0" y1="0" x2="7967" y2="0"><stop offset="0%" stop-color="#0A78E8"/><stop offset="50%" stop-color="#0071E3"/><stop offset="100%" stop-color="#006ADD"/></linearGradient></defs><g fill="url(#crisp-grad)" transform="translate(6, 15) scale(0.007812, -0.007812)"><path d="M791 0H156V1474H791Q928 1472 1019 1442Q1174 1391 1270 1255Q1347 1145 1375.0 1017.0Q1403 889 1403 773Q1403 479 1285 275Q1125 0 791 0ZM1020 1098Q949 1218 739 1218H455V256H739Q957 256 1043 471Q1090 589 1090 752Q1090 977 1020 1098ZM2521 952Q2659 779 2659 543Q2659 303 2521.0 132.5Q2383 -38 2102 -38Q1821 -38 1683.0 132.5Q1545 303 1545 543Q1545 779 1683.0 952.0Q1821 1125 2102 1125Q2383 1125 2521 952ZM2101 884Q1976 884 1908.5 795.5Q1841 707 1841 543Q1841 379 1908.5 290.0Q1976 201 2101 201Q2226 201 2293.0 290.0Q2360 379 2360 543Q2360 707 2293.0 795.5Q2226 884 2101 884ZM2756 1090H3076L3303 286L3535 1090H3841L3448 0H3147ZM4935 320Q4924 223 4834 123Q4694 -36 4442 -36Q4234 -36 4075.0 98.0Q3916 232 3916 534Q3916 817 4059.5 968.0Q4203 1119 4432 1119Q4568 1119 4677.0 1068.0Q4786 1017 4857 907Q4921 810 4940 682Q4951 607 4949 466H4203Q4209 302 4306 236Q4365 195 4448 195Q4536 195 4591 245Q4621 272 4644 320ZM4653 654Q4646 767 4584.5 825.5Q4523 884 4432 884Q4333 884 4278.5 822.0Q4224 760 4210 654ZM5640 203V-10L5505 -15Q5303 -22 5229 55Q5181 104 5181 206V877H5029V1080H5181V1384H5463V1080H5640V877H5463V301Q5463 234 5480.0 217.5Q5497 201 5584 201Q5597 201 5611.5 201.5Q5626 202 5640 203ZM5864 972Q5977 1116 6252 1116Q6431 1116 6570 1045Q6709 974 6709 777V277Q6709 225 6711 151Q6714 95 6728.0 75.0Q6742 55 6770 42V0H6460Q6447 33 6442.0 62.0Q6437 91 6434 128Q6375 64 6298 19Q6206 -34 6090 -34Q5942 -34 5845.5 50.5Q5749 135 5749 290Q5749 491 5904 581Q5989 630 6154 651L6251 663Q6330 673 6364 688Q6425 714 6425 769Q6425 836 6378.5 861.5Q6332 887 6242 887Q6141 887 6099 837Q6069 800 6059 737H5784Q5793 880 5864 972ZM6076 206Q6116 173 6174 173Q6266 173 6343.5 227.0Q6421 281 6424 424V530Q6397 513 6369.5 502.5Q6342 492 6294 483L6230 471Q6140 455 6101 432Q6035 393 6035 311Q6035 238 6076 206ZM7255 1090V0H6966V1090ZM7255 1483V1220H6966V1483ZM7537 1474H7822V0H7537Z"/></g></svg>
