<svg xmlns="http://www.w3.org/2000/svg" width="101" height="22" viewBox="0 0 101 22"><defs><linearGradient id="crisp-grad" gradientUnits="userSpaceOnUse" x1="0" y1="0" x2="11608" y2="0"><stop offset="0%" stop-color="#0A78E8"/><stop offset="50%" stop-color="#0071E3"/><stop offset="100%" stop-color="#006ADD"/></linearGradient></defs><g fill="url(#crisp-grad)" transform="translate(6, 15) scale(0.007812, -0.007812)"><path d="M1182 644H466V265H1282V0H165V1474H1246V1213H466V900H1182ZM2111 790Q2075 869 1970 869Q1848 869 1806 790Q1783 745 1783 656V0H1494V1088H1771V929Q1824 1014 1871 1050Q1954 1114 2086 1114Q2211 1114 2288 1059Q2350 1008 2382 928Q2438 1024 2521 1069Q2609 1114 2717 1114Q2789 1114 2859.0 1086.0Q2929 1058 2986 988Q3032 931 3048 848Q3058 793 3058 687L3056 0H2764V694Q2764 756 2744 796Q2706 872 2604 872Q2486 872 2441 774Q2418 722 2418 649V0H2131V649Q2131 746 2111 790ZM4233 973Q4365 832 4365 559Q4365 271 4235.5 120.0Q4106 -31 3902 -31Q3772 -31 3686 34Q3639 70 3594 139V-429H3312V1090H3585V929Q3631 1000 3683 1041Q3778 1114 3909 1114Q4100 1114 4233 973ZM4071 545Q4071 671 4013.5 768.0Q3956 865 3827 865Q3672 865 3614 718Q3584 640 3584 520Q3584 330 3685 253Q3745 208 3827 208Q3946 208 4008.5 300.0Q4071 392 4071 545ZM5480 952Q5618 779 5618 543Q5618 303 5480.0 132.5Q5342 -38 5061 -38Q4780 -38 4642.0 132.5Q4504 303 4504 543Q4504 779 4642.0 952.0Q4780 1125 5061 1125Q5342 1125 5480 952ZM5060 884Q4935 884 4867.5 795.5Q4800 707 4800 543Q4800 379 4867.5 290.0Q4935 201 5060 201Q5185 201 5252.0 290.0Q5319 379 5319 543Q5319 707 5252.0 795.5Q5185 884 5060 884ZM6649 0 6478 794 6305 0H6009L5703 1090H6009L6179 308L6336 1090H6625L6791 305L6961 1090H7258L6942 0ZM8348 320Q8337 223 8247 123Q8107 -36 7855 -36Q7647 -36 7488.0 98.0Q7329 232 7329 534Q7329 817 7472.5 968.0Q7616 1119 7845 1119Q7981 1119 8090.0 1068.0Q8199 1017 8270 907Q8334 810 8353 682Q8364 607 8362 466H7616Q7622 302 7719 236Q7778 195 7861 195Q7949 195 8004 245Q8034 272 8057 320ZM8066 654Q8059 767 7997.5 825.5Q7936 884 7845 884Q7746 884 7691.5 822.0Q7637 760 7623 654ZM9102 827Q8930 827 8871 715Q8838 652 8838 521V0H8551V1090H8823V900Q8889 1009 8938 1049Q9018 1116 9146 1116Q9154 1116 9159.5 1115.5Q9165 1115 9184 1114V822Q9157 825 9136.0 826.0Q9115 827 9102 827ZM10284 320Q10273 223 10183 123Q10043 -36 9791 -36Q9583 -36 9424.0 98.0Q9265 232 9265 534Q9265 817 9408.5 968.0Q9552 1119 9781 1119Q9917 1119 10026.0 1068.0Q10135 1017 10206 907Q10270 810 10289 682Q10300 607 10298 466H9552Q9558 302 9655 236Q9714 195 9797 195Q9885 195 9940 245Q9970 272 9993 320ZM10002 654Q9995 767 9933.5 825.5Q9872 884 9781 884Q9682 884 9627.5 822.0Q9573 760 9559 654ZM11482 1472V0H11205V151Q11144 54 11066.0 10.0Q10988 -34 10872 -34Q10681 -34 10550.5 120.5Q10420 275 10420 517Q10420 796 10548.5 956.0Q10677 1116 10892 1116Q10991 1116 11068.0 1072.5Q11145 1029 11193 952V1472ZM10714 538Q10714 387 10774 297Q10833 206 10954 206Q11075 206 11138.0 296.0Q11201 386 11201 529Q11201 729 11100 815Q11038 867 10956 867Q10831 867 10772.5 772.5Q10714 678 10714 538Z"/></g></svg>
