<svg xmlns="http://www.w3.org/2000/svg" width="235" height="22" viewBox="0 0 235 22"><defs><linearGradient id="crisp-grad" gradientUnits="userSpaceOnUse" x1="0" y1="0" x2="28793" y2="0"><stop offset="0%" stop-color="#0A78E8"/><stop offset="50%" stop-color="#0071E3"/><stop offset="100%" stop-color="#006ADD"/></linearGradient></defs><g fill="url(#crisp-grad)" transform="translate(6, 15) scale(0.007812, -0.007812)"><path d="M1201 1213H462V874H1109V618H462V0H156V1472H1201ZM1932 827Q1760 827 1701 715Q1668 652 1668 521V0H1381V1090H1653V900Q1719 1009 1768 1049Q1848 1116 1976 1116Q1984 1116 1989.5 1115.5Q1995 1115 2014 1114V822Q1987 825 1966.0 826.0Q1945 827 1932 827ZM2222 972Q2335 1116 2610 1116Q2789 1116 2928 1045Q3067 974 3067 777V277Q3067 225 3069 151Q3072 95 3086.0 75.0Q3100 55 3128 42V0H2818Q2805 33 2800.0 62.0Q2795 91 2792 128Q2733 64 2656 19Q2564 -34 2448 -34Q2300 -34 2203.5 50.5Q2107 135 2107 290Q2107 491 2262 581Q2347 630 2512 651L2609 663Q2688 673 2722 688Q2783 714 2783 769Q2783 836 2736.5 861.5Q2690 887 2600 887Q2499 887 2457 837Q2427 800 2417 737H2142Q2151 880 2222 972ZM2434 206Q2474 173 2532 173Q2624 173 2701.5 227.0Q2779 281 2782 424V530Q2755 513 2727.5 502.5Q2700 492 2652 483L2588 471Q2498 455 2459 432Q2393 393 2393 311Q2393 238 2434 206ZM3932 790Q3896 869 3791 869Q3669 869 3627 790Q3604 745 3604 656V0H3315V1088H3592V929Q3645 1014 3692 1050Q3775 1114 3907 1114Q4032 1114 4109 1059Q4171 1008 4203 928Q4259 1024 4342 1069Q4430 1114 4538 1114Q4610 1114 4680.0 1086.0Q4750 1058 4807 988Q4853 931 4869 848Q4879 793 4879 687L4877 0H4585V694Q4585 756 4565 796Q4527 872 4425 872Q4307 872 4262 774Q4239 722 4239 649V0H3952V649Q3952 746 3932 790ZM6074 320Q6063 223 5973 123Q5833 -36 5581 -36Q5373 -36 5214.0 98.0Q5055 232 5055 534Q5055 817 5198.5 968.0Q5342 1119 5571 1119Q5707 1119 5816.0 1068.0Q5925 1017 5996 907Q6060 810 6079 682Q6090 607 6088 466H5342Q5348 302 5445 236Q5504 195 5587 195Q5675 195 5730 245Q5760 272 5783 320ZM5792 654Q5785 767 5723.5 825.5Q5662 884 5571 884Q5472 884 5417.5 822.0Q5363 760 5349 654ZM7107 0 6936 794 6763 0H6467L6161 1090H6467L6637 308L6794 1090H7083L7249 305L7419 1090H7716L7400 0ZM8782 952Q8920 779 8920 543Q8920 303 8782.0 132.5Q8644 -38 8363 -38Q8082 -38 7944.0 132.5Q7806 303 7806 543Q7806 779 7944.0 952.0Q8082 1125 8363 1125Q8644 1125 8782 952ZM8362 884Q8237 884 8169.5 795.5Q8102 707 8102 543Q8102 379 8169.5 290.0Q8237 201 8362 201Q8487 201 8554.0 290.0Q8621 379 8621 543Q8621 707 8554.0 795.5Q8487 884 8362 884ZM9672 827Q9500 827 9441 715Q9408 652 9408 521V0H9121V1090H9393V900Q9459 1009 9508 1049Q9588 1116 9716 1116Q9724 1116 9729.5 1115.5Q9735 1115 9754 1114V822Q9727 825 9706.0 826.0Q9685 827 9672 827ZM10921 0H10577L10316 466L10198 343V0H9918V1469H10198V675L10553 1085H10906L10525 668ZM11811 1040Q11939 958 11958 758H11673Q11667 813 11642 845Q11595 903 11482 903Q11389 903 11349.5 874.0Q11310 845 11310 806Q11310 757 11352 735Q11394 712 11649 656Q11819 616 11904 535Q11988 453 11988 330Q11988 168 11867.5 65.5Q11747 -37 11495 -37Q11238 -37 11115.5 71.5Q10993 180 10993 348H11282Q11291 272 11321 240Q11374 183 11517 183Q11601 183 11650.5 208.0Q11700 233 11700 283Q11700 331 11660 356Q11620 381 11363 442Q11178 488 11102 557Q11026 625 11026 753Q11026 904 11144.5 1012.5Q11263 1121 11478 1121Q11682 1121 11811 1040ZM13222 -36Q12998 -36 12872.0 96.0Q12746 228 12746 389Q12746 522 12812.0 617.0Q12878 712 13028 805L13059 824Q12995 896 12960.0 971.0Q12925 1046 12925 1127Q12925 1288 13033.0 1378.5Q13141 1469 13313 1469Q13470 1469 13572.5 1376.5Q13675 1284 13675 1140Q13675 1010 13613.5 929.0Q13552 848 13433 779L13642 521Q13678 573 13697.5 634.0Q13717 695 13718 763H13971Q13965 629 13907 492Q13875 415 13803 322L14071 0H13725L13623 125Q13549 56 13485 23Q13371 -36 13222 -36ZM13206 642Q13099 571 13064.5 517.0Q13030 463 13030 398Q13030 325 13089.5 264.0Q13149 203 13242 203Q13312 203 13374.5 235.5Q13437 268 13476 308ZM13187 1137Q13187 1097 13215 1053Q13233 1024 13293 950Q13353 992 13379 1021Q13429 1075 13429 1138Q13429 1184 13399.0 1220.0Q13369 1256 13308 1256Q13270 1256 13237 1235Q13187 1204 13187 1137ZM15121 0H14834V1474H15282L15550 315L15816 1474H16259V0H15972V997Q15972 1040 15973.0 1117.5Q15974 1195 15974 1237L15695 0H15396L15119 1237Q15119 1195 15120.0 1117.5Q15121 1040 15121 997ZM17455 320Q17444 223 17354 123Q17214 -36 16962 -36Q16754 -36 16595.0 98.0Q16436 232 16436 534Q16436 817 16579.5 968.0Q16723 1119 16952 1119Q17088 1119 17197.0 1068.0Q17306 1017 17377 907Q17441 810 17460 682Q17471 607 17469 466H16723Q16729 302 16826 236Q16885 195 16968 195Q17056 195 17111 245Q17141 272 17164 320ZM17173 654Q17166 767 17104.5 825.5Q17043 884 16952 884Q16853 884 16798.5 822.0Q16744 760 16730 654ZM18174 879Q18029 879 17975 756Q17947 691 17947 590V0H17663V1088H17938V929Q17993 1013 18042 1050Q18130 1116 18265 1116Q18434 1116 18541.5 1027.5Q18649 939 18649 734V0H18357V663Q18357 749 18334 795Q18292 879 18174 879ZM19411 203V-10L19276 -15Q19074 -22 19000 55Q18952 104 18952 206V877H18800V1080H18952V1384H19234V1080H19411V877H19234V301Q19234 234 19251.0 217.5Q19268 201 19355 201Q19368 201 19382.5 201.5Q19397 202 19411 203ZM19635 972Q19748 1116 20023 1116Q20202 1116 20341 1045Q20480 974 20480 777V277Q20480 225 20482 151Q20485 95 20499.0 75.0Q20513 55 20541 42V0H20231Q20218 33 20213.0 62.0Q20208 91 20205 128Q20146 64 20069 19Q19977 -34 19861 -34Q19713 -34 19616.5 50.5Q19520 135 19520 290Q19520 491 19675 581Q19760 630 19925 651L20022 663Q20101 673 20135 688Q20196 714 20196 769Q20196 836 20149.5 861.5Q20103 887 20013 887Q19912 887 19870 837Q19840 800 19830 737H19555Q19564 880 19635 972ZM19847 206Q19887 173 19945 173Q20037 173 20114.5 227.0Q20192 281 20195 424V530Q20168 513 20140.5 502.5Q20113 492 20065 483L20001 471Q19911 455 19872 432Q19806 393 19806 311Q19806 238 19847 206ZM20739 1474H21024V0H20739ZM22176 0H21889V1474H22337L22605 315L22871 1474H23314V0H23027V997Q23027 1040 23028.0 1117.5Q23029 1195 23029 1237L22750 0H22451L22174 1237Q22174 1195 22175.0 1117.5Q22176 1040 22176 997ZM24486 952Q24624 779 24624 543Q24624 303 24486.0 132.5Q24348 -38 24067 -38Q23786 -38 23648.0 132.5Q23510 303 23510 543Q23510 779 23648.0 952.0Q23786 1125 24067 1125Q24348 1125 24486 952ZM24066 884Q23941 884 23873.5 795.5Q23806 707 23806 543Q23806 379 23873.5 290.0Q23941 201 24066 201Q24191 201 24258.0 290.0Q24325 379 24325 543Q24325 707 24258.0 795.5Q24191 884 24066 884ZM25820 1472V0H25543V151Q25482 54 25404.0 10.0Q25326 -34 25210 -34Q25019 -34 24888.5 120.5Q24758 275 24758 517Q24758 796 24886.5 956.0Q25015 1116 25230 1116Q25329 1116 25406.0 1072.5Q25483 1029 25531 952V1472ZM25052 538Q25052 387 25112 297Q25171 206 25292 206Q25413 206 25476.0 296.0Q25539 386 25539 529Q25539 729 25438 815Q25376 867 25294 867Q25169 867 25110.5 772.5Q25052 678 25052 538ZM27012 320Q27001 223 26911 123Q26771 -36 26519 -36Q26311 -36 26152.0 98.0Q25993 232 25993 534Q25993 817 26136.5 968.0Q26280 1119 26509 1119Q26645 1119 26754.0 1068.0Q26863 1017 26934 907Q26998 810 27017 682Q27028 607 27026 466H26280Q26286 302 26383 236Q26442 195 26525 195Q26613 195 26668 245Q26698 272 26721 320ZM26730 654Q26723 767 26661.5 825.5Q26600 884 26509 884Q26410 884 26355.5 822.0Q26301 760 26287 654ZM27224 1474H27509V0H27224ZM28538 1040Q28666 958 28685 758H28400Q28394 813 28369 845Q28322 903 28209 903Q28116 903 28076.5 874.0Q28037 845 28037 806Q28037 757 28079 735Q28121 712 28376 656Q28546 616 28631 535Q28715 453 28715 330Q28715 168 28594.5 65.5Q28474 -37 28222 -37Q27965 -37 27842.5 71.5Q27720 180 27720 348H28009Q28018 272 28048 240Q28101 183 28244 183Q28328 183 28377.5 208.0Q28427 233 28427 283Q28427 331 28387 356Q28347 381 28090 442Q27905 488 27829 557Q27753 625 27753 753Q27753 904 27871.5 1012.5Q27990 1121 28205 1121Q28409 1121 28538 1040Z"/></g></svg>
