<svg xmlns="http://www.w3.org/2000/svg" width="70" height="22" viewBox="0 0 70 22"><defs><linearGradient id="crisp-grad" gradientUnits="userSpaceOnUse" x1="0" y1="0" x2="7739" y2="0"><stop offset="0%" stop-color="#0A78E8"/><stop offset="50%" stop-color="#0071E3"/><stop offset="100%" stop-color="#006ADD"/></linearGradient></defs><g fill="url(#crisp-grad)" transform="translate(6, 15) scale(0.007812, -0.007812)"><path d="M1060 36Q938 -39 760 -39Q467 -39 280 164Q85 368 85 722Q85 1080 282 1296Q479 1512 803 1512Q1084 1512 1254.5 1369.5Q1425 1227 1450 1014H1147Q1112 1165 976 1225Q900 1258 807 1258Q629 1258 514.5 1123.5Q400 989 400 719Q400 447 524.0 334.0Q648 221 806 221Q961 221 1060.0 310.5Q1159 400 1182 545H841V791H1455V0H1251L1220 184Q1131 79 1060 36ZM2274 827Q2102 827 2043 715Q2010 652 2010 521V0H1723V1090H1995V900Q2061 1009 2110 1049Q2190 1116 2318 1116Q2326 1116 2331.5 1115.5Q2337 1115 2356 1114V822Q2329 825 2308.0 826.0Q2287 827 2274 827ZM2564 972Q2677 1116 2952 1116Q3131 1116 3270 1045Q3409 974 3409 777V277Q3409 225 3411 151Q3414 95 3428.0 75.0Q3442 55 3470 42V0H3160Q3147 33 3142.0 62.0Q3137 91 3134 128Q3075 64 2998 19Q2906 -34 2790 -34Q2642 -34 2545.5 50.5Q2449 135 2449 290Q2449 491 2604 581Q2689 630 2854 651L2951 663Q3030 673 3064 688Q3125 714 3125 769Q3125 836 3078.5 861.5Q3032 887 2942 887Q2841 887 2799 837Q2769 800 2759 737H2484Q2493 880 2564 972ZM2776 206Q2816 173 2874 173Q2966 173 3043.5 227.0Q3121 281 3124 424V530Q3097 513 3069.5 502.5Q3042 492 2994 483L2930 471Q2840 455 2801 432Q2735 393 2735 311Q2735 238 2776 206ZM4175 879Q4030 879 3976 756Q3948 691 3948 590V0H3664V1088H3939V929Q3994 1013 4043 1050Q4131 1116 4266 1116Q4435 1116 4542.5 1027.5Q4650 939 4650 734V0H4358V663Q4358 749 4335 795Q4293 879 4175 879ZM5822 952Q5960 779 5960 543Q5960 303 5822.0 132.5Q5684 -38 5403 -38Q5122 -38 4984.0 132.5Q4846 303 4846 543Q4846 779 4984.0 952.0Q5122 1125 5403 1125Q5684 1125 5822 952ZM5402 884Q5277 884 5209.5 795.5Q5142 707 5142 543Q5142 379 5209.5 290.0Q5277 201 5402 201Q5527 201 5594.0 290.0Q5661 379 5661 543Q5661 707 5594.0 795.5Q5527 884 5402 884ZM6170 1474H6455V0H6170ZM6774 972Q6887 1116 7162 1116Q7341 1116 7480 1045Q7619 974 7619 777V277Q7619 225 7621 151Q7624 95 7638.0 75.0Q7652 55 7680 42V0H7370Q7357 33 7352.0 62.0Q7347 91 7344 128Q7285 64 7208 19Q7116 -34 7000 -34Q6852 -34 6755.5 50.5Q6659 135 6659 290Q6659 491 6814 581Q6899 630 7064 651L7161 663Q7240 673 7274 688Q7335 714 7335 769Q7335 836 7288.5 861.5Q7242 887 7152 887Q7051 887 7009 837Q6979 800 6969 737H6694Q6703 880 6774 972ZM6986 206Q7026 173 7084 173Q7176 173 7253.5 227.0Q7331 281 7334 424V530Q7307 513 7279.5 502.5Q7252 492 7204 483L7140 471Q7050 455 7011 432Q6945 393 6945 311Q6945 238 6986 206Z"/></g></svg>
