<svg xmlns="http://www.w3.org/2000/svg" width="80" height="22" viewBox="0 0 80 22"><defs><linearGradient id="crisp-grad" gradientUnits="userSpaceOnUse" x1="0" y1="0" x2="8988" y2="0"><stop offset="0%" stop-color="#0A78E8"/><stop offset="50%" stop-color="#0071E3"/><stop offset="100%" stop-color="#006ADD"/></linearGradient></defs><g fill="url(#crisp-grad)" transform="translate(6, 15) scale(0.007812, -0.007812)"><path d="M132 1474H438V0H132ZM1314 790Q1278 869 1173 869Q1051 869 1009 790Q986 745 986 656V0H697V1088H974V929Q1027 1014 1074 1050Q1157 1114 1289 1114Q1414 1114 1491 1059Q1553 1008 1585 928Q1641 1024 1724 1069Q1812 1114 1920 1114Q1992 1114 2062.0 1086.0Q2132 1058 2189 988Q2235 931 2251 848Q2261 793 2261 687L2259 0H1967V694Q1967 756 1947 796Q1909 872 1807 872Q1689 872 1644 774Q1621 722 1621 649V0H1334V649Q1334 746 1314 790ZM3436 973Q3568 832 3568 559Q3568 271 3438.5 120.0Q3309 -31 3105 -31Q2975 -31 2889 34Q2842 70 2797 139V-429H2515V1090H2788V929Q2834 1000 2886 1041Q2981 1114 3112 1114Q3303 1114 3436 973ZM3274 545Q3274 671 3216.5 768.0Q3159 865 3030 865Q2875 865 2817 718Q2787 640 2787 520Q2787 330 2888 253Q2948 208 3030 208Q3149 208 3211.5 300.0Q3274 392 3274 545ZM4683 952Q4821 779 4821 543Q4821 303 4683.0 132.5Q4545 -38 4264 -38Q3983 -38 3845.0 132.5Q3707 303 3707 543Q3707 779 3845.0 952.0Q3983 1125 4264 1125Q4545 1125 4683 952ZM4263 884Q4138 884 4070.5 795.5Q4003 707 4003 543Q4003 379 4070.5 290.0Q4138 201 4263 201Q4388 201 4455.0 290.0Q4522 379 4522 543Q4522 707 4455.0 795.5Q4388 884 4263 884ZM5573 827Q5401 827 5342 715Q5309 652 5309 521V0H5022V1090H5294V900Q5360 1009 5409 1049Q5489 1116 5617 1116Q5625 1116 5630.5 1115.5Q5636 1115 5655 1114V822Q5628 825 5607.0 826.0Q5586 827 5573 827ZM6321 203V-10L6186 -15Q5984 -22 5910 55Q5862 104 5862 206V877H5710V1080H5862V1384H6144V1080H6321V877H6144V301Q6144 234 6161.0 217.5Q6178 201 6265 201Q6278 201 6292.5 201.5Q6307 202 6321 203ZM7959 303H7416L7314 0H6992L7518 1474H7866L8388 0H8054ZM7873 557 7689 1137 7499 557ZM8551 1474H8857V0H8551Z"/></g></svg>
