<svg xmlns="http://www.w3.org/2000/svg" width="72" height="22" viewBox="0 0 72 22"><defs><linearGradient id="crisp-grad" gradientUnits="userSpaceOnUse" x1="0" y1="0" x2="7966" y2="0"><stop offset="0%" stop-color="#0A78E8"/><stop offset="50%" stop-color="#0071E3"/><stop offset="100%" stop-color="#006ADD"/></linearGradient></defs><g fill="url(#crisp-grad)" transform="translate(6, 15) scale(0.007812, -0.007812)"><path d="M132 1474H438V0H132ZM1215 879Q1070 879 1016 756Q988 691 988 590V0H704V1088H979V929Q1034 1013 1083 1050Q1171 1116 1306 1116Q1475 1116 1582.5 1027.5Q1690 939 1690 734V0H1398V663Q1398 749 1375 795Q1333 879 1215 879ZM2704 1040Q2832 958 2851 758H2566Q2560 813 2535 845Q2488 903 2375 903Q2282 903 2242.5 874.0Q2203 845 2203 806Q2203 757 2245 735Q2287 712 2542 656Q2712 616 2797 535Q2881 453 2881 330Q2881 168 2760.5 65.5Q2640 -37 2388 -37Q2131 -37 2008.5 71.5Q1886 180 1886 348H2175Q2184 272 2214 240Q2267 183 2410 183Q2494 183 2543.5 208.0Q2593 233 2593 283Q2593 331 2553 356Q2513 381 2256 442Q2071 488 1995 557Q1919 625 1919 753Q1919 904 2037.5 1012.5Q2156 1121 2371 1121Q2575 1121 2704 1040ZM4005 973Q4137 832 4137 559Q4137 271 4007.5 120.0Q3878 -31 3674 -31Q3544 -31 3458 34Q3411 70 3366 139V-429H3084V1090H3357V929Q3403 1000 3455 1041Q3550 1114 3681 1114Q3872 1114 4005 973ZM3843 545Q3843 671 3785.5 768.0Q3728 865 3599 865Q3444 865 3386 718Q3356 640 3356 520Q3356 330 3457 253Q3517 208 3599 208Q3718 208 3780.5 300.0Q3843 392 3843 545ZM4636 1090V0H4347V1090ZM4636 1483V1220H4347V1483ZM5460 827Q5288 827 5229 715Q5196 652 5196 521V0H4909V1090H5181V900Q5247 1009 5296 1049Q5376 1116 5504 1116Q5512 1116 5517.5 1115.5Q5523 1115 5542 1114V822Q5515 825 5494.0 826.0Q5473 827 5460 827ZM6642 320Q6631 223 6541 123Q6401 -36 6149 -36Q5941 -36 5782.0 98.0Q5623 232 5623 534Q5623 817 5766.5 968.0Q5910 1119 6139 1119Q6275 1119 6384.0 1068.0Q6493 1017 6564 907Q6628 810 6647 682Q6658 607 6656 466H5910Q5916 302 6013 236Q6072 195 6155 195Q6243 195 6298 245Q6328 272 6351 320ZM6360 654Q6353 767 6291.5 825.5Q6230 884 6139 884Q6040 884 5985.5 822.0Q5931 760 5917 654ZM7840 1472V0H7563V151Q7502 54 7424.0 10.0Q7346 -34 7230 -34Q7039 -34 6908.5 120.5Q6778 275 6778 517Q6778 796 6906.5 956.0Q7035 1116 7250 1116Q7349 1116 7426.0 1072.5Q7503 1029 7551 952V1472ZM7072 538Q7072 387 7132 297Q7191 206 7312 206Q7433 206 7496.0 296.0Q7559 386 7559 529Q7559 729 7458 815Q7396 867 7314 867Q7189 867 7130.5 772.5Q7072 678 7072 538Z"/></g></svg>
