<svg xmlns="http://www.w3.org/2000/svg" width="67" height="22" viewBox="0 0 67 22"><defs><linearGradient id="crisp-grad" gradientUnits="userSpaceOnUse" x1="0" y1="0" x2="7281" y2="0"><stop offset="0%" stop-color="#0A78E8"/><stop offset="50%" stop-color="#0071E3"/><stop offset="100%" stop-color="#006ADD"/></linearGradient></defs><g fill="url(#crisp-grad)" transform="translate(6, 15) scale(0.007812, -0.007812)"><path d="M1462 0H1066L611 644L464 493V0H161V1474H464V867L1033 1474H1431L827 867ZM2160 827Q1988 827 1929 715Q1896 652 1896 521V0H1609V1090H1881V900Q1947 1009 1996 1049Q2076 1116 2204 1116Q2212 1116 2217.5 1115.5Q2223 1115 2242 1114V822Q2215 825 2194.0 826.0Q2173 827 2160 827ZM2450 972Q2563 1116 2838 1116Q3017 1116 3156 1045Q3295 974 3295 777V277Q3295 225 3297 151Q3300 95 3314.0 75.0Q3328 55 3356 42V0H3046Q3033 33 3028.0 62.0Q3023 91 3020 128Q2961 64 2884 19Q2792 -34 2676 -34Q2528 -34 2431.5 50.5Q2335 135 2335 290Q2335 491 2490 581Q2575 630 2740 651L2837 663Q2916 673 2950 688Q3011 714 3011 769Q3011 836 2964.5 861.5Q2918 887 2828 887Q2727 887 2685 837Q2655 800 2645 737H2370Q2379 880 2450 972ZM2662 206Q2702 173 2760 173Q2852 173 2929.5 227.0Q3007 281 3010 424V530Q2983 513 2955.5 502.5Q2928 492 2880 483L2816 471Q2726 455 2687 432Q2621 393 2621 311Q2621 238 2662 206ZM4059 1483V1251Q4035 1254 3978.5 1255.5Q3922 1257 3900.5 1230.5Q3879 1204 3879 1172V1080H4066V879H3879V0H3595V879H3436V1080H3592V1150Q3592 1325 3651 1391Q3713 1489 3950 1489Q3977 1489 3999.0 1487.5Q4021 1486 4059 1483ZM4729 203V-10L4594 -15Q4392 -22 4318 55Q4270 104 4270 206V877H4118V1080H4270V1384H4552V1080H4729V877H4552V301Q4552 234 4569.0 217.5Q4586 201 4673 201Q4686 201 4700.5 201.5Q4715 202 4729 203ZM5423 1483V1251Q5399 1254 5342.5 1255.5Q5286 1257 5264.5 1230.5Q5243 1204 5243 1172V1080H5430V879H5243V0H4959V879H4800V1080H4956V1150Q4956 1325 5015 1391Q5077 1489 5314 1489Q5341 1489 5363.0 1487.5Q5385 1486 5423 1483ZM6293 154Q6289 149 6273.0 124.0Q6257 99 6235 80Q6168 20 6105.5 -2.0Q6043 -24 5959 -24Q5717 -24 5633 150Q5586 246 5586 433V1090H5878V433Q5878 340 5900 293Q5939 210 6053 210Q6199 210 6253 328Q6281 392 6281 497V1090H6570V0H6293ZM6851 1474H7136V0H6851Z"/></g></svg>
