<svg xmlns="http://www.w3.org/2000/svg" width="128" height="22" viewBox="0 0 128 22"><defs><linearGradient id="crisp-grad" gradientUnits="userSpaceOnUse" x1="0" y1="0" x2="15136" y2="0"><stop offset="0%" stop-color="#0A78E8"/><stop offset="50%" stop-color="#0071E3"/><stop offset="100%" stop-color="#006ADD"/></linearGradient></defs><g fill="url(#crisp-grad)" transform="translate(6, 15) scale(0.007812, -0.007812)"><path d="M156 1474H464V265H1194V0H156ZM1425 972Q1538 1116 1813 1116Q1992 1116 2131 1045Q2270 974 2270 777V277Q2270 225 2272 151Q2275 95 2289.0 75.0Q2303 55 2331 42V0H2021Q2008 33 2003.0 62.0Q1998 91 1995 128Q1936 64 1859 19Q1767 -34 1651 -34Q1503 -34 1406.5 50.5Q1310 135 1310 290Q1310 491 1465 581Q1550 630 1715 651L1812 663Q1891 673 1925 688Q1986 714 1986 769Q1986 836 1939.5 861.5Q1893 887 1803 887Q1702 887 1660 837Q1630 800 1620 737H1345Q1354 880 1425 972ZM1637 206Q1677 173 1735 173Q1827 173 1904.5 227.0Q1982 281 1985 424V530Q1958 513 1930.5 502.5Q1903 492 1855 483L1791 471Q1701 455 1662 432Q1596 393 1596 311Q1596 238 1637 206ZM3274 1040Q3402 958 3421 758H3136Q3130 813 3105 845Q3058 903 2945 903Q2852 903 2812.5 874.0Q2773 845 2773 806Q2773 757 2815 735Q2857 712 3112 656Q3282 616 3367 535Q3451 453 3451 330Q3451 168 3330.5 65.5Q3210 -37 2958 -37Q2701 -37 2578.5 71.5Q2456 180 2456 348H2745Q2754 272 2784 240Q2837 183 2980 183Q3064 183 3113.5 208.0Q3163 233 3163 283Q3163 331 3123 356Q3083 381 2826 442Q2641 488 2565 557Q2489 625 2489 753Q2489 904 2607.5 1012.5Q2726 1121 2941 1121Q3145 1121 3274 1040ZM4161 203V-10L4026 -15Q3824 -22 3750 55Q3702 104 3702 206V877H3550V1080H3702V1384H3984V1080H4161V877H3984V301Q3984 234 4001.0 217.5Q4018 201 4105 201Q4118 201 4132.5 201.5Q4147 202 4161 203ZM6370 1474H6683L6268 0H5974L5796 862L5744 1147L5692 862L5514 0H5228L4810 1474H5137L5332 630L5374 395L5417 625L5583 1474H5908L6083 630L6128 395L6173 621ZM7779 320Q7768 223 7678 123Q7538 -36 7286 -36Q7078 -36 6919.0 98.0Q6760 232 6760 534Q6760 817 6903.5 968.0Q7047 1119 7276 1119Q7412 1119 7521.0 1068.0Q7630 1017 7701 907Q7765 810 7784 682Q7795 607 7793 466H7047Q7053 302 7150 236Q7209 195 7292 195Q7380 195 7435 245Q7465 272 7488 320ZM7497 654Q7490 767 7428.5 825.5Q7367 884 7276 884Q7177 884 7122.5 822.0Q7068 760 7054 654ZM8918 320Q8907 223 8817 123Q8677 -36 8425 -36Q8217 -36 8058.0 98.0Q7899 232 7899 534Q7899 817 8042.5 968.0Q8186 1119 8415 1119Q8551 1119 8660.0 1068.0Q8769 1017 8840 907Q8904 810 8923 682Q8934 607 8932 466H8186Q8192 302 8289 236Q8348 195 8431 195Q8519 195 8574 245Q8604 272 8627 320ZM8636 654Q8629 767 8567.5 825.5Q8506 884 8415 884Q8316 884 8261.5 822.0Q8207 760 8193 654ZM10124 0H9780L9519 466L9401 343V0H9121V1469H9401V675L9756 1085H10109L9728 668ZM11125 1090V0H10836V1090ZM11125 1483V1220H10836V1483ZM11914 879Q11769 879 11715 756Q11687 691 11687 590V0H11403V1088H11678V929Q11733 1013 11782 1050Q11870 1116 12005 1116Q12174 1116 12281.5 1027.5Q12389 939 12389 734V0H12097V663Q12097 749 12074 795Q12032 879 11914 879ZM14107 303H13564L13462 0H13140L13666 1474H14014L14536 0H14202ZM14021 557 13837 1137 13647 557ZM14699 1474H15005V0H14699Z"/></g></svg>
