<svg xmlns="http://www.w3.org/2000/svg" width="110" height="22" viewBox="0 0 110 22"><defs><linearGradient id="crisp-grad" gradientUnits="userSpaceOnUse" x1="0" y1="0" x2="12747" y2="0"><stop offset="0%" stop-color="#0A78E8"/><stop offset="50%" stop-color="#0071E3"/><stop offset="100%" stop-color="#006ADD"/></linearGradient></defs><g fill="url(#crisp-grad)" transform="translate(6, 15) scale(0.007812, -0.007812)"><path d="M156 1474H464V265H1194V0H156ZM1425 972Q1538 1116 1813 1116Q1992 1116 2131 1045Q2270 974 2270 777V277Q2270 225 2272 151Q2275 95 2289.0 75.0Q2303 55 2331 42V0H2021Q2008 33 2003.0 62.0Q1998 91 1995 128Q1936 64 1859 19Q1767 -34 1651 -34Q1503 -34 1406.5 50.5Q1310 135 1310 290Q1310 491 1465 581Q1550 630 1715 651L1812 663Q1891 673 1925 688Q1986 714 1986 769Q1986 836 1939.5 861.5Q1893 887 1803 887Q1702 887 1660 837Q1630 800 1620 737H1345Q1354 880 1425 972ZM1637 206Q1677 173 1735 173Q1827 173 1904.5 227.0Q1982 281 1985 424V530Q1958 513 1930.5 502.5Q1903 492 1855 483L1791 471Q1701 455 1662 432Q1596 393 1596 311Q1596 238 1637 206ZM3022 203V-10L2887 -15Q2685 -22 2611 55Q2563 104 2563 206V877H2411V1080H2563V1384H2845V1080H3022V877H2845V301Q2845 234 2862.0 217.5Q2879 201 2966 201Q2979 201 2993.5 201.5Q3008 202 3022 203ZM4138 320Q4127 223 4037 123Q3897 -36 3645 -36Q3437 -36 3278.0 98.0Q3119 232 3119 534Q3119 817 3262.5 968.0Q3406 1119 3635 1119Q3771 1119 3880.0 1068.0Q3989 1017 4060 907Q4124 810 4143 682Q4154 607 4152 466H3406Q3412 302 3509 236Q3568 195 3651 195Q3739 195 3794 245Q3824 272 3847 320ZM3856 654Q3849 767 3787.5 825.5Q3726 884 3635 884Q3536 884 3481.5 822.0Q3427 760 3413 654ZM4857 879Q4712 879 4658 756Q4630 691 4630 590V0H4346V1088H4621V929Q4676 1013 4725 1050Q4813 1116 4948 1116Q5117 1116 5224.5 1027.5Q5332 939 5332 734V0H5040V663Q5040 749 5017 795Q4975 879 4857 879ZM6094 203V-10L5959 -15Q5757 -22 5683 55Q5635 104 5635 206V877H5483V1080H5635V1384H5917V1080H6094V877H5917V301Q5917 234 5934.0 217.5Q5951 201 6038 201Q6051 201 6065.5 201.5Q6080 202 6094 203ZM7404 213Q7513 213 7581 237Q7710 283 7710 408Q7710 481 7646 521Q7582 560 7445 590L7289 625Q7059 677 6971 738Q6822 840 6822 1057Q6822 1255 6966.0 1386.0Q7110 1517 7389 1517Q7622 1517 7786.5 1393.5Q7951 1270 7959 1035H7663Q7655 1168 7547 1224Q7475 1261 7368 1261Q7249 1261 7178.0 1213.0Q7107 1165 7107 1079Q7107 1000 7177 961Q7222 935 7369 900L7623 839Q7790 799 7875 732Q8007 628 8007 431Q8007 229 7852.5 95.5Q7698 -38 7416 -38Q7128 -38 6963.0 93.5Q6798 225 6798 455H7092Q7106 354 7147 304Q7222 213 7404 213ZM9125 973Q9257 832 9257 559Q9257 271 9127.5 120.0Q8998 -31 8794 -31Q8664 -31 8578 34Q8531 70 8486 139V-429H8204V1090H8477V929Q8523 1000 8575 1041Q8670 1114 8801 1114Q8992 1114 9125 973ZM8963 545Q8963 671 8905.5 768.0Q8848 865 8719 865Q8564 865 8506 718Q8476 640 8476 520Q8476 330 8577 253Q8637 208 8719 208Q8838 208 8900.5 300.0Q8963 392 8963 545ZM9504 972Q9617 1116 9892 1116Q10071 1116 10210 1045Q10349 974 10349 777V277Q10349 225 10351 151Q10354 95 10368.0 75.0Q10382 55 10410 42V0H10100Q10087 33 10082.0 62.0Q10077 91 10074 128Q10015 64 9938 19Q9846 -34 9730 -34Q9582 -34 9485.5 50.5Q9389 135 9389 290Q9389 491 9544 581Q9629 630 9794 651L9891 663Q9970 673 10004 688Q10065 714 10065 769Q10065 836 10018.5 861.5Q9972 887 9882 887Q9781 887 9739 837Q9709 800 9699 737H9424Q9433 880 9504 972ZM9716 206Q9756 173 9814 173Q9906 173 9983.5 227.0Q10061 281 10064 424V530Q10037 513 10009.5 502.5Q9982 492 9934 483L9870 471Q9780 455 9741 432Q9675 393 9675 311Q9675 238 9716 206ZM11545 699H11253Q11245 760 11212 809Q11164 875 11063 875Q10919 875 10866 732Q10838 656 10838 530Q10838 410 10866 337Q10917 201 11058 201Q11158 201 11200.0 255.0Q11242 309 11251 395H11542Q11532 265 11448 149Q11314 -38 11051 -38Q10788 -38 10664.0 118.0Q10540 274 10540 523Q10540 804 10677.0 960.0Q10814 1116 11055 1116Q11260 1116 11390.5 1024.0Q11521 932 11545 699ZM12674 320Q12663 223 12573 123Q12433 -36 12181 -36Q11973 -36 11814.0 98.0Q11655 232 11655 534Q11655 817 11798.5 968.0Q11942 1119 12171 1119Q12307 1119 12416.0 1068.0Q12525 1017 12596 907Q12660 810 12679 682Q12690 607 12688 466H11942Q11948 302 12045 236Q12104 195 12187 195Q12275 195 12330 245Q12360 272 12383 320ZM12392 654Q12385 767 12323.5 825.5Q12262 884 12171 884Q12072 884 12017.5 822.0Q11963 760 11949 654Z"/></g></svg>
