<svg xmlns="http://www.w3.org/2000/svg" width="155" height="22" viewBox="0 0 155 22"><defs><linearGradient id="crisp-grad" gradientUnits="userSpaceOnUse" x1="0" y1="0" x2="18584" y2="0"><stop offset="0%" stop-color="#0A78E8"/><stop offset="50%" stop-color="#0071E3"/><stop offset="100%" stop-color="#006ADD"/></linearGradient></defs><g fill="url(#crisp-grad)" transform="translate(6, 15) scale(0.007812, -0.007812)"><path d="M156 1474H464V265H1194V0H156ZM2317 320Q2306 223 2216 123Q2076 -36 1824 -36Q1616 -36 1457.0 98.0Q1298 232 1298 534Q1298 817 1441.5 968.0Q1585 1119 1814 1119Q1950 1119 2059.0 1068.0Q2168 1017 2239 907Q2303 810 2322 682Q2333 607 2331 466H1585Q1591 302 1688 236Q1747 195 1830 195Q1918 195 1973 245Q2003 272 2026 320ZM2035 654Q2028 767 1966.5 825.5Q1905 884 1814 884Q1715 884 1660.5 822.0Q1606 760 1592 654ZM3036 879Q2891 879 2837 756Q2809 691 2809 590V0H2525V1088H2800V929Q2855 1013 2904 1050Q2992 1116 3127 1116Q3296 1116 3403.5 1027.5Q3511 939 3511 734V0H3219V663Q3219 749 3196 795Q3154 879 3036 879ZM4287 879Q4142 879 4088 756Q4060 691 4060 590V0H3776V1088H4051V929Q4106 1013 4155 1050Q4243 1116 4378 1116Q4547 1116 4654.5 1027.5Q4762 939 4762 734V0H4470V663Q4470 749 4447 795Q4405 879 4287 879ZM5468 286 5693 1090H5996L5622 18Q5514 -292 5451.0 -366.5Q5388 -441 5199 -441Q5161 -441 5138.0 -440.5Q5115 -440 5069 -437V-209L5105 -211Q5147 -213 5185.0 -208.0Q5223 -203 5249 -185Q5274 -168 5295.5 -114.0Q5317 -60 5313 -48L4913 1090H5230ZM6130 1474H6403L6353 865H6180ZM7402 1040Q7530 958 7549 758H7264Q7258 813 7233 845Q7186 903 7073 903Q6980 903 6940.5 874.0Q6901 845 6901 806Q6901 757 6943 735Q6985 712 7240 656Q7410 616 7495 535Q7579 453 7579 330Q7579 168 7458.5 65.5Q7338 -37 7086 -37Q6829 -37 6706.5 71.5Q6584 180 6584 348H6873Q6882 272 6912 240Q6965 183 7108 183Q7192 183 7241.5 208.0Q7291 233 7291 283Q7291 331 7251 356Q7211 381 6954 442Q6769 488 6693 557Q6617 625 6617 753Q6617 904 6735.5 1012.5Q6854 1121 7069 1121Q7273 1121 7402 1040ZM9574 0H9266L8664 1047V0H8377V1474H8700L9287 445V1474H9574ZM10771 320Q10760 223 10670 123Q10530 -36 10278 -36Q10070 -36 9911.0 98.0Q9752 232 9752 534Q9752 817 9895.5 968.0Q10039 1119 10268 1119Q10404 1119 10513.0 1068.0Q10622 1017 10693 907Q10757 810 10776 682Q10787 607 10785 466H10039Q10045 302 10142 236Q10201 195 10284 195Q10372 195 10427 245Q10457 272 10480 320ZM10489 654Q10482 767 10420.5 825.5Q10359 884 10268 884Q10169 884 10114.5 822.0Q10060 760 10046 654ZM11804 0 11633 794 11460 0H11164L10858 1090H11164L11334 308L11491 1090H11780L11946 305L12116 1090H12413L12097 0ZM13321 1040Q13449 958 13468 758H13183Q13177 813 13152 845Q13105 903 12992 903Q12899 903 12859.5 874.0Q12820 845 12820 806Q12820 757 12862 735Q12904 712 13159 656Q13329 616 13414 535Q13498 453 13498 330Q13498 168 13377.5 65.5Q13257 -37 13005 -37Q12748 -37 12625.5 71.5Q12503 180 12503 348H12792Q12801 272 12831 240Q12884 183 13027 183Q13111 183 13160.5 208.0Q13210 233 13210 283Q13210 331 13170 356Q13130 381 12873 442Q12688 488 12612 557Q12536 625 12536 753Q12536 904 12654.5 1012.5Q12773 1121 12988 1121Q13192 1121 13321 1040ZM13715 1474H14000V0H13715ZM15211 320Q15200 223 15110 123Q14970 -36 14718 -36Q14510 -36 14351.0 98.0Q14192 232 14192 534Q14192 817 14335.5 968.0Q14479 1119 14708 1119Q14844 1119 14953.0 1068.0Q15062 1017 15133 907Q15197 810 15216 682Q15227 607 15225 466H14479Q14485 302 14582 236Q14641 195 14724 195Q14812 195 14867 245Q14897 272 14920 320ZM14929 654Q14922 767 14860.5 825.5Q14799 884 14708 884Q14609 884 14554.5 822.0Q14500 760 14486 654ZM15916 203V-10L15781 -15Q15579 -22 15505 55Q15457 104 15457 206V877H15305V1080H15457V1384H15739V1080H15916V877H15739V301Q15739 234 15756.0 217.5Q15773 201 15860 201Q15873 201 15887.5 201.5Q15902 202 15916 203ZM16598 203V-10L16463 -15Q16261 -22 16187 55Q16139 104 16139 206V877H15987V1080H16139V1384H16421V1080H16598V877H16421V301Q16421 234 16438.0 217.5Q16455 201 16542 201Q16555 201 16569.5 201.5Q16584 202 16598 203ZM17714 320Q17703 223 17613 123Q17473 -36 17221 -36Q17013 -36 16854.0 98.0Q16695 232 16695 534Q16695 817 16838.5 968.0Q16982 1119 17211 1119Q17347 1119 17456.0 1068.0Q17565 1017 17636 907Q17700 810 17719 682Q17730 607 17728 466H16982Q16988 302 17085 236Q17144 195 17227 195Q17315 195 17370 245Q17400 272 17423 320ZM17432 654Q17425 767 17363.5 825.5Q17302 884 17211 884Q17112 884 17057.5 822.0Q17003 760 16989 654ZM18468 827Q18296 827 18237 715Q18204 652 18204 521V0H17917V1090H18189V900Q18255 1009 18304 1049Q18384 1116 18512 1116Q18520 1116 18525.5 1115.5Q18531 1115 18550 1114V822Q18523 825 18502.0 826.0Q18481 827 18468 827Z"/></g></svg>
