<svg xmlns="http://www.w3.org/2000/svg" width="137" height="22" viewBox="0 0 137 22"><defs><linearGradient id="crisp-grad" gradientUnits="userSpaceOnUse" x1="0" y1="0" x2="16276" y2="0"><stop offset="0%" stop-color="#0A78E8"/><stop offset="50%" stop-color="#0071E3"/><stop offset="100%" stop-color="#006ADD"/></linearGradient></defs><g fill="url(#crisp-grad)" transform="translate(6, 15) scale(0.007812, -0.007812)"><path d="M156 1474H464V265H1194V0H156ZM2317 320Q2306 223 2216 123Q2076 -36 1824 -36Q1616 -36 1457.0 98.0Q1298 232 1298 534Q1298 817 1441.5 968.0Q1585 1119 1814 1119Q1950 1119 2059.0 1068.0Q2168 1017 2239 907Q2303 810 2322 682Q2333 607 2331 466H1585Q1591 302 1688 236Q1747 195 1830 195Q1918 195 1973 245Q2003 272 2026 320ZM2035 654Q2028 767 1966.5 825.5Q1905 884 1814 884Q1715 884 1660.5 822.0Q1606 760 1592 654ZM3036 879Q2891 879 2837 756Q2809 691 2809 590V0H2525V1088H2800V929Q2855 1013 2904 1050Q2992 1116 3127 1116Q3296 1116 3403.5 1027.5Q3511 939 3511 734V0H3219V663Q3219 749 3196 795Q3154 879 3036 879ZM4287 879Q4142 879 4088 756Q4060 691 4060 590V0H3776V1088H4051V929Q4106 1013 4155 1050Q4243 1116 4378 1116Q4547 1116 4654.5 1027.5Q4762 939 4762 734V0H4470V663Q4470 749 4447 795Q4405 879 4287 879ZM5468 286 5693 1090H5996L5622 18Q5514 -292 5451.0 -366.5Q5388 -441 5199 -441Q5161 -441 5138.0 -440.5Q5115 -440 5069 -437V-209L5105 -211Q5147 -213 5185.0 -208.0Q5223 -203 5249 -185Q5274 -168 5295.5 -114.0Q5317 -60 5313 -48L4913 1090H5230ZM7382 578H7064V0H6763V1474H7486Q7641 1471 7724.5 1436.0Q7808 1401 7866 1333Q7914 1277 7942.0 1209.0Q7970 1141 7970 1054Q7970 949 7917.0 847.5Q7864 746 7742 704Q7844 663 7886.5 587.5Q7929 512 7929 357V258Q7929 157 7937 121Q7949 64 7993 37V0H7654Q7640 49 7634 79Q7622 141 7621 206L7619 343Q7617 484 7567.5 531.0Q7518 578 7382 578ZM7569 846Q7661 888 7661 1012Q7661 1146 7572 1192Q7522 1218 7422 1218H7064V822H7413Q7517 822 7569 846ZM8253 972Q8366 1116 8641 1116Q8820 1116 8959 1045Q9098 974 9098 777V277Q9098 225 9100 151Q9103 95 9117.0 75.0Q9131 55 9159 42V0H8849Q8836 33 8831.0 62.0Q8826 91 8823 128Q8764 64 8687 19Q8595 -34 8479 -34Q8331 -34 8234.5 50.5Q8138 135 8138 290Q8138 491 8293 581Q8378 630 8543 651L8640 663Q8719 673 8753 688Q8814 714 8814 769Q8814 836 8767.5 861.5Q8721 887 8631 887Q8530 887 8488 837Q8458 800 8448 737H8173Q8182 880 8253 972ZM8465 206Q8505 173 8563 173Q8655 173 8732.5 227.0Q8810 281 8813 424V530Q8786 513 8758.5 502.5Q8731 492 8683 483L8619 471Q8529 455 8490 432Q8424 393 8424 311Q8424 238 8465 206ZM10294 699H10002Q9994 760 9961 809Q9913 875 9812 875Q9668 875 9615 732Q9587 656 9587 530Q9587 410 9615 337Q9666 201 9807 201Q9907 201 9949.0 255.0Q9991 309 10000 395H10291Q10281 265 10197 149Q10063 -38 9800 -38Q9537 -38 9413.0 118.0Q9289 274 9289 523Q9289 804 9426.0 960.0Q9563 1116 9804 1116Q10009 1116 10139.5 1024.0Q10270 932 10294 699ZM11475 640V0H11184V663Q11184 751 11154 805Q11115 881 11006 881Q10893 881 10834.5 805.5Q10776 730 10776 590V0H10492V1469H10776V948Q10838 1043 10919.5 1080.5Q11001 1118 11091 1118Q11192 1118 11274.5 1083.0Q11357 1048 11410 976Q11455 915 11465.0 850.5Q11475 786 11475 640ZM12034 1090V0H11745V1090ZM12034 1483V1220H11745V1483ZM12809 203V-10L12674 -15Q12472 -22 12398 55Q12350 104 12350 206V877H12198V1080H12350V1384H12632V1080H12809V877H12632V301Q12632 234 12649.0 217.5Q12666 201 12753 201Q12766 201 12780.5 201.5Q12795 202 12809 203ZM13743 1040Q13871 958 13890 758H13605Q13599 813 13574 845Q13527 903 13414 903Q13321 903 13281.5 874.0Q13242 845 13242 806Q13242 757 13284 735Q13326 712 13581 656Q13751 616 13836 535Q13920 453 13920 330Q13920 168 13799.5 65.5Q13679 -37 13427 -37Q13170 -37 13047.5 71.5Q12925 180 12925 348H13214Q13223 272 13253 240Q13306 183 13449 183Q13533 183 13582.5 208.0Q13632 233 13632 283Q13632 331 13592 356Q13552 381 13295 442Q13110 488 13034 557Q12958 625 12958 753Q12958 904 13076.5 1012.5Q13195 1121 13410 1121Q13614 1121 13743 1040ZM15131 0H14787L14526 466L14408 343V0H14128V1469H14408V675L14763 1085H15116L14735 668ZM15713 286 15938 1090H16241L15867 18Q15759 -292 15696.0 -366.5Q15633 -441 15444 -441Q15406 -441 15383.0 -440.5Q15360 -440 15314 -437V-209L15350 -211Q15392 -213 15430.0 -208.0Q15468 -203 15494 -185Q15519 -168 15540.5 -114.0Q15562 -60 15558 -48L15158 1090H15475Z"/></g></svg>
