<svg xmlns="http://www.w3.org/2000/svg" width="123" height="22" viewBox="0 0 123 22"><defs><linearGradient id="crisp-grad" gradientUnits="userSpaceOnUse" x1="0" y1="0" x2="14484" y2="0"><stop offset="0%" stop-color="#0A78E8"/><stop offset="50%" stop-color="#0071E3"/><stop offset="100%" stop-color="#006ADD"/></linearGradient></defs><g fill="url(#crisp-grad)" transform="translate(6, 15) scale(0.007812, -0.007812)"><path d="M156 1474H464V265H1194V0H156ZM2317 320Q2306 223 2216 123Q2076 -36 1824 -36Q1616 -36 1457.0 98.0Q1298 232 1298 534Q1298 817 1441.5 968.0Q1585 1119 1814 1119Q1950 1119 2059.0 1068.0Q2168 1017 2239 907Q2303 810 2322 682Q2333 607 2331 466H1585Q1591 302 1688 236Q1747 195 1830 195Q1918 195 1973 245Q2003 272 2026 320ZM2035 654Q2028 767 1966.5 825.5Q1905 884 1814 884Q1715 884 1660.5 822.0Q1606 760 1592 654ZM3036 879Q2891 879 2837 756Q2809 691 2809 590V0H2525V1088H2800V929Q2855 1013 2904 1050Q2992 1116 3127 1116Q3296 1116 3403.5 1027.5Q3511 939 3511 734V0H3219V663Q3219 749 3196 795Q3154 879 3036 879ZM4287 879Q4142 879 4088 756Q4060 691 4060 590V0H3776V1088H4051V929Q4106 1013 4155 1050Q4243 1116 4378 1116Q4547 1116 4654.5 1027.5Q4762 939 4762 734V0H4470V663Q4470 749 4447 795Q4405 879 4287 879ZM5468 286 5693 1090H5996L5622 18Q5514 -292 5451.0 -366.5Q5388 -441 5199 -441Q5161 -441 5138.0 -440.5Q5115 -440 5069 -437V-209L5105 -211Q5147 -213 5185.0 -208.0Q5223 -203 5249 -185Q5274 -168 5295.5 -114.0Q5317 -60 5313 -48L4913 1090H5230ZM6130 1474H6403L6353 865H6180ZM7402 1040Q7530 958 7549 758H7264Q7258 813 7233 845Q7186 903 7073 903Q6980 903 6940.5 874.0Q6901 845 6901 806Q6901 757 6943 735Q6985 712 7240 656Q7410 616 7495 535Q7579 453 7579 330Q7579 168 7458.5 65.5Q7338 -37 7086 -37Q6829 -37 6706.5 71.5Q6584 180 6584 348H6873Q6882 272 6912 240Q6965 183 7108 183Q7192 183 7241.5 208.0Q7291 233 7291 283Q7291 331 7251 356Q7211 381 6954 442Q6769 488 6693 557Q6617 625 6617 753Q6617 904 6735.5 1012.5Q6854 1121 7069 1121Q7273 1121 7402 1040ZM9245 303H8702L8600 0H8278L8804 1474H9152L9674 0H9340ZM9159 557 8975 1137 8785 557ZM9837 1474H10143V0H9837ZM12070 1474V1213H11629V0H11319V1213H10876V1474ZM12268 972Q12381 1116 12656 1116Q12835 1116 12974 1045Q13113 974 13113 777V277Q13113 225 13115 151Q13118 95 13132.0 75.0Q13146 55 13174 42V0H12864Q12851 33 12846.0 62.0Q12841 91 12838 128Q12779 64 12702 19Q12610 -34 12494 -34Q12346 -34 12249.5 50.5Q12153 135 12153 290Q12153 491 12308 581Q12393 630 12558 651L12655 663Q12734 673 12768 688Q12829 714 12829 769Q12829 836 12782.5 861.5Q12736 887 12646 887Q12545 887 12503 837Q12473 800 12463 737H12188Q12197 880 12268 972ZM12480 206Q12520 173 12578 173Q12670 173 12747.5 227.0Q12825 281 12828 424V530Q12801 513 12773.5 502.5Q12746 492 12698 483L12634 471Q12544 455 12505 432Q12439 393 12439 311Q12439 238 12480 206ZM13674 -191Q13720 -230 13829 -230Q13983 -230 14035 -127Q14069 -61 14069 95V165Q14028 95 13981 60Q13896 -5 13760 -5Q13550 -5 13424.5 142.5Q13299 290 13299 542Q13299 785 13420.0 950.5Q13541 1116 13763 1116Q13845 1116 13906 1091Q14010 1048 14074 933V1090H14351V56Q14351 -155 14280 -262Q14158 -446 13812 -446Q13603 -446 13471.0 -364.0Q13339 -282 13325 -119H13635Q13647 -169 13674 -191ZM13626 372Q13684 234 13834 234Q13934 234 14003.0 309.5Q14072 385 14072 550Q14072 705 14006.5 786.0Q13941 867 13831 867Q13681 867 13624 726Q13594 651 13594 541Q13594 446 13626 372Z"/></g></svg>
