<svg xmlns="http://www.w3.org/2000/svg" width="137" height="22" viewBox="0 0 137 22"><defs><linearGradient id="crisp-grad" gradientUnits="userSpaceOnUse" x1="0" y1="0" x2="16193" y2="0"><stop offset="0%" stop-color="#0A78E8"/><stop offset="50%" stop-color="#0071E3"/><stop offset="100%" stop-color="#006ADD"/></linearGradient></defs><g fill="url(#crisp-grad)" transform="translate(6, 15) scale(0.007812, -0.007812)"><path d="M156 1474H464V265H1194V0H156ZM2317 320Q2306 223 2216 123Q2076 -36 1824 -36Q1616 -36 1457.0 98.0Q1298 232 1298 534Q1298 817 1441.5 968.0Q1585 1119 1814 1119Q1950 1119 2059.0 1068.0Q2168 1017 2239 907Q2303 810 2322 682Q2333 607 2331 466H1585Q1591 302 1688 236Q1747 195 1830 195Q1918 195 1973 245Q2003 272 2026 320ZM2035 654Q2028 767 1966.5 825.5Q1905 884 1814 884Q1715 884 1660.5 822.0Q1606 760 1592 654ZM3036 879Q2891 879 2837 756Q2809 691 2809 590V0H2525V1088H2800V929Q2855 1013 2904 1050Q2992 1116 3127 1116Q3296 1116 3403.5 1027.5Q3511 939 3511 734V0H3219V663Q3219 749 3196 795Q3154 879 3036 879ZM4287 879Q4142 879 4088 756Q4060 691 4060 590V0H3776V1088H4051V929Q4106 1013 4155 1050Q4243 1116 4378 1116Q4547 1116 4654.5 1027.5Q4762 939 4762 734V0H4470V663Q4470 749 4447 795Q4405 879 4287 879ZM5468 286 5693 1090H5996L5622 18Q5514 -292 5451.0 -366.5Q5388 -441 5199 -441Q5161 -441 5138.0 -440.5Q5115 -440 5069 -437V-209L5105 -211Q5147 -213 5185.0 -208.0Q5223 -203 5249 -185Q5274 -168 5295.5 -114.0Q5317 -60 5313 -48L4913 1090H5230ZM6130 1474H6403L6353 865H6180ZM7402 1040Q7530 958 7549 758H7264Q7258 813 7233 845Q7186 903 7073 903Q6980 903 6940.5 874.0Q6901 845 6901 806Q6901 757 6943 735Q6985 712 7240 656Q7410 616 7495 535Q7579 453 7579 330Q7579 168 7458.5 65.5Q7338 -37 7086 -37Q6829 -37 6706.5 71.5Q6584 180 6584 348H6873Q6882 272 6912 240Q6965 183 7108 183Q7192 183 7241.5 208.0Q7291 233 7291 283Q7291 331 7251 356Q7211 381 6954 442Q6769 488 6693 557Q6617 625 6617 753Q6617 904 6735.5 1012.5Q6854 1121 7069 1121Q7273 1121 7402 1040ZM9008 530H8695V0H8389V1474H9031Q9253 1474 9385.0 1360.0Q9517 1246 9517 1007Q9517 746 9385.0 638.0Q9253 530 9008 530ZM9152 837Q9212 890 9212 1005Q9212 1120 9151.5 1169.0Q9091 1218 8982 1218H8695V784H8982Q9091 784 9152 837ZM10634 952Q10772 779 10772 543Q10772 303 10634.0 132.5Q10496 -38 10215 -38Q9934 -38 9796.0 132.5Q9658 303 9658 543Q9658 779 9796.0 952.0Q9934 1125 10215 1125Q10496 1125 10634 952ZM10214 884Q10089 884 10021.5 795.5Q9954 707 9954 543Q9954 379 10021.5 290.0Q10089 201 10214 201Q10339 201 10406.0 290.0Q10473 379 10473 543Q10473 707 10406.0 795.5Q10339 884 10214 884ZM11968 1472V0H11691V151Q11630 54 11552.0 10.0Q11474 -34 11358 -34Q11167 -34 11036.5 120.5Q10906 275 10906 517Q10906 796 11034.5 956.0Q11163 1116 11378 1116Q11477 1116 11554.0 1072.5Q11631 1029 11679 952V1472ZM11200 538Q11200 387 11260 297Q11319 206 11440 206Q11561 206 11624.0 296.0Q11687 386 11687 529Q11687 729 11586 815Q11524 867 11442 867Q11317 867 11258.5 772.5Q11200 678 11200 538ZM13170 699H12878Q12870 760 12837 809Q12789 875 12688 875Q12544 875 12491 732Q12463 656 12463 530Q12463 410 12491 337Q12542 201 12683 201Q12783 201 12825.0 255.0Q12867 309 12876 395H13167Q13157 265 13073 149Q12939 -38 12676 -38Q12413 -38 12289.0 118.0Q12165 274 12165 523Q12165 804 12302.0 960.0Q12439 1116 12680 1116Q12885 1116 13015.5 1024.0Q13146 932 13170 699ZM13407 972Q13520 1116 13795 1116Q13974 1116 14113 1045Q14252 974 14252 777V277Q14252 225 14254 151Q14257 95 14271.0 75.0Q14285 55 14313 42V0H14003Q13990 33 13985.0 62.0Q13980 91 13977 128Q13918 64 13841 19Q13749 -34 13633 -34Q13485 -34 13388.5 50.5Q13292 135 13292 290Q13292 491 13447 581Q13532 630 13697 651L13794 663Q13873 673 13907 688Q13968 714 13968 769Q13968 836 13921.5 861.5Q13875 887 13785 887Q13684 887 13642 837Q13612 800 13602 737H13327Q13336 880 13407 972ZM13619 206Q13659 173 13717 173Q13809 173 13886.5 227.0Q13964 281 13967 424V530Q13940 513 13912.5 502.5Q13885 492 13837 483L13773 471Q13683 455 13644 432Q13578 393 13578 311Q13578 238 13619 206ZM15256 1040Q15384 958 15403 758H15118Q15112 813 15087 845Q15040 903 14927 903Q14834 903 14794.5 874.0Q14755 845 14755 806Q14755 757 14797 735Q14839 712 15094 656Q15264 616 15349 535Q15433 453 15433 330Q15433 168 15312.5 65.5Q15192 -37 14940 -37Q14683 -37 14560.5 71.5Q14438 180 14438 348H14727Q14736 272 14766 240Q14819 183 14962 183Q15046 183 15095.5 208.0Q15145 233 15145 283Q15145 331 15105 356Q15065 381 14808 442Q14623 488 14547 557Q14471 625 14471 753Q14471 904 14589.5 1012.5Q14708 1121 14923 1121Q15127 1121 15256 1040ZM16143 203V-10L16008 -15Q15806 -22 15732 55Q15684 104 15684 206V877H15532V1080H15684V1384H15966V1080H16143V877H15966V301Q15966 234 15983.0 217.5Q16000 201 16087 201Q16100 201 16114.5 201.5Q16129 202 16143 203Z"/></g></svg>
