<svg xmlns="http://www.w3.org/2000/svg" width="58" height="22" viewBox="0 0 58 22"><defs><linearGradient id="crisp-grad" gradientUnits="userSpaceOnUse" x1="0" y1="0" x2="6146" y2="0"><stop offset="0%" stop-color="#0A78E8"/><stop offset="50%" stop-color="#0071E3"/><stop offset="100%" stop-color="#006ADD"/></linearGradient></defs><g fill="url(#crisp-grad)" transform="translate(6, 15) scale(0.007812, -0.007812)"><path d="M156 1474H464V265H1194V0H156ZM1677 1090V0H1388V1090ZM1677 1483V1220H1388V1483ZM2466 879Q2321 879 2267 756Q2239 691 2239 590V0H1955V1088H2230V929Q2285 1013 2334 1050Q2422 1116 2557 1116Q2726 1116 2833.5 1027.5Q2941 939 2941 734V0H2649V663Q2649 749 2626 795Q2584 879 2466 879ZM4137 320Q4126 223 4036 123Q3896 -36 3644 -36Q3436 -36 3277.0 98.0Q3118 232 3118 534Q3118 817 3261.5 968.0Q3405 1119 3634 1119Q3770 1119 3879.0 1068.0Q3988 1017 4059 907Q4123 810 4142 682Q4153 607 4151 466H3405Q3411 302 3508 236Q3567 195 3650 195Q3738 195 3793 245Q3823 272 3846 320ZM3855 654Q3848 767 3786.5 825.5Q3725 884 3634 884Q3535 884 3480.5 822.0Q3426 760 3412 654ZM4384 972Q4497 1116 4772 1116Q4951 1116 5090 1045Q5229 974 5229 777V277Q5229 225 5231 151Q5234 95 5248.0 75.0Q5262 55 5290 42V0H4980Q4967 33 4962.0 62.0Q4957 91 4954 128Q4895 64 4818 19Q4726 -34 4610 -34Q4462 -34 4365.5 50.5Q4269 135 4269 290Q4269 491 4424 581Q4509 630 4674 651L4771 663Q4850 673 4884 688Q4945 714 4945 769Q4945 836 4898.5 861.5Q4852 887 4762 887Q4661 887 4619 837Q4589 800 4579 737H4304Q4313 880 4384 972ZM4596 206Q4636 173 4694 173Q4786 173 4863.5 227.0Q4941 281 4944 424V530Q4917 513 4889.5 502.5Q4862 492 4814 483L4750 471Q4660 455 4621 432Q4555 393 4555 311Q4555 238 4596 206ZM6030 827Q5858 827 5799 715Q5766 652 5766 521V0H5479V1090H5751V900Q5817 1009 5866 1049Q5946 1116 6074 1116Q6082 1116 6087.5 1115.5Q6093 1115 6112 1114V822Q6085 825 6064.0 826.0Q6043 827 6030 827Z"/></g></svg>
