<svg xmlns="http://www.w3.org/2000/svg" width="106" height="22" viewBox="0 0 106 22"><defs><linearGradient id="crisp-grad" gradientUnits="userSpaceOnUse" x1="0" y1="0" x2="12291" y2="0"><stop offset="0%" stop-color="#0A78E8"/><stop offset="50%" stop-color="#0071E3"/><stop offset="100%" stop-color="#006ADD"/></linearGradient></defs><g fill="url(#crisp-grad)" transform="translate(6, 15) scale(0.007812, -0.007812)"><path d="M438 0H151V1474H599L867 315L1133 1474H1576V0H1289V997Q1289 1040 1290.0 1117.5Q1291 1195 1291 1237L1012 0H713L436 1237Q436 1195 437.0 1117.5Q438 1040 438 997ZM1880 972Q1993 1116 2268 1116Q2447 1116 2586 1045Q2725 974 2725 777V277Q2725 225 2727 151Q2730 95 2744.0 75.0Q2758 55 2786 42V0H2476Q2463 33 2458.0 62.0Q2453 91 2450 128Q2391 64 2314 19Q2222 -34 2106 -34Q1958 -34 1861.5 50.5Q1765 135 1765 290Q1765 491 1920 581Q2005 630 2170 651L2267 663Q2346 673 2380 688Q2441 714 2441 769Q2441 836 2394.5 861.5Q2348 887 2258 887Q2157 887 2115 837Q2085 800 2075 737H1800Q1809 880 1880 972ZM2092 206Q2132 173 2190 173Q2282 173 2359.5 227.0Q2437 281 2440 424V530Q2413 513 2385.5 502.5Q2358 492 2310 483L2246 471Q2156 455 2117 432Q2051 393 2051 311Q2051 238 2092 206ZM3526 827Q3354 827 3295 715Q3262 652 3262 521V0H2975V1090H3247V900Q3313 1009 3362 1049Q3442 1116 3570 1116Q3578 1116 3583.5 1115.5Q3589 1115 3608 1114V822Q3581 825 3560.0 826.0Q3539 827 3526 827ZM4274 203V-10L4139 -15Q3937 -22 3863 55Q3815 104 3815 206V877H3663V1080H3815V1384H4097V1080H4274V877H4097V301Q4097 234 4114.0 217.5Q4131 201 4218 201Q4231 201 4245.5 201.5Q4260 202 4274 203ZM4900 286 5125 1090H5428L5054 18Q4946 -292 4883.0 -366.5Q4820 -441 4631 -441Q4593 -441 4570.0 -440.5Q4547 -440 4501 -437V-209L4537 -211Q4579 -213 4617.0 -208.0Q4655 -203 4681 -185Q4706 -168 4727.5 -114.0Q4749 -60 4745 -48L4345 1090H4662ZM7228 110Q7063 -41 6806 -41Q6488 -41 6306 163Q6124 368 6124 725Q6124 1111 6331 1320Q6511 1502 6789 1502Q7161 1502 7333 1258Q7428 1121 7435 983H7127Q7097 1089 7050 1143Q6966 1239 6801 1239Q6633 1239 6536.0 1103.5Q6439 968 6439 720Q6439 472 6541.5 348.5Q6644 225 6802 225Q6964 225 7049 331Q7096 388 7127 502H7432Q7392 261 7228 110ZM7685 972Q7798 1116 8073 1116Q8252 1116 8391 1045Q8530 974 8530 777V277Q8530 225 8532 151Q8535 95 8549.0 75.0Q8563 55 8591 42V0H8281Q8268 33 8263.0 62.0Q8258 91 8255 128Q8196 64 8119 19Q8027 -34 7911 -34Q7763 -34 7666.5 50.5Q7570 135 7570 290Q7570 491 7725 581Q7810 630 7975 651L8072 663Q8151 673 8185 688Q8246 714 8246 769Q8246 836 8199.5 861.5Q8153 887 8063 887Q7962 887 7920 837Q7890 800 7880 737H7605Q7614 880 7685 972ZM7897 206Q7937 173 7995 173Q8087 173 8164.5 227.0Q8242 281 8245 424V530Q8218 513 8190.5 502.5Q8163 492 8115 483L8051 471Q7961 455 7922 432Q7856 393 7856 311Q7856 238 7897 206ZM9091 -191Q9137 -230 9246 -230Q9400 -230 9452 -127Q9486 -61 9486 95V165Q9445 95 9398 60Q9313 -5 9177 -5Q8967 -5 8841.5 142.5Q8716 290 8716 542Q8716 785 8837.0 950.5Q8958 1116 9180 1116Q9262 1116 9323 1091Q9427 1048 9491 933V1090H9768V56Q9768 -155 9697 -262Q9575 -446 9229 -446Q9020 -446 8888.0 -364.0Q8756 -282 8742 -119H9052Q9064 -169 9091 -191ZM9043 372Q9101 234 9251 234Q9351 234 9420.0 309.5Q9489 385 9489 550Q9489 705 9423.5 786.0Q9358 867 9248 867Q9098 867 9041 726Q9011 651 9011 541Q9011 446 9043 372ZM10075 972Q10188 1116 10463 1116Q10642 1116 10781 1045Q10920 974 10920 777V277Q10920 225 10922 151Q10925 95 10939.0 75.0Q10953 55 10981 42V0H10671Q10658 33 10653.0 62.0Q10648 91 10645 128Q10586 64 10509 19Q10417 -34 10301 -34Q10153 -34 10056.5 50.5Q9960 135 9960 290Q9960 491 10115 581Q10200 630 10365 651L10462 663Q10541 673 10575 688Q10636 714 10636 769Q10636 836 10589.5 861.5Q10543 887 10453 887Q10352 887 10310 837Q10280 800 10270 737H9995Q10004 880 10075 972ZM10287 206Q10327 173 10385 173Q10477 173 10554.5 227.0Q10632 281 10635 424V530Q10608 513 10580.5 502.5Q10553 492 10505 483L10441 471Q10351 455 10312 432Q10246 393 10246 311Q10246 238 10287 206ZM11686 879Q11541 879 11487 756Q11459 691 11459 590V0H11175V1088H11450V929Q11505 1013 11554 1050Q11642 1116 11777 1116Q11946 1116 12053.5 1027.5Q12161 939 12161 734V0H11869V663Q11869 749 11846 795Q11804 879 11686 879Z"/></g></svg>
