<svg xmlns="http://www.w3.org/2000/svg" width="141" height="22" viewBox="0 0 141 22"><defs><linearGradient id="crisp-grad" gradientUnits="userSpaceOnUse" x1="0" y1="0" x2="16724" y2="0"><stop offset="0%" stop-color="#0A78E8"/><stop offset="50%" stop-color="#0071E3"/><stop offset="100%" stop-color="#006ADD"/></linearGradient></defs><g fill="url(#crisp-grad)" transform="translate(6, 15) scale(0.007812, -0.007812)"><path d="M438 0H151V1474H599L867 315L1133 1474H1576V0H1289V997Q1289 1040 1290.0 1117.5Q1291 1195 1291 1237L1012 0H713L436 1237Q436 1195 437.0 1117.5Q438 1040 438 997ZM2132 1090V0H1843V1090ZM2132 1483V1220H1843V1483ZM2921 879Q2776 879 2722 756Q2694 691 2694 590V0H2410V1088H2685V929Q2740 1013 2789 1050Q2877 1116 3012 1116Q3181 1116 3288.5 1027.5Q3396 939 3396 734V0H3104V663Q3104 749 3081 795Q3039 879 2921 879ZM4651 1472V0H4374V151Q4313 54 4235.0 10.0Q4157 -34 4041 -34Q3850 -34 3719.5 120.5Q3589 275 3589 517Q3589 796 3717.5 956.0Q3846 1116 4061 1116Q4160 1116 4237.0 1072.5Q4314 1029 4362 952V1472ZM3883 538Q3883 387 3943 297Q4002 206 4123 206Q4244 206 4307.0 296.0Q4370 386 4370 529Q4370 729 4269 815Q4207 867 4125 867Q4000 867 3941.5 772.5Q3883 678 3883 538ZM5978 203V-10L5843 -15Q5641 -22 5567 55Q5519 104 5519 206V877H5367V1080H5519V1384H5801V1080H5978V877H5801V301Q5801 234 5818.0 217.5Q5835 201 5922 201Q5935 201 5949.5 201.5Q5964 202 5978 203ZM7146 640V0H6855V663Q6855 751 6825 805Q6786 881 6677 881Q6564 881 6505.5 805.5Q6447 730 6447 590V0H6163V1469H6447V948Q6509 1043 6590.5 1080.5Q6672 1118 6762 1118Q6863 1118 6945.5 1083.0Q7028 1048 7081 976Q7126 915 7136.0 850.5Q7146 786 7146 640ZM8345 320Q8334 223 8244 123Q8104 -36 7852 -36Q7644 -36 7485.0 98.0Q7326 232 7326 534Q7326 817 7469.5 968.0Q7613 1119 7842 1119Q7978 1119 8087.0 1068.0Q8196 1017 8267 907Q8331 810 8350 682Q8361 607 8359 466H7613Q7619 302 7716 236Q7775 195 7858 195Q7946 195 8001 245Q8031 272 8054 320ZM8063 654Q8056 767 7994.5 825.5Q7933 884 7842 884Q7743 884 7688.5 822.0Q7634 760 7620 654ZM9769 530H9456V0H9150V1474H9792Q10014 1474 10146.0 1360.0Q10278 1246 10278 1007Q10278 746 10146.0 638.0Q10014 530 9769 530ZM9913 837Q9973 890 9973 1005Q9973 1120 9912.5 1169.0Q9852 1218 9743 1218H9456V784H9743Q9852 784 9913 837ZM11034 827Q10862 827 10803 715Q10770 652 10770 521V0H10483V1090H10755V900Q10821 1009 10870 1049Q10950 1116 11078 1116Q11086 1116 11091.5 1115.5Q11097 1115 11116 1114V822Q11089 825 11068.0 826.0Q11047 827 11034 827ZM12192 952Q12330 779 12330 543Q12330 303 12192.0 132.5Q12054 -38 11773 -38Q11492 -38 11354.0 132.5Q11216 303 11216 543Q11216 779 11354.0 952.0Q11492 1125 11773 1125Q12054 1125 12192 952ZM11772 884Q11647 884 11579.5 795.5Q11512 707 11512 543Q11512 379 11579.5 290.0Q11647 201 11772 201Q11897 201 11964.0 290.0Q12031 379 12031 543Q12031 707 11964.0 795.5Q11897 884 11772 884ZM13526 1472V0H13249V151Q13188 54 13110.0 10.0Q13032 -34 12916 -34Q12725 -34 12594.5 120.5Q12464 275 12464 517Q12464 796 12592.5 956.0Q12721 1116 12936 1116Q13035 1116 13112.0 1072.5Q13189 1029 13237 952V1472ZM12758 538Q12758 387 12818 297Q12877 206 12998 206Q13119 206 13182.0 296.0Q13245 386 13245 529Q13245 729 13144 815Q13082 867 13000 867Q12875 867 12816.5 772.5Q12758 678 12758 538ZM14484 154Q14480 149 14464.0 124.0Q14448 99 14426 80Q14359 20 14296.5 -2.0Q14234 -24 14150 -24Q13908 -24 13824 150Q13777 246 13777 433V1090H14069V433Q14069 340 14091 293Q14130 210 14244 210Q14390 210 14444 328Q14472 392 14472 497V1090H14761V0H14484ZM15979 699H15687Q15679 760 15646 809Q15598 875 15497 875Q15353 875 15300 732Q15272 656 15272 530Q15272 410 15300 337Q15351 201 15492 201Q15592 201 15634.0 255.0Q15676 309 15685 395H15976Q15966 265 15882 149Q15748 -38 15485 -38Q15222 -38 15098.0 118.0Q14974 274 14974 523Q14974 804 15111.0 960.0Q15248 1116 15489 1116Q15694 1116 15824.5 1024.0Q15955 932 15979 699ZM16674 203V-10L16539 -15Q16337 -22 16263 55Q16215 104 16215 206V877H16063V1080H16215V1384H16497V1080H16674V877H16497V301Q16497 234 16514.0 217.5Q16531 201 16618 201Q16631 201 16645.5 201.5Q16660 202 16674 203Z"/></g></svg>
