<svg xmlns="http://www.w3.org/2000/svg" width="107" height="22" viewBox="0 0 107 22"><defs><linearGradient id="crisp-grad" gradientUnits="userSpaceOnUse" x1="0" y1="0" x2="12400" y2="0"><stop offset="0%" stop-color="#0A78E8"/><stop offset="50%" stop-color="#0071E3"/><stop offset="100%" stop-color="#006ADD"/></linearGradient></defs><g fill="url(#crisp-grad)" transform="translate(6, 15) scale(0.007812, -0.007812)"><path d="M1348 0H1040L438 1047V0H151V1474H474L1061 445V1474H1348ZM2521 952Q2659 779 2659 543Q2659 303 2521.0 132.5Q2383 -38 2102 -38Q1821 -38 1683.0 132.5Q1545 303 1545 543Q1545 779 1683.0 952.0Q1821 1125 2102 1125Q2383 1125 2521 952ZM2101 884Q1976 884 1908.5 795.5Q1841 707 1841 543Q1841 379 1908.5 290.0Q1976 201 2101 201Q2226 201 2293.0 290.0Q2360 379 2360 543Q2360 707 2293.0 795.5Q2226 884 2101 884ZM3362 203V-10L3227 -15Q3025 -22 2951 55Q2903 104 2903 206V877H2751V1080H2903V1384H3185V1080H3362V877H3185V301Q3185 234 3202.0 217.5Q3219 201 3306 201Q3319 201 3333.5 201.5Q3348 202 3362 203ZM4478 320Q4467 223 4377 123Q4237 -36 3985 -36Q3777 -36 3618.0 98.0Q3459 232 3459 534Q3459 817 3602.5 968.0Q3746 1119 3975 1119Q4111 1119 4220.0 1068.0Q4329 1017 4400 907Q4464 810 4483 682Q4494 607 4492 466H3746Q3752 302 3849 236Q3908 195 3991 195Q4079 195 4134 245Q4164 272 4187 320ZM4196 654Q4189 767 4127.5 825.5Q4066 884 3975 884Q3876 884 3821.5 822.0Q3767 760 3753 654ZM5276 -29Q5141 -29 5059 25Q5010 57 4953 137V0H4674V1472H4958V948Q5012 1024 5077 1064Q5154 1114 5273 1114Q5488 1114 5609.5 959.0Q5731 804 5731 559Q5731 305 5611.0 138.0Q5491 -29 5276 -29ZM5432 529Q5432 645 5402 721Q5345 865 5192 865Q5037 865 4979 724Q4949 649 4949 530Q4949 390 5011.0 298.0Q5073 206 5200 206Q5310 206 5371.0 295.0Q5432 384 5432 529ZM6844 952Q6982 779 6982 543Q6982 303 6844.0 132.5Q6706 -38 6425 -38Q6144 -38 6006.0 132.5Q5868 303 5868 543Q5868 779 6006.0 952.0Q6144 1125 6425 1125Q6706 1125 6844 952ZM6424 884Q6299 884 6231.5 795.5Q6164 707 6164 543Q6164 379 6231.5 290.0Q6299 201 6424 201Q6549 201 6616.0 290.0Q6683 379 6683 543Q6683 707 6616.0 795.5Q6549 884 6424 884ZM8095 952Q8233 779 8233 543Q8233 303 8095.0 132.5Q7957 -38 7676 -38Q7395 -38 7257.0 132.5Q7119 303 7119 543Q7119 779 7257.0 952.0Q7395 1125 7676 1125Q7957 1125 8095 952ZM7675 884Q7550 884 7482.5 795.5Q7415 707 7415 543Q7415 379 7482.5 290.0Q7550 201 7675 201Q7800 201 7867.0 290.0Q7934 379 7934 543Q7934 707 7867.0 795.5Q7800 884 7675 884ZM9437 0H9093L8832 466L8714 343V0H8434V1469H8714V675L9069 1085H9422L9041 668ZM9599 1474H9907V265H10637V0H9599ZM11132 0H10845V1474H11293L11561 315L11827 1474H12270V0H11983V997Q11983 1040 11984.0 1117.5Q11985 1195 11985 1237L11706 0H11407L11130 1237Q11130 1195 11131.0 1117.5Q11132 1040 11132 997Z"/></g></svg>
