<svg xmlns="http://www.w3.org/2000/svg" width="81" height="22" viewBox="0 0 81 22"><defs><linearGradient id="crisp-grad" gradientUnits="userSpaceOnUse" x1="0" y1="0" x2="9100" y2="0"><stop offset="0%" stop-color="#0A78E8"/><stop offset="50%" stop-color="#0071E3"/><stop offset="100%" stop-color="#006ADD"/></linearGradient></defs><g fill="url(#crisp-grad)" transform="translate(6, 15) scale(0.007812, -0.007812)"><path d="M1348 0H1040L438 1047V0H151V1474H474L1061 445V1474H1348ZM2521 952Q2659 779 2659 543Q2659 303 2521.0 132.5Q2383 -38 2102 -38Q1821 -38 1683.0 132.5Q1545 303 1545 543Q1545 779 1683.0 952.0Q1821 1125 2102 1125Q2383 1125 2521 952ZM2101 884Q1976 884 1908.5 795.5Q1841 707 1841 543Q1841 379 1908.5 290.0Q1976 201 2101 201Q2226 201 2293.0 290.0Q2360 379 2360 543Q2360 707 2293.0 795.5Q2226 884 2101 884ZM3362 203V-10L3227 -15Q3025 -22 2951 55Q2903 104 2903 206V877H2751V1080H2903V1384H3185V1080H3362V877H3185V301Q3185 234 3202.0 217.5Q3219 201 3306 201Q3319 201 3333.5 201.5Q3348 202 3362 203ZM3838 1090V0H3549V1090ZM3838 1483V1220H3549V1483ZM5023 952Q5161 779 5161 543Q5161 303 5023.0 132.5Q4885 -38 4604 -38Q4323 -38 4185.0 132.5Q4047 303 4047 543Q4047 779 4185.0 952.0Q4323 1125 4604 1125Q4885 1125 5023 952ZM4603 884Q4478 884 4410.5 795.5Q4343 707 4343 543Q4343 379 4410.5 290.0Q4478 201 4603 201Q4728 201 4795.0 290.0Q4862 379 4862 543Q4862 707 4795.0 795.5Q4728 884 4603 884ZM5878 879Q5733 879 5679 756Q5651 691 5651 590V0H5367V1088H5642V929Q5697 1013 5746 1050Q5834 1116 5969 1116Q6138 1116 6245.5 1027.5Q6353 939 6353 734V0H6061V663Q6061 749 6038 795Q5996 879 5878 879ZM8071 303H7528L7426 0H7104L7630 1474H7978L8500 0H8166ZM7985 557 7801 1137 7611 557ZM8663 1474H8969V0H8663Z"/></g></svg>
