<svg xmlns="http://www.w3.org/2000/svg" width="137" height="22" viewBox="0 0 137 22"><defs><linearGradient id="crisp-grad" gradientUnits="userSpaceOnUse" x1="0" y1="0" x2="16270" y2="0"><stop offset="0%" stop-color="#0A78E8"/><stop offset="50%" stop-color="#0071E3"/><stop offset="100%" stop-color="#006ADD"/></linearGradient></defs><g fill="url(#crisp-grad)" transform="translate(6, 15) scale(0.007812, -0.007812)"><path d="M782 530H469V0H163V1474H805Q1027 1474 1159.0 1360.0Q1291 1246 1291 1007Q1291 746 1159.0 638.0Q1027 530 782 530ZM926 837Q986 890 986 1005Q986 1120 925.5 1169.0Q865 1218 756 1218H469V784H756Q865 784 926 837ZM2432 320Q2421 223 2331 123Q2191 -36 1939 -36Q1731 -36 1572.0 98.0Q1413 232 1413 534Q1413 817 1556.5 968.0Q1700 1119 1929 1119Q2065 1119 2174.0 1068.0Q2283 1017 2354 907Q2418 810 2437 682Q2448 607 2446 466H1700Q1706 302 1803 236Q1862 195 1945 195Q2033 195 2088 245Q2118 272 2141 320ZM2150 654Q2143 767 2081.5 825.5Q2020 884 1929 884Q1830 884 1775.5 822.0Q1721 760 1707 654ZM3547 952Q3685 779 3685 543Q3685 303 3547.0 132.5Q3409 -38 3128 -38Q2847 -38 2709.0 132.5Q2571 303 2571 543Q2571 779 2709.0 952.0Q2847 1125 3128 1125Q3409 1125 3547 952ZM3127 884Q3002 884 2934.5 795.5Q2867 707 2867 543Q2867 379 2934.5 290.0Q3002 201 3127 201Q3252 201 3319.0 290.0Q3386 379 3386 543Q3386 707 3319.0 795.5Q3252 884 3127 884ZM4802 973Q4934 832 4934 559Q4934 271 4804.5 120.0Q4675 -31 4471 -31Q4341 -31 4255 34Q4208 70 4163 139V-429H3881V1090H4154V929Q4200 1000 4252 1041Q4347 1114 4478 1114Q4669 1114 4802 973ZM4640 545Q4640 671 4582.5 768.0Q4525 865 4396 865Q4241 865 4183 718Q4153 640 4153 520Q4153 330 4254 253Q4314 208 4396 208Q4515 208 4577.5 300.0Q4640 392 4640 545ZM5146 1474H5431V0H5146ZM6642 320Q6631 223 6541 123Q6401 -36 6149 -36Q5941 -36 5782.0 98.0Q5623 232 5623 534Q5623 817 5766.5 968.0Q5910 1119 6139 1119Q6275 1119 6384.0 1068.0Q6493 1017 6564 907Q6628 810 6647 682Q6658 607 6656 466H5910Q5916 302 6013 236Q6072 195 6155 195Q6243 195 6298 245Q6328 272 6351 320ZM6360 654Q6353 767 6291.5 825.5Q6230 884 6139 884Q6040 884 5985.5 822.0Q5931 760 5917 654ZM7916 203V-10L7781 -15Q7579 -22 7505 55Q7457 104 7457 206V877H7305V1080H7457V1384H7739V1080H7916V877H7739V301Q7739 234 7756.0 217.5Q7773 201 7860 201Q7873 201 7887.5 201.5Q7902 202 7916 203ZM9008 952Q9146 779 9146 543Q9146 303 9008.0 132.5Q8870 -38 8589 -38Q8308 -38 8170.0 132.5Q8032 303 8032 543Q8032 779 8170.0 952.0Q8308 1125 8589 1125Q8870 1125 9008 952ZM8588 884Q8463 884 8395.5 795.5Q8328 707 8328 543Q8328 379 8395.5 290.0Q8463 201 8588 201Q8713 201 8780.0 290.0Q8847 379 8847 543Q8847 707 8780.0 795.5Q8713 884 8588 884ZM10987 1213H10248V874H10895V618H10248V0H9942V1472H10987ZM12079 952Q12217 779 12217 543Q12217 303 12079.0 132.5Q11941 -38 11660 -38Q11379 -38 11241.0 132.5Q11103 303 11103 543Q11103 779 11241.0 952.0Q11379 1125 11660 1125Q11941 1125 12079 952ZM11659 884Q11534 884 11466.5 795.5Q11399 707 11399 543Q11399 379 11466.5 290.0Q11534 201 11659 201Q11784 201 11851.0 290.0Q11918 379 11918 543Q11918 707 11851.0 795.5Q11784 884 11659 884ZM12427 1474H12712V0H12427ZM12996 1474H13281V0H12996ZM14468 952Q14606 779 14606 543Q14606 303 14468.0 132.5Q14330 -38 14049 -38Q13768 -38 13630.0 132.5Q13492 303 13492 543Q13492 779 13630.0 952.0Q13768 1125 14049 1125Q14330 1125 14468 952ZM14048 884Q13923 884 13855.5 795.5Q13788 707 13788 543Q13788 379 13855.5 290.0Q13923 201 14048 201Q14173 201 14240.0 290.0Q14307 379 14307 543Q14307 707 14240.0 795.5Q14173 884 14048 884ZM15637 0 15466 794 15293 0H14997L14691 1090H14997L15167 308L15324 1090H15613L15779 305L15949 1090H16246L15930 0Z"/></g></svg>
