<svg xmlns="http://www.w3.org/2000/svg" width="86" height="22" viewBox="0 0 86 22"><defs><linearGradient id="crisp-grad" gradientUnits="userSpaceOnUse" x1="0" y1="0" x2="9790" y2="0"><stop offset="0%" stop-color="#0A78E8"/><stop offset="50%" stop-color="#0071E3"/><stop offset="100%" stop-color="#006ADD"/></linearGradient></defs><g fill="url(#crisp-grad)" transform="translate(6, 15) scale(0.007812, -0.007812)"><path d="M782 530H469V0H163V1474H805Q1027 1474 1159.0 1360.0Q1291 1246 1291 1007Q1291 746 1159.0 638.0Q1027 530 782 530ZM926 837Q986 890 986 1005Q986 1120 925.5 1169.0Q865 1218 756 1218H469V784H756Q865 784 926 837ZM2432 320Q2421 223 2331 123Q2191 -36 1939 -36Q1731 -36 1572.0 98.0Q1413 232 1413 534Q1413 817 1556.5 968.0Q1700 1119 1929 1119Q2065 1119 2174.0 1068.0Q2283 1017 2354 907Q2418 810 2437 682Q2448 607 2446 466H1700Q1706 302 1803 236Q1862 195 1945 195Q2033 195 2088 245Q2118 272 2141 320ZM2150 654Q2143 767 2081.5 825.5Q2020 884 1929 884Q1830 884 1775.5 822.0Q1721 760 1707 654ZM3186 827Q3014 827 2955 715Q2922 652 2922 521V0H2635V1090H2907V900Q2973 1009 3022 1049Q3102 1116 3230 1116Q3238 1116 3243.5 1115.5Q3249 1115 3268 1114V822Q3241 825 3220.0 826.0Q3199 827 3186 827ZM4348 973Q4480 832 4480 559Q4480 271 4350.5 120.0Q4221 -31 4017 -31Q3887 -31 3801 34Q3754 70 3709 139V-429H3427V1090H3700V929Q3746 1000 3798 1041Q3893 1114 4024 1114Q4215 1114 4348 973ZM4186 545Q4186 671 4128.5 768.0Q4071 865 3942 865Q3787 865 3729 718Q3699 640 3699 520Q3699 330 3800 253Q3860 208 3942 208Q4061 208 4123.5 300.0Q4186 392 4186 545ZM4692 1474H4977V0H4692ZM6188 320Q6177 223 6087 123Q5947 -36 5695 -36Q5487 -36 5328.0 98.0Q5169 232 5169 534Q5169 817 5312.5 968.0Q5456 1119 5685 1119Q5821 1119 5930.0 1068.0Q6039 1017 6110 907Q6174 810 6193 682Q6204 607 6202 466H5456Q5462 302 5559 236Q5618 195 5701 195Q5789 195 5844 245Q5874 272 5897 320ZM5906 654Q5899 767 5837.5 825.5Q5776 884 5685 884Q5586 884 5531.5 822.0Q5477 760 5463 654ZM7365 0H7010L6822 327L6633 0H6287L6659 552L6303 1088H6652L6834 772L7012 1088H7351L6993 557ZM7826 1090V0H7537V1090ZM7826 1483V1220H7537V1483ZM8601 203V-10L8466 -15Q8264 -22 8190 55Q8142 104 8142 206V877H7990V1080H8142V1384H8424V1080H8601V877H8424V301Q8424 234 8441.0 217.5Q8458 201 8545 201Q8558 201 8572.5 201.5Q8587 202 8601 203ZM9227 286 9452 1090H9755L9381 18Q9273 -292 9210.0 -366.5Q9147 -441 8958 -441Q8920 -441 8897.0 -440.5Q8874 -440 8828 -437V-209L8864 -211Q8906 -213 8944.0 -208.0Q8982 -203 9008 -185Q9033 -168 9054.5 -114.0Q9076 -60 9072 -48L8672 1090H8989Z"/></g></svg>
