<svg xmlns="http://www.w3.org/2000/svg" width="136" height="22" viewBox="0 0 136 22"><defs><linearGradient id="crisp-grad" gradientUnits="userSpaceOnUse" x1="0" y1="0" x2="16161" y2="0"><stop offset="0%" stop-color="#0A78E8"/><stop offset="50%" stop-color="#0071E3"/><stop offset="100%" stop-color="#006ADD"/></linearGradient></defs><g fill="url(#crisp-grad)" transform="translate(6, 15) scale(0.007812, -0.007812)"><path d="M782 530H469V0H163V1474H805Q1027 1474 1159.0 1360.0Q1291 1246 1291 1007Q1291 746 1159.0 638.0Q1027 530 782 530ZM926 837Q986 890 986 1005Q986 1120 925.5 1169.0Q865 1218 756 1218H469V784H756Q865 784 926 837ZM2432 320Q2421 223 2331 123Q2191 -36 1939 -36Q1731 -36 1572.0 98.0Q1413 232 1413 534Q1413 817 1556.5 968.0Q1700 1119 1929 1119Q2065 1119 2174.0 1068.0Q2283 1017 2354 907Q2418 810 2437 682Q2448 607 2446 466H1700Q1706 302 1803 236Q1862 195 1945 195Q2033 195 2088 245Q2118 272 2141 320ZM2150 654Q2143 767 2081.5 825.5Q2020 884 1929 884Q1830 884 1775.5 822.0Q1721 760 1707 654ZM3137 203V-10L3002 -15Q2800 -22 2726 55Q2678 104 2678 206V877H2526V1080H2678V1384H2960V1080H3137V877H2960V301Q2960 234 2977.0 217.5Q2994 201 3081 201Q3094 201 3108.5 201.5Q3123 202 3137 203ZM4253 320Q4242 223 4152 123Q4012 -36 3760 -36Q3552 -36 3393.0 98.0Q3234 232 3234 534Q3234 817 3377.5 968.0Q3521 1119 3750 1119Q3886 1119 3995.0 1068.0Q4104 1017 4175 907Q4239 810 4258 682Q4269 607 4267 466H3521Q3527 302 3624 236Q3683 195 3766 195Q3854 195 3909 245Q3939 272 3962 320ZM3971 654Q3964 767 3902.5 825.5Q3841 884 3750 884Q3651 884 3596.5 822.0Q3542 760 3528 654ZM5586 213Q5695 213 5763 237Q5892 283 5892 408Q5892 481 5828 521Q5764 560 5627 590L5471 625Q5241 677 5153 738Q5004 840 5004 1057Q5004 1255 5148.0 1386.0Q5292 1517 5571 1517Q5804 1517 5968.5 1393.5Q6133 1270 6141 1035H5845Q5837 1168 5729 1224Q5657 1261 5550 1261Q5431 1261 5360.0 1213.0Q5289 1165 5289 1079Q5289 1000 5359 961Q5404 935 5551 900L5805 839Q5972 799 6057 732Q6189 628 6189 431Q6189 229 6034.5 95.5Q5880 -38 5598 -38Q5310 -38 5145.0 93.5Q4980 225 4980 455H5274Q5288 354 5329 304Q5404 213 5586 213ZM7394 0H7050L6789 466L6671 343V0H6391V1469H6671V675L7026 1085H7379L6998 668ZM8442 952Q8580 779 8580 543Q8580 303 8442.0 132.5Q8304 -38 8023 -38Q7742 -38 7604.0 132.5Q7466 303 7466 543Q7466 779 7604.0 952.0Q7742 1125 8023 1125Q8304 1125 8442 952ZM8022 884Q7897 884 7829.5 795.5Q7762 707 7762 543Q7762 379 7829.5 290.0Q7897 201 8022 201Q8147 201 8214.0 290.0Q8281 379 8281 543Q8281 707 8214.0 795.5Q8147 884 8022 884ZM9396 790Q9360 869 9255 869Q9133 869 9091 790Q9068 745 9068 656V0H8779V1088H9056V929Q9109 1014 9156 1050Q9239 1114 9371 1114Q9496 1114 9573 1059Q9635 1008 9667 928Q9723 1024 9806 1069Q9894 1114 10002 1114Q10074 1114 10144.0 1086.0Q10214 1058 10271 988Q10317 931 10333 848Q10343 793 10343 687L10341 0H10049V694Q10049 756 10029 796Q9991 872 9889 872Q9771 872 9726 774Q9703 722 9703 649V0H9416V649Q9416 746 9396 790ZM11514 952Q11652 779 11652 543Q11652 303 11514.0 132.5Q11376 -38 11095 -38Q10814 -38 10676.0 132.5Q10538 303 10538 543Q10538 779 10676.0 952.0Q10814 1125 11095 1125Q11376 1125 11514 952ZM11094 884Q10969 884 10901.5 795.5Q10834 707 10834 543Q10834 379 10901.5 290.0Q10969 201 11094 201Q11219 201 11286.0 290.0Q11353 379 11353 543Q11353 707 11286.0 795.5Q11219 884 11094 884ZM12404 827Q12232 827 12173 715Q12140 652 12140 521V0H11853V1090H12125V900Q12191 1009 12240 1049Q12320 1116 12448 1116Q12456 1116 12461.5 1115.5Q12467 1115 12486 1114V822Q12459 825 12438.0 826.0Q12417 827 12404 827ZM13562 952Q13700 779 13700 543Q13700 303 13562.0 132.5Q13424 -38 13143 -38Q12862 -38 12724.0 132.5Q12586 303 12586 543Q12586 779 12724.0 952.0Q12862 1125 13143 1125Q13424 1125 13562 952ZM13142 884Q13017 884 12949.5 795.5Q12882 707 12882 543Q12882 379 12949.5 290.0Q13017 201 13142 201Q13267 201 13334.0 290.0Q13401 379 13401 543Q13401 707 13334.0 795.5Q13267 884 13142 884ZM14847 699H14555Q14547 760 14514 809Q14466 875 14365 875Q14221 875 14168 732Q14140 656 14140 530Q14140 410 14168 337Q14219 201 14360 201Q14460 201 14502.0 255.0Q14544 309 14553 395H14844Q14834 265 14750 149Q14616 -38 14353 -38Q14090 -38 13966.0 118.0Q13842 274 13842 523Q13842 804 13979.0 960.0Q14116 1116 14357 1116Q14562 1116 14692.5 1024.0Q14823 932 14847 699ZM16028 640V0H15737V663Q15737 751 15707 805Q15668 881 15559 881Q15446 881 15387.5 805.5Q15329 730 15329 590V0H15045V1469H15329V948Q15391 1043 15472.5 1080.5Q15554 1118 15644 1118Q15745 1118 15827.5 1083.0Q15910 1048 15963 976Q16008 915 16018.0 850.5Q16028 786 16028 640Z"/></g></svg>
