<svg xmlns="http://www.w3.org/2000/svg" width="143" height="22" viewBox="0 0 143 22"><defs><linearGradient id="crisp-grad" gradientUnits="userSpaceOnUse" x1="0" y1="0" x2="17073" y2="0"><stop offset="0%" stop-color="#0A78E8"/><stop offset="50%" stop-color="#0071E3"/><stop offset="100%" stop-color="#006ADD"/></linearGradient></defs><g fill="url(#crisp-grad)" transform="translate(6, 15) scale(0.007812, -0.007812)"><path d="M782 530H469V0H163V1474H805Q1027 1474 1159.0 1360.0Q1291 1246 1291 1007Q1291 746 1159.0 638.0Q1027 530 782 530ZM926 837Q986 890 986 1005Q986 1120 925.5 1169.0Q865 1218 756 1218H469V784H756Q865 784 926 837ZM2432 320Q2421 223 2331 123Q2191 -36 1939 -36Q1731 -36 1572.0 98.0Q1413 232 1413 534Q1413 817 1556.5 968.0Q1700 1119 1929 1119Q2065 1119 2174.0 1068.0Q2283 1017 2354 907Q2418 810 2437 682Q2448 607 2446 466H1700Q1706 302 1803 236Q1862 195 1945 195Q2033 195 2088 245Q2118 272 2141 320ZM2150 654Q2143 767 2081.5 825.5Q2020 884 1929 884Q1830 884 1775.5 822.0Q1721 760 1707 654ZM3137 203V-10L3002 -15Q2800 -22 2726 55Q2678 104 2678 206V877H2526V1080H2678V1384H2960V1080H3137V877H2960V301Q2960 234 2977.0 217.5Q2994 201 3081 201Q3094 201 3108.5 201.5Q3123 202 3137 203ZM4253 320Q4242 223 4152 123Q4012 -36 3760 -36Q3552 -36 3393.0 98.0Q3234 232 3234 534Q3234 817 3377.5 968.0Q3521 1119 3750 1119Q3886 1119 3995.0 1068.0Q4104 1017 4175 907Q4239 810 4258 682Q4269 607 4267 466H3521Q3527 302 3624 236Q3683 195 3766 195Q3854 195 3909 245Q3939 272 3962 320ZM3971 654Q3964 767 3902.5 825.5Q3841 884 3750 884Q3651 884 3596.5 822.0Q3542 760 3528 654ZM5007 827Q4835 827 4776 715Q4743 652 4743 521V0H4456V1090H4728V900Q4794 1009 4843 1049Q4923 1116 5051 1116Q5059 1116 5064.5 1115.5Q5070 1115 5089 1114V822Q5062 825 5041.0 826.0Q5020 827 5007 827ZM6383 213Q6492 213 6560 237Q6689 283 6689 408Q6689 481 6625 521Q6561 560 6424 590L6268 625Q6038 677 5950 738Q5801 840 5801 1057Q5801 1255 5945.0 1386.0Q6089 1517 6368 1517Q6601 1517 6765.5 1393.5Q6930 1270 6938 1035H6642Q6634 1168 6526 1224Q6454 1261 6347 1261Q6228 1261 6157.0 1213.0Q6086 1165 6086 1079Q6086 1000 6156 961Q6201 935 6348 900L6602 839Q6769 799 6854 732Q6986 628 6986 431Q6986 229 6831.5 95.5Q6677 -38 6395 -38Q6107 -38 5942.0 93.5Q5777 225 5777 455H6071Q6085 354 6126 304Q6201 213 6383 213ZM7690 203V-10L7555 -15Q7353 -22 7279 55Q7231 104 7231 206V877H7079V1080H7231V1384H7513V1080H7690V877H7513V301Q7513 234 7530.0 217.5Q7547 201 7634 201Q7647 201 7661.5 201.5Q7676 202 7690 203ZM8806 320Q8795 223 8705 123Q8565 -36 8313 -36Q8105 -36 7946.0 98.0Q7787 232 7787 534Q7787 817 7930.5 968.0Q8074 1119 8303 1119Q8439 1119 8548.0 1068.0Q8657 1017 8728 907Q8792 810 8811 682Q8822 607 8820 466H8074Q8080 302 8177 236Q8236 195 8319 195Q8407 195 8462 245Q8492 272 8515 320ZM8524 654Q8517 767 8455.5 825.5Q8394 884 8303 884Q8204 884 8149.5 822.0Q8095 760 8081 654ZM9305 1090V0H9016V1090ZM9305 1483V1220H9016V1483ZM10094 879Q9949 879 9895 756Q9867 691 9867 590V0H9583V1088H9858V929Q9913 1013 9962 1050Q10050 1116 10185 1116Q10354 1116 10461.5 1027.5Q10569 939 10569 734V0H10277V663Q10277 749 10254 795Q10212 879 10094 879ZM11424 -29Q11289 -29 11207 25Q11158 57 11101 137V0H10822V1472H11106V948Q11160 1024 11225 1064Q11302 1114 11421 1114Q11636 1114 11757.5 959.0Q11879 804 11879 559Q11879 305 11759.0 138.0Q11639 -29 11424 -29ZM11580 529Q11580 645 11550 721Q11493 865 11340 865Q11185 865 11127 724Q11097 649 11097 530Q11097 390 11159.0 298.0Q11221 206 11348 206Q11458 206 11519.0 295.0Q11580 384 11580 529ZM13016 320Q13005 223 12915 123Q12775 -36 12523 -36Q12315 -36 12156.0 98.0Q11997 232 11997 534Q11997 817 12140.5 968.0Q12284 1119 12513 1119Q12649 1119 12758.0 1068.0Q12867 1017 12938 907Q13002 810 13021 682Q13032 607 13030 466H12284Q12290 302 12387 236Q12446 195 12529 195Q12617 195 12672 245Q12702 272 12725 320ZM12734 654Q12727 767 12665.5 825.5Q12604 884 12513 884Q12414 884 12359.5 822.0Q12305 760 12291 654ZM13770 827Q13598 827 13539 715Q13506 652 13506 521V0H13219V1090H13491V900Q13557 1009 13606 1049Q13686 1116 13814 1116Q13822 1116 13827.5 1115.5Q13833 1115 13852 1114V822Q13825 825 13804.0 826.0Q13783 827 13770 827ZM14327 -191Q14373 -230 14482 -230Q14636 -230 14688 -127Q14722 -61 14722 95V165Q14681 95 14634 60Q14549 -5 14413 -5Q14203 -5 14077.5 142.5Q13952 290 13952 542Q13952 785 14073.0 950.5Q14194 1116 14416 1116Q14498 1116 14559 1091Q14663 1048 14727 933V1090H15004V56Q15004 -155 14933 -262Q14811 -446 14465 -446Q14256 -446 14124.0 -364.0Q13992 -282 13978 -119H14288Q14300 -169 14327 -191ZM14279 372Q14337 234 14487 234Q14587 234 14656.0 309.5Q14725 385 14725 550Q14725 705 14659.5 786.0Q14594 867 14484 867Q14334 867 14277 726Q14247 651 14247 541Q14247 446 14279 372ZM16203 320Q16192 223 16102 123Q15962 -36 15710 -36Q15502 -36 15343.0 98.0Q15184 232 15184 534Q15184 817 15327.5 968.0Q15471 1119 15700 1119Q15836 1119 15945.0 1068.0Q16054 1017 16125 907Q16189 810 16208 682Q16219 607 16217 466H15471Q15477 302 15574 236Q15633 195 15716 195Q15804 195 15859 245Q15889 272 15912 320ZM15921 654Q15914 767 15852.5 825.5Q15791 884 15700 884Q15601 884 15546.5 822.0Q15492 760 15478 654ZM16957 827Q16785 827 16726 715Q16693 652 16693 521V0H16406V1090H16678V900Q16744 1009 16793 1049Q16873 1116 17001 1116Q17009 1116 17014.5 1115.5Q17020 1115 17039 1114V822Q17012 825 16991.0 826.0Q16970 827 16957 827Z"/></g></svg>
