<svg xmlns="http://www.w3.org/2000/svg" width="81" height="22" viewBox="0 0 81 22"><defs><linearGradient id="crisp-grad" gradientUnits="userSpaceOnUse" x1="0" y1="0" x2="9106" y2="0"><stop offset="0%" stop-color="#0A78E8"/><stop offset="50%" stop-color="#0071E3"/><stop offset="100%" stop-color="#006ADD"/></linearGradient></defs><g fill="url(#crisp-grad)" transform="translate(6, 15) scale(0.007812, -0.007812)"><path d="M782 530H469V0H163V1474H805Q1027 1474 1159.0 1360.0Q1291 1246 1291 1007Q1291 746 1159.0 638.0Q1027 530 782 530ZM926 837Q986 890 986 1005Q986 1120 925.5 1169.0Q865 1218 756 1218H469V784H756Q865 784 926 837ZM2408 952Q2546 779 2546 543Q2546 303 2408.0 132.5Q2270 -38 1989 -38Q1708 -38 1570.0 132.5Q1432 303 1432 543Q1432 779 1570.0 952.0Q1708 1125 1989 1125Q2270 1125 2408 952ZM1988 884Q1863 884 1795.5 795.5Q1728 707 1728 543Q1728 379 1795.5 290.0Q1863 201 1988 201Q2113 201 2180.0 290.0Q2247 379 2247 543Q2247 707 2180.0 795.5Q2113 884 1988 884ZM3742 1472V0H3465V151Q3404 54 3326.0 10.0Q3248 -34 3132 -34Q2941 -34 2810.5 120.5Q2680 275 2680 517Q2680 796 2808.5 956.0Q2937 1116 3152 1116Q3251 1116 3328.0 1072.5Q3405 1029 3453 952V1472ZM2974 538Q2974 387 3034 297Q3093 206 3214 206Q3335 206 3398.0 296.0Q3461 386 3461 529Q3461 729 3360 815Q3298 867 3216 867Q3091 867 3032.5 772.5Q2974 678 2974 538ZM4944 699H4652Q4644 760 4611 809Q4563 875 4462 875Q4318 875 4265 732Q4237 656 4237 530Q4237 410 4265 337Q4316 201 4457 201Q4557 201 4599.0 255.0Q4641 309 4650 395H4941Q4931 265 4847 149Q4713 -38 4450 -38Q4187 -38 4063.0 118.0Q3939 274 3939 523Q3939 804 4076.0 960.0Q4213 1116 4454 1116Q4659 1116 4789.5 1024.0Q4920 932 4944 699ZM5181 972Q5294 1116 5569 1116Q5748 1116 5887 1045Q6026 974 6026 777V277Q6026 225 6028 151Q6031 95 6045.0 75.0Q6059 55 6087 42V0H5777Q5764 33 5759.0 62.0Q5754 91 5751 128Q5692 64 5615 19Q5523 -34 5407 -34Q5259 -34 5162.5 50.5Q5066 135 5066 290Q5066 491 5221 581Q5306 630 5471 651L5568 663Q5647 673 5681 688Q5742 714 5742 769Q5742 836 5695.5 861.5Q5649 887 5559 887Q5458 887 5416 837Q5386 800 5376 737H5101Q5110 880 5181 972ZM5393 206Q5433 173 5491 173Q5583 173 5660.5 227.0Q5738 281 5741 424V530Q5714 513 5686.5 502.5Q5659 492 5611 483L5547 471Q5457 455 5418 432Q5352 393 5352 311Q5352 238 5393 206ZM7030 1040Q7158 958 7177 758H6892Q6886 813 6861 845Q6814 903 6701 903Q6608 903 6568.5 874.0Q6529 845 6529 806Q6529 757 6571 735Q6613 712 6868 656Q7038 616 7123 535Q7207 453 7207 330Q7207 168 7086.5 65.5Q6966 -37 6714 -37Q6457 -37 6334.5 71.5Q6212 180 6212 348H6501Q6510 272 6540 240Q6593 183 6736 183Q6820 183 6869.5 208.0Q6919 233 6919 283Q6919 331 6879 356Q6839 381 6582 442Q6397 488 6321 557Q6245 625 6245 753Q6245 904 6363.5 1012.5Q6482 1121 6697 1121Q6901 1121 7030 1040ZM7917 203V-10L7782 -15Q7580 -22 7506 55Q7458 104 7458 206V877H7306V1080H7458V1384H7740V1080H7917V877H7740V301Q7740 234 7757.0 217.5Q7774 201 7861 201Q7874 201 7888.5 201.5Q7903 202 7917 203ZM8851 1040Q8979 958 8998 758H8713Q8707 813 8682 845Q8635 903 8522 903Q8429 903 8389.5 874.0Q8350 845 8350 806Q8350 757 8392 735Q8434 712 8689 656Q8859 616 8944 535Q9028 453 9028 330Q9028 168 8907.5 65.5Q8787 -37 8535 -37Q8278 -37 8155.5 71.5Q8033 180 8033 348H8322Q8331 272 8361 240Q8414 183 8557 183Q8641 183 8690.5 208.0Q8740 233 8740 283Q8740 331 8700 356Q8660 381 8403 442Q8218 488 8142 557Q8066 625 8066 753Q8066 904 8184.5 1012.5Q8303 1121 8518 1121Q8722 1121 8851 1040Z"/></g></svg>
