<svg xmlns="http://www.w3.org/2000/svg" width="97" height="22" viewBox="0 0 97 22"><defs><linearGradient id="crisp-grad" gradientUnits="userSpaceOnUse" x1="0" y1="0" x2="11156" y2="0"><stop offset="0%" stop-color="#0A78E8"/><stop offset="50%" stop-color="#0071E3"/><stop offset="100%" stop-color="#006ADD"/></linearGradient></defs><g fill="url(#crisp-grad)" transform="translate(6, 15) scale(0.007812, -0.007812)"><path d="M782 530H469V0H163V1474H805Q1027 1474 1159.0 1360.0Q1291 1246 1291 1007Q1291 746 1159.0 638.0Q1027 530 782 530ZM926 837Q986 890 986 1005Q986 1120 925.5 1169.0Q865 1218 756 1218H469V784H756Q865 784 926 837ZM2047 827Q1875 827 1816 715Q1783 652 1783 521V0H1496V1090H1768V900Q1834 1009 1883 1049Q1963 1116 2091 1116Q2099 1116 2104.5 1115.5Q2110 1115 2129 1114V822Q2102 825 2081.0 826.0Q2060 827 2047 827ZM2337 972Q2450 1116 2725 1116Q2904 1116 3043 1045Q3182 974 3182 777V277Q3182 225 3184 151Q3187 95 3201.0 75.0Q3215 55 3243 42V0H2933Q2920 33 2915.0 62.0Q2910 91 2907 128Q2848 64 2771 19Q2679 -34 2563 -34Q2415 -34 2318.5 50.5Q2222 135 2222 290Q2222 491 2377 581Q2462 630 2627 651L2724 663Q2803 673 2837 688Q2898 714 2898 769Q2898 836 2851.5 861.5Q2805 887 2715 887Q2614 887 2572 837Q2542 800 2532 737H2257Q2266 880 2337 972ZM2549 206Q2589 173 2647 173Q2739 173 2816.5 227.0Q2894 281 2897 424V530Q2870 513 2842.5 502.5Q2815 492 2767 483L2703 471Q2613 455 2574 432Q2508 393 2508 311Q2508 238 2549 206ZM4378 699H4086Q4078 760 4045 809Q3997 875 3896 875Q3752 875 3699 732Q3671 656 3671 530Q3671 410 3699 337Q3750 201 3891 201Q3991 201 4033.0 255.0Q4075 309 4084 395H4375Q4365 265 4281 149Q4147 -38 3884 -38Q3621 -38 3497.0 118.0Q3373 274 3373 523Q3373 804 3510.0 960.0Q3647 1116 3888 1116Q4093 1116 4223.5 1024.0Q4354 932 4378 699ZM5073 203V-10L4938 -15Q4736 -22 4662 55Q4614 104 4614 206V877H4462V1080H4614V1384H4896V1080H5073V877H4896V301Q4896 234 4913.0 217.5Q4930 201 5017 201Q5030 201 5044.5 201.5Q5059 202 5073 203ZM5549 1090V0H5260V1090ZM5549 1483V1220H5260V1483ZM6768 699H6476Q6468 760 6435 809Q6387 875 6286 875Q6142 875 6089 732Q6061 656 6061 530Q6061 410 6089 337Q6140 201 6281 201Q6381 201 6423.0 255.0Q6465 309 6474 395H6765Q6755 265 6671 149Q6537 -38 6274 -38Q6011 -38 5887.0 118.0Q5763 274 5763 523Q5763 804 5900.0 960.0Q6037 1116 6278 1116Q6483 1116 6613.5 1024.0Q6744 932 6768 699ZM7005 972Q7118 1116 7393 1116Q7572 1116 7711 1045Q7850 974 7850 777V277Q7850 225 7852 151Q7855 95 7869.0 75.0Q7883 55 7911 42V0H7601Q7588 33 7583.0 62.0Q7578 91 7575 128Q7516 64 7439 19Q7347 -34 7231 -34Q7083 -34 6986.5 50.5Q6890 135 6890 290Q6890 491 7045 581Q7130 630 7295 651L7392 663Q7471 673 7505 688Q7566 714 7566 769Q7566 836 7519.5 861.5Q7473 887 7383 887Q7282 887 7240 837Q7210 800 7200 737H6925Q6934 880 7005 972ZM7217 206Q7257 173 7315 173Q7407 173 7484.5 227.0Q7562 281 7565 424V530Q7538 513 7510.5 502.5Q7483 492 7435 483L7371 471Q7281 455 7242 432Q7176 393 7176 311Q7176 238 7217 206ZM8109 1474H8394V0H8109ZM10127 303H9584L9482 0H9160L9686 1474H10034L10556 0H10222ZM10041 557 9857 1137 9667 557ZM10719 1474H11025V0H10719Z"/></g></svg>
