<svg xmlns="http://www.w3.org/2000/svg" width="142" height="22" viewBox="0 0 142 22"><defs><linearGradient id="crisp-grad" gradientUnits="userSpaceOnUse" x1="0" y1="0" x2="16838" y2="0"><stop offset="0%" stop-color="#0A78E8"/><stop offset="50%" stop-color="#0071E3"/><stop offset="100%" stop-color="#006ADD"/></linearGradient></defs><g fill="url(#crisp-grad)" transform="translate(6, 15) scale(0.007812, -0.007812)"><path d="M782 530H469V0H163V1474H805Q1027 1474 1159.0 1360.0Q1291 1246 1291 1007Q1291 746 1159.0 638.0Q1027 530 782 530ZM926 837Q986 890 986 1005Q986 1120 925.5 1169.0Q865 1218 756 1218H469V784H756Q865 784 926 837ZM2047 827Q1875 827 1816 715Q1783 652 1783 521V0H1496V1090H1768V900Q1834 1009 1883 1049Q1963 1116 2091 1116Q2099 1116 2104.5 1115.5Q2110 1115 2129 1114V822Q2102 825 2081.0 826.0Q2060 827 2047 827ZM3205 952Q3343 779 3343 543Q3343 303 3205.0 132.5Q3067 -38 2786 -38Q2505 -38 2367.0 132.5Q2229 303 2229 543Q2229 779 2367.0 952.0Q2505 1125 2786 1125Q3067 1125 3205 952ZM2785 884Q2660 884 2592.5 795.5Q2525 707 2525 543Q2525 379 2592.5 290.0Q2660 201 2785 201Q2910 201 2977.0 290.0Q3044 379 3044 543Q3044 707 2977.0 795.5Q2910 884 2785 884ZM4539 1472V0H4262V151Q4201 54 4123.0 10.0Q4045 -34 3929 -34Q3738 -34 3607.5 120.5Q3477 275 3477 517Q3477 796 3605.5 956.0Q3734 1116 3949 1116Q4048 1116 4125.0 1072.5Q4202 1029 4250 952V1472ZM3771 538Q3771 387 3831 297Q3890 206 4011 206Q4132 206 4195.0 296.0Q4258 386 4258 529Q4258 729 4157 815Q4095 867 4013 867Q3888 867 3829.5 772.5Q3771 678 3771 538ZM5497 154Q5493 149 5477.0 124.0Q5461 99 5439 80Q5372 20 5309.5 -2.0Q5247 -24 5163 -24Q4921 -24 4837 150Q4790 246 4790 433V1090H5082V433Q5082 340 5104 293Q5143 210 5257 210Q5403 210 5457 328Q5485 392 5485 497V1090H5774V0H5497ZM6992 699H6700Q6692 760 6659 809Q6611 875 6510 875Q6366 875 6313 732Q6285 656 6285 530Q6285 410 6313 337Q6364 201 6505 201Q6605 201 6647.0 255.0Q6689 309 6698 395H6989Q6979 265 6895 149Q6761 -38 6498 -38Q6235 -38 6111.0 118.0Q5987 274 5987 523Q5987 804 6124.0 960.0Q6261 1116 6502 1116Q6707 1116 6837.5 1024.0Q6968 932 6992 699ZM7687 203V-10L7552 -15Q7350 -22 7276 55Q7228 104 7228 206V877H7076V1080H7228V1384H7510V1080H7687V877H7510V301Q7510 234 7527.0 217.5Q7544 201 7631 201Q7644 201 7658.5 201.5Q7673 202 7687 203ZM9533 1474V1213H9092V0H8782V1213H8339V1474ZM10675 640V0H10384V663Q10384 751 10354 805Q10315 881 10206 881Q10093 881 10034.5 805.5Q9976 730 9976 590V0H9692V1469H9976V948Q10038 1043 10119.5 1080.5Q10201 1118 10291 1118Q10392 1118 10474.5 1083.0Q10557 1048 10610 976Q10655 915 10665.0 850.5Q10675 786 10675 640ZM11234 1090V0H10945V1090ZM11234 1483V1220H10945V1483ZM12023 879Q11878 879 11824 756Q11796 691 11796 590V0H11512V1088H11787V929Q11842 1013 11891 1050Q11979 1116 12114 1116Q12283 1116 12390.5 1027.5Q12498 939 12498 734V0H12206V663Q12206 749 12183 795Q12141 879 12023 879ZM13761 0H13417L13156 466L13038 343V0H12758V1469H13038V675L13393 1085H13746L13365 668ZM14193 1090V0H13904V1090ZM14193 1483V1220H13904V1483ZM14982 879Q14837 879 14783 756Q14755 691 14755 590V0H14471V1088H14746V929Q14801 1013 14850 1050Q14938 1116 15073 1116Q15242 1116 15349.5 1027.5Q15457 939 15457 734V0H15165V663Q15165 749 15142 795Q15100 879 14982 879ZM16028 -191Q16074 -230 16183 -230Q16337 -230 16389 -127Q16423 -61 16423 95V165Q16382 95 16335 60Q16250 -5 16114 -5Q15904 -5 15778.5 142.5Q15653 290 15653 542Q15653 785 15774.0 950.5Q15895 1116 16117 1116Q16199 1116 16260 1091Q16364 1048 16428 933V1090H16705V56Q16705 -155 16634 -262Q16512 -446 16166 -446Q15957 -446 15825.0 -364.0Q15693 -282 15679 -119H15989Q16001 -169 16028 -191ZM15980 372Q16038 234 16188 234Q16288 234 16357.0 309.5Q16426 385 16426 550Q16426 705 16360.5 786.0Q16295 867 16185 867Q16035 867 15978 726Q15948 651 15948 541Q15948 446 15980 372Z"/></g></svg>
