<svg xmlns="http://www.w3.org/2000/svg" width="115" height="22" viewBox="0 0 115 22"><defs><linearGradient id="crisp-grad" gradientUnits="userSpaceOnUse" x1="0" y1="0" x2="13426" y2="0"><stop offset="0%" stop-color="#0A78E8"/><stop offset="50%" stop-color="#0071E3"/><stop offset="100%" stop-color="#006ADD"/></linearGradient></defs><g fill="url(#crisp-grad)" transform="translate(6, 15) scale(0.007812, -0.007812)"><path d="M782 530H469V0H163V1474H805Q1027 1474 1159.0 1360.0Q1291 1246 1291 1007Q1291 746 1159.0 638.0Q1027 530 782 530ZM926 837Q986 890 986 1005Q986 1120 925.5 1169.0Q865 1218 756 1218H469V784H756Q865 784 926 837ZM2047 827Q1875 827 1816 715Q1783 652 1783 521V0H1496V1090H1768V900Q1834 1009 1883 1049Q1963 1116 2091 1116Q2099 1116 2104.5 1115.5Q2110 1115 2129 1114V822Q2102 825 2081.0 826.0Q2060 827 2047 827ZM3205 952Q3343 779 3343 543Q3343 303 3205.0 132.5Q3067 -38 2786 -38Q2505 -38 2367.0 132.5Q2229 303 2229 543Q2229 779 2367.0 952.0Q2505 1125 2786 1125Q3067 1125 3205 952ZM2785 884Q2660 884 2592.5 795.5Q2525 707 2525 543Q2525 379 2592.5 290.0Q2660 201 2785 201Q2910 201 2977.0 290.0Q3044 379 3044 543Q3044 707 2977.0 795.5Q2910 884 2785 884ZM4539 1472V0H4262V151Q4201 54 4123.0 10.0Q4045 -34 3929 -34Q3738 -34 3607.5 120.5Q3477 275 3477 517Q3477 796 3605.5 956.0Q3734 1116 3949 1116Q4048 1116 4125.0 1072.5Q4202 1029 4250 952V1472ZM3771 538Q3771 387 3831 297Q3890 206 4011 206Q4132 206 4195.0 296.0Q4258 386 4258 529Q4258 729 4157 815Q4095 867 4013 867Q3888 867 3829.5 772.5Q3771 678 3771 538ZM5497 154Q5493 149 5477.0 124.0Q5461 99 5439 80Q5372 20 5309.5 -2.0Q5247 -24 5163 -24Q4921 -24 4837 150Q4790 246 4790 433V1090H5082V433Q5082 340 5104 293Q5143 210 5257 210Q5403 210 5457 328Q5485 392 5485 497V1090H5774V0H5497ZM6992 699H6700Q6692 760 6659 809Q6611 875 6510 875Q6366 875 6313 732Q6285 656 6285 530Q6285 410 6313 337Q6364 201 6505 201Q6605 201 6647.0 255.0Q6689 309 6698 395H6989Q6979 265 6895 149Q6761 -38 6498 -38Q6235 -38 6111.0 118.0Q5987 274 5987 523Q5987 804 6124.0 960.0Q6261 1116 6502 1116Q6707 1116 6837.5 1024.0Q6968 932 6992 699ZM7687 203V-10L7552 -15Q7350 -22 7276 55Q7228 104 7228 206V877H7076V1080H7228V1384H7510V1080H7687V877H7510V301Q7510 234 7527.0 217.5Q7544 201 7631 201Q7644 201 7658.5 201.5Q7673 202 7687 203ZM8462 -29Q8327 -29 8245 25Q8196 57 8139 137V0H7860V1472H8144V948Q8198 1024 8263 1064Q8340 1114 8459 1114Q8674 1114 8795.5 959.0Q8917 804 8917 559Q8917 305 8797.0 138.0Q8677 -29 8462 -29ZM8618 529Q8618 645 8588 721Q8531 865 8378 865Q8223 865 8165 724Q8135 649 8135 530Q8135 390 8197.0 298.0Q8259 206 8386 206Q8496 206 8557.0 295.0Q8618 384 8618 529ZM10030 952Q10168 779 10168 543Q10168 303 10030.0 132.5Q9892 -38 9611 -38Q9330 -38 9192.0 132.5Q9054 303 9054 543Q9054 779 9192.0 952.0Q9330 1125 9611 1125Q9892 1125 10030 952ZM9610 884Q9485 884 9417.5 795.5Q9350 707 9350 543Q9350 379 9417.5 290.0Q9485 201 9610 201Q9735 201 9802.0 290.0Q9869 379 9869 543Q9869 707 9802.0 795.5Q9735 884 9610 884ZM10413 972Q10526 1116 10801 1116Q10980 1116 11119 1045Q11258 974 11258 777V277Q11258 225 11260 151Q11263 95 11277.0 75.0Q11291 55 11319 42V0H11009Q10996 33 10991.0 62.0Q10986 91 10983 128Q10924 64 10847 19Q10755 -34 10639 -34Q10491 -34 10394.5 50.5Q10298 135 10298 290Q10298 491 10453 581Q10538 630 10703 651L10800 663Q10879 673 10913 688Q10974 714 10974 769Q10974 836 10927.5 861.5Q10881 887 10791 887Q10690 887 10648 837Q10618 800 10608 737H10333Q10342 880 10413 972ZM10625 206Q10665 173 10723 173Q10815 173 10892.5 227.0Q10970 281 10973 424V530Q10946 513 10918.5 502.5Q10891 492 10843 483L10779 471Q10689 455 10650 432Q10584 393 10584 311Q10584 238 10625 206ZM12059 827Q11887 827 11828 715Q11795 652 11795 521V0H11508V1090H11780V900Q11846 1009 11895 1049Q11975 1116 12103 1116Q12111 1116 12116.5 1115.5Q12122 1115 12141 1114V822Q12114 825 12093.0 826.0Q12072 827 12059 827ZM13300 1472V0H13023V151Q12962 54 12884.0 10.0Q12806 -34 12690 -34Q12499 -34 12368.5 120.5Q12238 275 12238 517Q12238 796 12366.5 956.0Q12495 1116 12710 1116Q12809 1116 12886.0 1072.5Q12963 1029 13011 952V1472ZM12532 538Q12532 387 12592 297Q12651 206 12772 206Q12893 206 12956.0 296.0Q13019 386 13019 529Q13019 729 12918 815Q12856 867 12774 867Q12649 867 12590.5 772.5Q12532 678 12532 538Z"/></g></svg>
