<svg xmlns="http://www.w3.org/2000/svg" width="128" height="22" viewBox="0 0 128 22"><defs><linearGradient id="crisp-grad" gradientUnits="userSpaceOnUse" x1="0" y1="0" x2="15133" y2="0"><stop offset="0%" stop-color="#0A78E8"/><stop offset="50%" stop-color="#0071E3"/><stop offset="100%" stop-color="#006ADD"/></linearGradient></defs><g fill="url(#crisp-grad)" transform="translate(6, 15) scale(0.007812, -0.007812)"><path d="M782 530H469V0H163V1474H805Q1027 1474 1159.0 1360.0Q1291 1246 1291 1007Q1291 746 1159.0 638.0Q1027 530 782 530ZM926 837Q986 890 986 1005Q986 1120 925.5 1169.0Q865 1218 756 1218H469V784H756Q865 784 926 837ZM2047 827Q1875 827 1816 715Q1783 652 1783 521V0H1496V1090H1768V900Q1834 1009 1883 1049Q1963 1116 2091 1116Q2099 1116 2104.5 1115.5Q2110 1115 2129 1114V822Q2102 825 2081.0 826.0Q2060 827 2047 827ZM3205 952Q3343 779 3343 543Q3343 303 3205.0 132.5Q3067 -38 2786 -38Q2505 -38 2367.0 132.5Q2229 303 2229 543Q2229 779 2367.0 952.0Q2505 1125 2786 1125Q3067 1125 3205 952ZM2785 884Q2660 884 2592.5 795.5Q2525 707 2525 543Q2525 379 2592.5 290.0Q2660 201 2785 201Q2910 201 2977.0 290.0Q3044 379 3044 543Q3044 707 2977.0 795.5Q2910 884 2785 884ZM4539 1472V0H4262V151Q4201 54 4123.0 10.0Q4045 -34 3929 -34Q3738 -34 3607.5 120.5Q3477 275 3477 517Q3477 796 3605.5 956.0Q3734 1116 3949 1116Q4048 1116 4125.0 1072.5Q4202 1029 4250 952V1472ZM3771 538Q3771 387 3831 297Q3890 206 4011 206Q4132 206 4195.0 296.0Q4258 386 4258 529Q4258 729 4157 815Q4095 867 4013 867Q3888 867 3829.5 772.5Q3771 678 3771 538ZM5497 154Q5493 149 5477.0 124.0Q5461 99 5439 80Q5372 20 5309.5 -2.0Q5247 -24 5163 -24Q4921 -24 4837 150Q4790 246 4790 433V1090H5082V433Q5082 340 5104 293Q5143 210 5257 210Q5403 210 5457 328Q5485 392 5485 497V1090H5774V0H5497ZM6992 699H6700Q6692 760 6659 809Q6611 875 6510 875Q6366 875 6313 732Q6285 656 6285 530Q6285 410 6313 337Q6364 201 6505 201Q6605 201 6647.0 255.0Q6689 309 6698 395H6989Q6979 265 6895 149Q6761 -38 6498 -38Q6235 -38 6111.0 118.0Q5987 274 5987 523Q5987 804 6124.0 960.0Q6261 1116 6502 1116Q6707 1116 6837.5 1024.0Q6968 932 6992 699ZM7687 203V-10L7552 -15Q7350 -22 7276 55Q7228 104 7228 206V877H7076V1080H7228V1384H7510V1080H7687V877H7510V301Q7510 234 7527.0 217.5Q7544 201 7631 201Q7644 201 7658.5 201.5Q7673 202 7687 203ZM8997 213Q9106 213 9174 237Q9303 283 9303 408Q9303 481 9239 521Q9175 560 9038 590L8882 625Q8652 677 8564 738Q8415 840 8415 1057Q8415 1255 8559.0 1386.0Q8703 1517 8982 1517Q9215 1517 9379.5 1393.5Q9544 1270 9552 1035H9256Q9248 1168 9140 1224Q9068 1261 8961 1261Q8842 1261 8771.0 1213.0Q8700 1165 8700 1079Q8700 1000 8770 961Q8815 935 8962 900L9216 839Q9383 799 9468 732Q9600 628 9600 431Q9600 229 9445.5 95.5Q9291 -38 9009 -38Q8721 -38 8556.0 93.5Q8391 225 8391 455H8685Q8699 354 8740 304Q8815 213 8997 213ZM10748 699H10456Q10448 760 10415 809Q10367 875 10266 875Q10122 875 10069 732Q10041 656 10041 530Q10041 410 10069 337Q10120 201 10261 201Q10361 201 10403.0 255.0Q10445 309 10454 395H10745Q10735 265 10651 149Q10517 -38 10254 -38Q9991 -38 9867.0 118.0Q9743 274 9743 523Q9743 804 9880.0 960.0Q10017 1116 10258 1116Q10463 1116 10593.5 1024.0Q10724 932 10748 699ZM11929 640V0H11638V663Q11638 751 11608 805Q11569 881 11460 881Q11347 881 11288.5 805.5Q11230 730 11230 590V0H10946V1469H11230V948Q11292 1043 11373.5 1080.5Q11455 1118 11545 1118Q11646 1118 11728.5 1083.0Q11811 1048 11864 976Q11909 915 11919.0 850.5Q11929 786 11929 640ZM13104 952Q13242 779 13242 543Q13242 303 13104.0 132.5Q12966 -38 12685 -38Q12404 -38 12266.0 132.5Q12128 303 12128 543Q12128 779 12266.0 952.0Q12404 1125 12685 1125Q12966 1125 13104 952ZM12684 884Q12559 884 12491.5 795.5Q12424 707 12424 543Q12424 379 12491.5 290.0Q12559 201 12684 201Q12809 201 12876.0 290.0Q12943 379 12943 543Q12943 707 12876.0 795.5Q12809 884 12684 884ZM14355 952Q14493 779 14493 543Q14493 303 14355.0 132.5Q14217 -38 13936 -38Q13655 -38 13517.0 132.5Q13379 303 13379 543Q13379 779 13517.0 952.0Q13655 1125 13936 1125Q14217 1125 14355 952ZM13935 884Q13810 884 13742.5 795.5Q13675 707 13675 543Q13675 379 13742.5 290.0Q13810 201 13935 201Q14060 201 14127.0 290.0Q14194 379 14194 543Q14194 707 14127.0 795.5Q14060 884 13935 884ZM14703 1474H14988V0H14703Z"/></g></svg>
