<svg xmlns="http://www.w3.org/2000/svg" width="70" height="22" viewBox="0 0 70 22"><defs><linearGradient id="crisp-grad" gradientUnits="userSpaceOnUse" x1="0" y1="0" x2="7738" y2="0"><stop offset="0%" stop-color="#0A78E8"/><stop offset="50%" stop-color="#0071E3"/><stop offset="100%" stop-color="#006ADD"/></linearGradient></defs><g fill="url(#crisp-grad)" transform="translate(6, 15) scale(0.007812, -0.007812)"><path d="M782 578H464V0H163V1474H886Q1041 1471 1124.5 1436.0Q1208 1401 1266 1333Q1314 1277 1342.0 1209.0Q1370 1141 1370 1054Q1370 949 1317.0 847.5Q1264 746 1142 704Q1244 663 1286.5 587.5Q1329 512 1329 357V258Q1329 157 1337 121Q1349 64 1393 37V0H1054Q1040 49 1034 79Q1022 141 1021 206L1019 343Q1017 484 967.5 531.0Q918 578 782 578ZM969 846Q1061 888 1061 1012Q1061 1146 972 1192Q922 1218 822 1218H464V822H813Q917 822 969 846ZM2545 320Q2534 223 2444 123Q2304 -36 2052 -36Q1844 -36 1685.0 98.0Q1526 232 1526 534Q1526 817 1669.5 968.0Q1813 1119 2042 1119Q2178 1119 2287.0 1068.0Q2396 1017 2467 907Q2531 810 2550 682Q2561 607 2559 466H1813Q1819 302 1916 236Q1975 195 2058 195Q2146 195 2201 245Q2231 272 2254 320ZM2263 654Q2256 767 2194.5 825.5Q2133 884 2042 884Q1943 884 1888.5 822.0Q1834 760 1820 654ZM3262 1483V1251Q3238 1254 3181.5 1255.5Q3125 1257 3103.5 1230.5Q3082 1204 3082 1172V1080H3269V879H3082V0H2798V879H2639V1080H2795V1150Q2795 1325 2854 1391Q2916 1489 3153 1489Q3180 1489 3202.0 1487.5Q3224 1486 3262 1483ZM4342 952Q4480 779 4480 543Q4480 303 4342.0 132.5Q4204 -38 3923 -38Q3642 -38 3504.0 132.5Q3366 303 3366 543Q3366 779 3504.0 952.0Q3642 1125 3923 1125Q4204 1125 4342 952ZM3922 884Q3797 884 3729.5 795.5Q3662 707 3662 543Q3662 379 3729.5 290.0Q3797 201 3922 201Q4047 201 4114.0 290.0Q4181 379 4181 543Q4181 707 4114.0 795.5Q4047 884 3922 884ZM5232 827Q5060 827 5001 715Q4968 652 4968 521V0H4681V1090H4953V900Q5019 1009 5068 1049Q5148 1116 5276 1116Q5284 1116 5289.5 1115.5Q5295 1115 5314 1114V822Q5287 825 5266.0 826.0Q5245 827 5232 827ZM5789 -191Q5835 -230 5944 -230Q6098 -230 6150 -127Q6184 -61 6184 95V165Q6143 95 6096 60Q6011 -5 5875 -5Q5665 -5 5539.5 142.5Q5414 290 5414 542Q5414 785 5535.0 950.5Q5656 1116 5878 1116Q5960 1116 6021 1091Q6125 1048 6189 933V1090H6466V56Q6466 -155 6395 -262Q6273 -446 5927 -446Q5718 -446 5586.0 -364.0Q5454 -282 5440 -119H5750Q5762 -169 5789 -191ZM5741 372Q5799 234 5949 234Q6049 234 6118.0 309.5Q6187 385 6187 550Q6187 705 6121.5 786.0Q6056 867 5946 867Q5796 867 5739 726Q5709 651 5709 541Q5709 446 5741 372ZM7665 320Q7654 223 7564 123Q7424 -36 7172 -36Q6964 -36 6805.0 98.0Q6646 232 6646 534Q6646 817 6789.5 968.0Q6933 1119 7162 1119Q7298 1119 7407.0 1068.0Q7516 1017 7587 907Q7651 810 7670 682Q7681 607 7679 466H6933Q6939 302 7036 236Q7095 195 7178 195Q7266 195 7321 245Q7351 272 7374 320ZM7383 654Q7376 767 7314.5 825.5Q7253 884 7162 884Q7063 884 7008.5 822.0Q6954 760 6940 654Z"/></g></svg>
