<svg xmlns="http://www.w3.org/2000/svg" width="163" height="22" viewBox="0 0 163 22"><defs><linearGradient id="crisp-grad" gradientUnits="userSpaceOnUse" x1="0" y1="0" x2="19577" y2="0"><stop offset="0%" stop-color="#0A78E8"/><stop offset="50%" stop-color="#0071E3"/><stop offset="100%" stop-color="#006ADD"/></linearGradient></defs><g fill="url(#crisp-grad)" transform="translate(6, 15) scale(0.007812, -0.007812)"><path d="M782 578H464V0H163V1474H886Q1041 1471 1124.5 1436.0Q1208 1401 1266 1333Q1314 1277 1342.0 1209.0Q1370 1141 1370 1054Q1370 949 1317.0 847.5Q1264 746 1142 704Q1244 663 1286.5 587.5Q1329 512 1329 357V258Q1329 157 1337 121Q1349 64 1393 37V0H1054Q1040 49 1034 79Q1022 141 1021 206L1019 343Q1017 484 967.5 531.0Q918 578 782 578ZM969 846Q1061 888 1061 1012Q1061 1146 972 1192Q922 1218 822 1218H464V822H813Q917 822 969 846ZM2545 320Q2534 223 2444 123Q2304 -36 2052 -36Q1844 -36 1685.0 98.0Q1526 232 1526 534Q1526 817 1669.5 968.0Q1813 1119 2042 1119Q2178 1119 2287.0 1068.0Q2396 1017 2467 907Q2531 810 2550 682Q2561 607 2559 466H1813Q1819 302 1916 236Q1975 195 2058 195Q2146 195 2201 245Q2231 272 2254 320ZM2263 654Q2256 767 2194.5 825.5Q2133 884 2042 884Q1943 884 1888.5 822.0Q1834 760 1820 654ZM3502 1040Q3630 958 3649 758H3364Q3358 813 3333 845Q3286 903 3173 903Q3080 903 3040.5 874.0Q3001 845 3001 806Q3001 757 3043 735Q3085 712 3340 656Q3510 616 3595 535Q3679 453 3679 330Q3679 168 3558.5 65.5Q3438 -37 3186 -37Q2929 -37 2806.5 71.5Q2684 180 2684 348H2973Q2982 272 3012 240Q3065 183 3208 183Q3292 183 3341.5 208.0Q3391 233 3391 283Q3391 331 3351 356Q3311 381 3054 442Q2869 488 2793 557Q2717 625 2717 753Q2717 904 2835.5 1012.5Q2954 1121 3169 1121Q3373 1121 3502 1040ZM4823 320Q4812 223 4722 123Q4582 -36 4330 -36Q4122 -36 3963.0 98.0Q3804 232 3804 534Q3804 817 3947.5 968.0Q4091 1119 4320 1119Q4456 1119 4565.0 1068.0Q4674 1017 4745 907Q4809 810 4828 682Q4839 607 4837 466H4091Q4097 302 4194 236Q4253 195 4336 195Q4424 195 4479 245Q4509 272 4532 320ZM4541 654Q4534 767 4472.5 825.5Q4411 884 4320 884Q4221 884 4166.5 822.0Q4112 760 4098 654ZM5070 972Q5183 1116 5458 1116Q5637 1116 5776 1045Q5915 974 5915 777V277Q5915 225 5917 151Q5920 95 5934.0 75.0Q5948 55 5976 42V0H5666Q5653 33 5648.0 62.0Q5643 91 5640 128Q5581 64 5504 19Q5412 -34 5296 -34Q5148 -34 5051.5 50.5Q4955 135 4955 290Q4955 491 5110 581Q5195 630 5360 651L5457 663Q5536 673 5570 688Q5631 714 5631 769Q5631 836 5584.5 861.5Q5538 887 5448 887Q5347 887 5305 837Q5275 800 5265 737H4990Q4999 880 5070 972ZM5282 206Q5322 173 5380 173Q5472 173 5549.5 227.0Q5627 281 5630 424V530Q5603 513 5575.5 502.5Q5548 492 5500 483L5436 471Q5346 455 5307 432Q5241 393 5241 311Q5241 238 5282 206ZM6716 827Q6544 827 6485 715Q6452 652 6452 521V0H6165V1090H6437V900Q6503 1009 6552 1049Q6632 1116 6760 1116Q6768 1116 6773.5 1115.5Q6779 1115 6798 1114V822Q6771 825 6750.0 826.0Q6729 827 6716 827ZM7908 699H7616Q7608 760 7575 809Q7527 875 7426 875Q7282 875 7229 732Q7201 656 7201 530Q7201 410 7229 337Q7280 201 7421 201Q7521 201 7563.0 255.0Q7605 309 7614 395H7905Q7895 265 7811 149Q7677 -38 7414 -38Q7151 -38 7027.0 118.0Q6903 274 6903 523Q6903 804 7040.0 960.0Q7177 1116 7418 1116Q7623 1116 7753.5 1024.0Q7884 932 7908 699ZM9089 640V0H8798V663Q8798 751 8768 805Q8729 881 8620 881Q8507 881 8448.5 805.5Q8390 730 8390 590V0H8106V1469H8390V948Q8452 1043 8533.5 1080.5Q8615 1118 8705 1118Q8806 1118 8888.5 1083.0Q8971 1048 9024 976Q9069 915 9079.0 850.5Q9089 786 9089 640ZM10378 -36Q10154 -36 10028.0 96.0Q9902 228 9902 389Q9902 522 9968.0 617.0Q10034 712 10184 805L10215 824Q10151 896 10116.0 971.0Q10081 1046 10081 1127Q10081 1288 10189.0 1378.5Q10297 1469 10469 1469Q10626 1469 10728.5 1376.5Q10831 1284 10831 1140Q10831 1010 10769.5 929.0Q10708 848 10589 779L10798 521Q10834 573 10853.5 634.0Q10873 695 10874 763H11127Q11121 629 11063 492Q11031 415 10959 322L11227 0H10881L10779 125Q10705 56 10641 23Q10527 -36 10378 -36ZM10362 642Q10255 571 10220.5 517.0Q10186 463 10186 398Q10186 325 10245.5 264.0Q10305 203 10398 203Q10468 203 10530.5 235.5Q10593 268 10632 308ZM10343 1137Q10343 1097 10371 1053Q10389 1024 10449 950Q10509 992 10535 1021Q10585 1075 10585 1138Q10585 1184 10555.0 1220.0Q10525 1256 10464 1256Q10426 1256 10393 1235Q10343 1204 10343 1137ZM12621 578H12303V0H12002V1474H12725Q12880 1471 12963.5 1436.0Q13047 1401 13105 1333Q13153 1277 13181.0 1209.0Q13209 1141 13209 1054Q13209 949 13156.0 847.5Q13103 746 12981 704Q13083 663 13125.5 587.5Q13168 512 13168 357V258Q13168 157 13176 121Q13188 64 13232 37V0H12893Q12879 49 12873 79Q12861 141 12860 206L12858 343Q12856 484 12806.5 531.0Q12757 578 12621 578ZM12808 846Q12900 888 12900 1012Q12900 1146 12811 1192Q12761 1218 12661 1218H12303V822H12652Q12756 822 12808 846ZM14384 320Q14373 223 14283 123Q14143 -36 13891 -36Q13683 -36 13524.0 98.0Q13365 232 13365 534Q13365 817 13508.5 968.0Q13652 1119 13881 1119Q14017 1119 14126.0 1068.0Q14235 1017 14306 907Q14370 810 14389 682Q14400 607 14398 466H13652Q13658 302 13755 236Q13814 195 13897 195Q13985 195 14040 245Q14070 272 14093 320ZM14102 654Q14095 767 14033.5 825.5Q13972 884 13881 884Q13782 884 13727.5 822.0Q13673 760 13659 654ZM15503 973Q15635 832 15635 559Q15635 271 15505.5 120.0Q15376 -31 15172 -31Q15042 -31 14956 34Q14909 70 14864 139V-429H14582V1090H14855V929Q14901 1000 14953 1041Q15048 1114 15179 1114Q15370 1114 15503 973ZM15341 545Q15341 671 15283.5 768.0Q15226 865 15097 865Q14942 865 14884 718Q14854 640 14854 520Q14854 330 14955 253Q15015 208 15097 208Q15216 208 15278.5 300.0Q15341 392 15341 545ZM16750 952Q16888 779 16888 543Q16888 303 16750.0 132.5Q16612 -38 16331 -38Q16050 -38 15912.0 132.5Q15774 303 15774 543Q15774 779 15912.0 952.0Q16050 1125 16331 1125Q16612 1125 16750 952ZM16330 884Q16205 884 16137.5 795.5Q16070 707 16070 543Q16070 379 16137.5 290.0Q16205 201 16330 201Q16455 201 16522.0 290.0Q16589 379 16589 543Q16589 707 16522.0 795.5Q16455 884 16330 884ZM17640 827Q17468 827 17409 715Q17376 652 17376 521V0H17089V1090H17361V900Q17427 1009 17476 1049Q17556 1116 17684 1116Q17692 1116 17697.5 1115.5Q17703 1115 17722 1114V822Q17695 825 17674.0 826.0Q17653 827 17640 827ZM18388 203V-10L18253 -15Q18051 -22 17977 55Q17929 104 17929 206V877H17777V1080H17929V1384H18211V1080H18388V877H18211V301Q18211 234 18228.0 217.5Q18245 201 18332 201Q18345 201 18359.5 201.5Q18374 202 18388 203ZM19322 1040Q19450 958 19469 758H19184Q19178 813 19153 845Q19106 903 18993 903Q18900 903 18860.5 874.0Q18821 845 18821 806Q18821 757 18863 735Q18905 712 19160 656Q19330 616 19415 535Q19499 453 19499 330Q19499 168 19378.5 65.5Q19258 -37 19006 -37Q18749 -37 18626.5 71.5Q18504 180 18504 348H18793Q18802 272 18832 240Q18885 183 19028 183Q19112 183 19161.5 208.0Q19211 233 19211 283Q19211 331 19171 356Q19131 381 18874 442Q18689 488 18613 557Q18537 625 18537 753Q18537 904 18655.5 1012.5Q18774 1121 18989 1121Q19193 1121 19322 1040Z"/></g></svg>
