<svg xmlns="http://www.w3.org/2000/svg" width="226" height="22" viewBox="0 0 226 22"><defs><linearGradient id="crisp-grad" gradientUnits="userSpaceOnUse" x1="0" y1="0" x2="27656" y2="0"><stop offset="0%" stop-color="#0A78E8"/><stop offset="50%" stop-color="#0071E3"/><stop offset="100%" stop-color="#006ADD"/></linearGradient></defs><g fill="url(#crisp-grad)" transform="translate(6, 15) scale(0.007812, -0.007812)"><path d="M691 213Q800 213 868 237Q997 283 997 408Q997 481 933 521Q869 560 732 590L576 625Q346 677 258 738Q109 840 109 1057Q109 1255 253.0 1386.0Q397 1517 676 1517Q909 1517 1073.5 1393.5Q1238 1270 1246 1035H950Q942 1168 834 1224Q762 1261 655 1261Q536 1261 465.0 1213.0Q394 1165 394 1079Q394 1000 464 961Q509 935 656 900L910 839Q1077 799 1162 732Q1294 628 1294 431Q1294 229 1139.5 95.5Q985 -38 703 -38Q415 -38 250.0 93.5Q85 225 85 455H379Q393 354 434 304Q509 213 691 213ZM2432 320Q2421 223 2331 123Q2191 -36 1939 -36Q1731 -36 1572.0 98.0Q1413 232 1413 534Q1413 817 1556.5 968.0Q1700 1119 1929 1119Q2065 1119 2174.0 1068.0Q2283 1017 2354 907Q2418 810 2437 682Q2448 607 2446 466H1700Q1706 302 1803 236Q1862 195 1945 195Q2033 195 2088 245Q2118 272 2141 320ZM2150 654Q2143 767 2081.5 825.5Q2020 884 1929 884Q1830 884 1775.5 822.0Q1721 760 1707 654ZM3341 -432V135Q3309 69 3231.5 17.5Q3154 -34 3020 -34Q2831 -34 2698.0 117.0Q2565 268 2565 520Q2565 792 2698.5 955.0Q2832 1118 3028 1118Q3164 1118 3248 1051Q3297 1013 3348 926V1088H3623V-432ZM2892 347Q2948 210 3100 210Q3247 210 3309 336Q3349 419 3349 546Q3349 646 3315 725Q3254 867 3101 867Q2993 867 2927.5 784.0Q2862 701 2862 532Q2862 419 2892 347ZM4588 154Q4584 149 4568.0 124.0Q4552 99 4530 80Q4463 20 4400.5 -2.0Q4338 -24 4254 -24Q4012 -24 3928 150Q3881 246 3881 433V1090H4173V433Q4173 340 4195 293Q4234 210 4348 210Q4494 210 4548 328Q4576 392 4576 497V1090H4865V0H4588ZM6049 952Q6187 779 6187 543Q6187 303 6049.0 132.5Q5911 -38 5630 -38Q5349 -38 5211.0 132.5Q5073 303 5073 543Q5073 779 5211.0 952.0Q5349 1125 5630 1125Q5911 1125 6049 952ZM5629 884Q5504 884 5436.5 795.5Q5369 707 5369 543Q5369 379 5436.5 290.0Q5504 201 5629 201Q5754 201 5821.0 290.0Q5888 379 5888 543Q5888 707 5821.0 795.5Q5754 884 5629 884ZM6684 1090V0H6395V1090ZM6684 1483V1220H6395V1483ZM7001 972Q7114 1116 7389 1116Q7568 1116 7707 1045Q7846 974 7846 777V277Q7846 225 7848 151Q7851 95 7865.0 75.0Q7879 55 7907 42V0H7597Q7584 33 7579.0 62.0Q7574 91 7571 128Q7512 64 7435 19Q7343 -34 7227 -34Q7079 -34 6982.5 50.5Q6886 135 6886 290Q6886 491 7041 581Q7126 630 7291 651L7388 663Q7467 673 7501 688Q7562 714 7562 769Q7562 836 7515.5 861.5Q7469 887 7379 887Q7278 887 7236 837Q7206 800 7196 737H6921Q6930 880 7001 972ZM7213 206Q7253 173 7311 173Q7403 173 7480.5 227.0Q7558 281 7561 424V530Q7534 513 7506.5 502.5Q7479 492 7431 483L7367 471Q7277 455 7238 432Q7172 393 7172 311Q7172 238 7213 206ZM8501 298V0H8198V298ZM8198 749V1047H8501V749ZM9929 1155Q9878 1216 9783 1216Q9653 1216 9606 1119Q9579 1063 9574 941H9297Q9304 1126 9364 1240Q9478 1457 9769 1457Q9999 1457 10135.0 1329.5Q10271 1202 10271 992Q10271 831 10175 706Q10112 623 9968 521L9854 440Q9747 364 9707.5 330.0Q9668 296 9641 251H10274V0H9281Q9285 156 9348 285Q9409 430 9636 592Q9833 733 9891 794Q9980 889 9980 1002Q9980 1094 9929 1155ZM10920 -36Q10643 -36 10531.5 158.0Q10420 352 10420 711Q10420 1070 10531.5 1265.0Q10643 1460 10920 1460Q11197 1460 11309 1265Q11420 1070 11420 711Q11420 352 11308.5 158.0Q11197 -36 10920 -36ZM11087 329Q11126 461 11126 711Q11126 973 11086.5 1099.0Q11047 1225 10920 1225Q10793 1225 10752.0 1099.0Q10711 973 10711 711Q10711 461 10752.0 328.5Q10793 196 10920 196Q11047 196 11087 329ZM12207 1155Q12156 1216 12061 1216Q11931 1216 11884 1119Q11857 1063 11852 941H11575Q11582 1126 11642 1240Q11756 1457 12047 1457Q12277 1457 12413.0 1329.5Q12549 1202 12549 992Q12549 831 12453 706Q12390 623 12246 521L12132 440Q12025 364 11985.5 330.0Q11946 296 11919 251H12552V0H11559Q11563 156 11626 285Q11687 430 11914 592Q12111 733 12169 794Q12258 889 12258 1002Q12258 1094 12207 1155ZM13260 941Q13453 941 13576.5 810.0Q13700 679 13700 475Q13700 272 13579.0 117.0Q13458 -38 13203 -38Q12929 -38 12799 191Q12698 370 12698 653Q12698 819 12712 923Q12737 1108 12809 1231Q12871 1336 12971.5 1400.0Q13072 1464 13212 1464Q13414 1464 13534.0 1360.5Q13654 1257 13669 1085H13385Q13385 1120 13358 1162Q13312 1230 13219 1230Q13080 1230 13021 1074Q12989 988 12977 820Q13030 883 13100.0 912.0Q13170 941 13260 941ZM13068 669Q12984 604 12984 459Q12984 342 13047.0 268.0Q13110 194 13207 194Q13302 194 13356.5 265.5Q13411 337 13411 451Q13411 578 13349.0 645.5Q13287 713 13197 713Q13124 713 13068 669ZM14583 682H16148V464H14583ZM18186 1474V1213H17745V0H17435V1213H16992V1474ZM19328 640V0H19037V663Q19037 751 19007 805Q18968 881 18859 881Q18746 881 18687.5 805.5Q18629 730 18629 590V0H18345V1469H18629V948Q18691 1043 18772.5 1080.5Q18854 1118 18944 1118Q19045 1118 19127.5 1083.0Q19210 1048 19263 976Q19308 915 19318.0 850.5Q19328 786 19328 640ZM19887 1090V0H19598V1090ZM19887 1483V1220H19598V1483ZM20914 1040Q21042 958 21061 758H20776Q20770 813 20745 845Q20698 903 20585 903Q20492 903 20452.5 874.0Q20413 845 20413 806Q20413 757 20455 735Q20497 712 20752 656Q20922 616 21007 535Q21091 453 21091 330Q21091 168 20970.5 65.5Q20850 -37 20598 -37Q20341 -37 20218.5 71.5Q20096 180 20096 348H20385Q20394 272 20424 240Q20477 183 20620 183Q20704 183 20753.5 208.0Q20803 233 20803 283Q20803 331 20763 356Q20723 381 20466 442Q20281 488 20205 557Q20129 625 20129 753Q20129 904 20247.5 1012.5Q20366 1121 20581 1121Q20785 1121 20914 1040ZM21870 1474H22176V0H21870ZM23191 1040Q23319 958 23338 758H23053Q23047 813 23022 845Q22975 903 22862 903Q22769 903 22729.5 874.0Q22690 845 22690 806Q22690 757 22732 735Q22774 712 23029 656Q23199 616 23284 535Q23368 453 23368 330Q23368 168 23247.5 65.5Q23127 -37 22875 -37Q22618 -37 22495.5 71.5Q22373 180 22373 348H22662Q22671 272 22701 240Q22754 183 22897 183Q22981 183 23030.5 208.0Q23080 233 23080 283Q23080 331 23040 356Q23000 381 22743 442Q22558 488 22482 557Q22406 625 22406 753Q22406 904 22524.5 1012.5Q22643 1121 22858 1121Q23062 1121 23191 1040ZM25034 303H24491L24389 0H24067L24593 1474H24941L25463 0H25129ZM24948 557 24764 1137 24574 557ZM26554 36Q26432 -39 26254 -39Q25961 -39 25774 164Q25579 368 25579 722Q25579 1080 25776 1296Q25973 1512 26297 1512Q26578 1512 26748.5 1369.5Q26919 1227 26944 1014H26641Q26606 1165 26470 1225Q26394 1258 26301 1258Q26123 1258 26008.5 1123.5Q25894 989 25894 719Q25894 447 26018.0 334.0Q26142 221 26300 221Q26455 221 26554.0 310.5Q26653 400 26676 545H26335V791H26949V0H26745L26714 184Q26625 79 26554 36ZM27219 1474H27525V0H27219Z"/></g></svg>
