<svg xmlns="http://www.w3.org/2000/svg" width="311" height="22" viewBox="0 0 311 22"><defs><linearGradient id="crisp-grad" gradientUnits="userSpaceOnUse" x1="0" y1="0" x2="38469" y2="0"><stop offset="0%" stop-color="#0A78E8"/><stop offset="50%" stop-color="#0071E3"/><stop offset="100%" stop-color="#006ADD"/></linearGradient></defs><g fill="url(#crisp-grad)" transform="translate(6, 15) scale(0.007812, -0.007812)"><path d="M691 213Q800 213 868 237Q997 283 997 408Q997 481 933 521Q869 560 732 590L576 625Q346 677 258 738Q109 840 109 1057Q109 1255 253.0 1386.0Q397 1517 676 1517Q909 1517 1073.5 1393.5Q1238 1270 1246 1035H950Q942 1168 834 1224Q762 1261 655 1261Q536 1261 465.0 1213.0Q394 1165 394 1079Q394 1000 464 961Q509 935 656 900L910 839Q1077 799 1162 732Q1294 628 1294 431Q1294 229 1139.5 95.5Q985 -38 703 -38Q415 -38 250.0 93.5Q85 225 85 455H379Q393 354 434 304Q509 213 691 213ZM2432 320Q2421 223 2331 123Q2191 -36 1939 -36Q1731 -36 1572.0 98.0Q1413 232 1413 534Q1413 817 1556.5 968.0Q1700 1119 1929 1119Q2065 1119 2174.0 1068.0Q2283 1017 2354 907Q2418 810 2437 682Q2448 607 2446 466H1700Q1706 302 1803 236Q1862 195 1945 195Q2033 195 2088 245Q2118 272 2141 320ZM2150 654Q2143 767 2081.5 825.5Q2020 884 1929 884Q1830 884 1775.5 822.0Q1721 760 1707 654ZM3341 -432V135Q3309 69 3231.5 17.5Q3154 -34 3020 -34Q2831 -34 2698.0 117.0Q2565 268 2565 520Q2565 792 2698.5 955.0Q2832 1118 3028 1118Q3164 1118 3248 1051Q3297 1013 3348 926V1088H3623V-432ZM2892 347Q2948 210 3100 210Q3247 210 3309 336Q3349 419 3349 546Q3349 646 3315 725Q3254 867 3101 867Q2993 867 2927.5 784.0Q2862 701 2862 532Q2862 419 2892 347ZM4588 154Q4584 149 4568.0 124.0Q4552 99 4530 80Q4463 20 4400.5 -2.0Q4338 -24 4254 -24Q4012 -24 3928 150Q3881 246 3881 433V1090H4173V433Q4173 340 4195 293Q4234 210 4348 210Q4494 210 4548 328Q4576 392 4576 497V1090H4865V0H4588ZM6049 952Q6187 779 6187 543Q6187 303 6049.0 132.5Q5911 -38 5630 -38Q5349 -38 5211.0 132.5Q5073 303 5073 543Q5073 779 5211.0 952.0Q5349 1125 5630 1125Q5911 1125 6049 952ZM5629 884Q5504 884 5436.5 795.5Q5369 707 5369 543Q5369 379 5436.5 290.0Q5504 201 5629 201Q5754 201 5821.0 290.0Q5888 379 5888 543Q5888 707 5821.0 795.5Q5754 884 5629 884ZM6684 1090V0H6395V1090ZM6684 1483V1220H6395V1483ZM7001 972Q7114 1116 7389 1116Q7568 1116 7707 1045Q7846 974 7846 777V277Q7846 225 7848 151Q7851 95 7865.0 75.0Q7879 55 7907 42V0H7597Q7584 33 7579.0 62.0Q7574 91 7571 128Q7512 64 7435 19Q7343 -34 7227 -34Q7079 -34 6982.5 50.5Q6886 135 6886 290Q6886 491 7041 581Q7126 630 7291 651L7388 663Q7467 673 7501 688Q7562 714 7562 769Q7562 836 7515.5 861.5Q7469 887 7379 887Q7278 887 7236 837Q7206 800 7196 737H6921Q6930 880 7001 972ZM7213 206Q7253 173 7311 173Q7403 173 7480.5 227.0Q7558 281 7561 424V530Q7534 513 7506.5 502.5Q7479 492 7431 483L7367 471Q7277 455 7238 432Q7172 393 7172 311Q7172 238 7213 206ZM8501 298V0H8198V298ZM8198 749V1047H8501V749ZM9908 213Q10017 213 10085 237Q10214 283 10214 408Q10214 481 10150 521Q10086 560 9949 590L9793 625Q9563 677 9475 738Q9326 840 9326 1057Q9326 1255 9470.0 1386.0Q9614 1517 9893 1517Q10126 1517 10290.5 1393.5Q10455 1270 10463 1035H10167Q10159 1168 10051 1224Q9979 1261 9872 1261Q9753 1261 9682.0 1213.0Q9611 1165 9611 1079Q9611 1000 9681 961Q9726 935 9873 900L10127 839Q10294 799 10379 732Q10511 628 10511 431Q10511 229 10356.5 95.5Q10202 -38 9920 -38Q9632 -38 9467.0 93.5Q9302 225 9302 455H9596Q9610 354 9651 304Q9726 213 9908 213ZM11649 320Q11638 223 11548 123Q11408 -36 11156 -36Q10948 -36 10789.0 98.0Q10630 232 10630 534Q10630 817 10773.5 968.0Q10917 1119 11146 1119Q11282 1119 11391.0 1068.0Q11500 1017 11571 907Q11635 810 11654 682Q11665 607 11663 466H10917Q10923 302 11020 236Q11079 195 11162 195Q11250 195 11305 245Q11335 272 11358 320ZM11367 654Q11360 767 11298.5 825.5Q11237 884 11146 884Q11047 884 10992.5 822.0Q10938 760 10924 654ZM12403 827Q12231 827 12172 715Q12139 652 12139 521V0H11852V1090H12124V900Q12190 1009 12239 1049Q12319 1116 12447 1116Q12455 1116 12460.5 1115.5Q12466 1115 12485 1114V822Q12458 825 12437.0 826.0Q12416 827 12403 827ZM12545 1090H12865L13092 286L13324 1090H13630L13237 0H12936ZM14084 1090V0H13795V1090ZM14084 1483V1220H13795V1483ZM15303 699H15011Q15003 760 14970 809Q14922 875 14821 875Q14677 875 14624 732Q14596 656 14596 530Q14596 410 14624 337Q14675 201 14816 201Q14916 201 14958.0 255.0Q15000 309 15009 395H15300Q15290 265 15206 149Q15072 -38 14809 -38Q14546 -38 14422.0 118.0Q14298 274 14298 523Q14298 804 14435.0 960.0Q14572 1116 14813 1116Q15018 1116 15148.5 1024.0Q15279 932 15303 699ZM16432 320Q16421 223 16331 123Q16191 -36 15939 -36Q15731 -36 15572.0 98.0Q15413 232 15413 534Q15413 817 15556.5 968.0Q15700 1119 15929 1119Q16065 1119 16174.0 1068.0Q16283 1017 16354 907Q16418 810 16437 682Q16448 607 16446 466H15700Q15706 302 15803 236Q15862 195 15945 195Q16033 195 16088 245Q16118 272 16141 320ZM16150 654Q16143 767 16081.5 825.5Q16020 884 15929 884Q15830 884 15775.5 822.0Q15721 760 15707 654ZM17389 1040Q17517 958 17536 758H17251Q17245 813 17220 845Q17173 903 17060 903Q16967 903 16927.5 874.0Q16888 845 16888 806Q16888 757 16930 735Q16972 712 17227 656Q17397 616 17482 535Q17566 453 17566 330Q17566 168 17445.5 65.5Q17325 -37 17073 -37Q16816 -37 16693.5 71.5Q16571 180 16571 348H16860Q16869 272 16899 240Q16952 183 17095 183Q17179 183 17228.5 208.0Q17278 233 17278 283Q17278 331 17238 356Q17198 381 16941 442Q16756 488 16680 557Q16604 625 16604 753Q16604 904 16722.5 1012.5Q16841 1121 17056 1121Q17260 1121 17389 1040ZM18454 682H20019V464H18454ZM22057 1474V1213H21616V0H21306V1213H20863V1474ZM23199 640V0H22908V663Q22908 751 22878 805Q22839 881 22730 881Q22617 881 22558.5 805.5Q22500 730 22500 590V0H22216V1469H22500V948Q22562 1043 22643.5 1080.5Q22725 1118 22815 1118Q22916 1118 22998.5 1083.0Q23081 1048 23134 976Q23179 915 23189.0 850.5Q23199 786 23199 640ZM24398 320Q24387 223 24297 123Q24157 -36 23905 -36Q23697 -36 23538.0 98.0Q23379 232 23379 534Q23379 817 23522.5 968.0Q23666 1119 23895 1119Q24031 1119 24140.0 1068.0Q24249 1017 24320 907Q24384 810 24403 682Q24414 607 24412 466H23666Q23672 302 23769 236Q23828 195 23911 195Q23999 195 24054 245Q24084 272 24107 320ZM24116 654Q24109 767 24047.5 825.5Q23986 884 23895 884Q23796 884 23741.5 822.0Q23687 760 23673 654ZM26388 0H26080L25478 1047V0H25191V1474H25514L26101 445V1474H26388ZM27585 320Q27574 223 27484 123Q27344 -36 27092 -36Q26884 -36 26725.0 98.0Q26566 232 26566 534Q26566 817 26709.5 968.0Q26853 1119 27082 1119Q27218 1119 27327.0 1068.0Q27436 1017 27507 907Q27571 810 27590 682Q27601 607 27599 466H26853Q26859 302 26956 236Q27015 195 27098 195Q27186 195 27241 245Q27271 272 27294 320ZM27303 654Q27296 767 27234.5 825.5Q27173 884 27082 884Q26983 884 26928.5 822.0Q26874 760 26860 654ZM28618 0 28447 794 28274 0H27978L27672 1090H27978L28148 308L28305 1090H28594L28760 305L28930 1090H29227L28911 0ZM30511 213Q30620 213 30688 237Q30817 283 30817 408Q30817 481 30753 521Q30689 560 30552 590L30396 625Q30166 677 30078 738Q29929 840 29929 1057Q29929 1255 30073.0 1386.0Q30217 1517 30496 1517Q30729 1517 30893.5 1393.5Q31058 1270 31066 1035H30770Q30762 1168 30654 1224Q30582 1261 30475 1261Q30356 1261 30285.0 1213.0Q30214 1165 30214 1079Q30214 1000 30284 961Q30329 935 30476 900L30730 839Q30897 799 30982 732Q31114 628 31114 431Q31114 229 30959.5 95.5Q30805 -38 30523 -38Q30235 -38 30070.0 93.5Q29905 225 29905 455H30199Q30213 354 30254 304Q30329 213 30511 213ZM32228 952Q32366 779 32366 543Q32366 303 32228.0 132.5Q32090 -38 31809 -38Q31528 -38 31390.0 132.5Q31252 303 31252 543Q31252 779 31390.0 952.0Q31528 1125 31809 1125Q32090 1125 32228 952ZM31808 884Q31683 884 31615.5 795.5Q31548 707 31548 543Q31548 379 31615.5 290.0Q31683 201 31808 201Q31933 201 32000.0 290.0Q32067 379 32067 543Q32067 707 32000.0 795.5Q31933 884 31808 884ZM33081 1483V1251Q33057 1254 33000.5 1255.5Q32944 1257 32922.5 1230.5Q32901 1204 32901 1172V1080H33088V879H32901V0H32617V879H32458V1080H32614V1150Q32614 1325 32673 1391Q32735 1489 32972 1489Q32999 1489 33021.0 1487.5Q33043 1486 33081 1483ZM33751 203V-10L33616 -15Q33414 -22 33340 55Q33292 104 33292 206V877H33140V1080H33292V1384H33574V1080H33751V877H33574V301Q33574 234 33591.0 217.5Q33608 201 33695 201Q33708 201 33722.5 201.5Q33737 202 33751 203ZM34761 0 34590 794 34417 0H34121L33815 1090H34121L34291 308L34448 1090H34737L34903 305L35073 1090H35370L35054 0ZM35568 972Q35681 1116 35956 1116Q36135 1116 36274 1045Q36413 974 36413 777V277Q36413 225 36415 151Q36418 95 36432.0 75.0Q36446 55 36474 42V0H36164Q36151 33 36146.0 62.0Q36141 91 36138 128Q36079 64 36002 19Q35910 -34 35794 -34Q35646 -34 35549.5 50.5Q35453 135 35453 290Q35453 491 35608 581Q35693 630 35858 651L35955 663Q36034 673 36068 688Q36129 714 36129 769Q36129 836 36082.5 861.5Q36036 887 35946 887Q35845 887 35803 837Q35773 800 35763 737H35488Q35497 880 35568 972ZM35780 206Q35820 173 35878 173Q35970 173 36047.5 227.0Q36125 281 36128 424V530Q36101 513 36073.5 502.5Q36046 492 35998 483L35934 471Q35844 455 35805 432Q35739 393 35739 311Q35739 238 35780 206ZM37214 827Q37042 827 36983 715Q36950 652 36950 521V0H36663V1090H36935V900Q37001 1009 37050 1049Q37130 1116 37258 1116Q37266 1116 37271.5 1115.5Q37277 1115 37296 1114V822Q37269 825 37248.0 826.0Q37227 827 37214 827ZM38396 320Q38385 223 38295 123Q38155 -36 37903 -36Q37695 -36 37536.0 98.0Q37377 232 37377 534Q37377 817 37520.5 968.0Q37664 1119 37893 1119Q38029 1119 38138.0 1068.0Q38247 1017 38318 907Q38382 810 38401 682Q38412 607 38410 466H37664Q37670 302 37767 236Q37826 195 37909 195Q37997 195 38052 245Q38082 272 38105 320ZM38114 654Q38107 767 38045.5 825.5Q37984 884 37893 884Q37794 884 37739.5 822.0Q37685 760 37671 654Z"/></g></svg>
