<svg xmlns="http://www.w3.org/2000/svg" width="121" height="22" viewBox="0 0 121 22"><defs><linearGradient id="crisp-grad" gradientUnits="userSpaceOnUse" x1="0" y1="0" x2="14228" y2="0"><stop offset="0%" stop-color="#0A78E8"/><stop offset="50%" stop-color="#0071E3"/><stop offset="100%" stop-color="#006ADD"/></linearGradient></defs><g fill="url(#crisp-grad)" transform="translate(6, 15) scale(0.007812, -0.007812)"><path d="M691 213Q800 213 868 237Q997 283 997 408Q997 481 933 521Q869 560 732 590L576 625Q346 677 258 738Q109 840 109 1057Q109 1255 253.0 1386.0Q397 1517 676 1517Q909 1517 1073.5 1393.5Q1238 1270 1246 1035H950Q942 1168 834 1224Q762 1261 655 1261Q536 1261 465.0 1213.0Q394 1165 394 1079Q394 1000 464 961Q509 935 656 900L910 839Q1077 799 1162 732Q1294 628 1294 431Q1294 229 1139.5 95.5Q985 -38 703 -38Q415 -38 250.0 93.5Q85 225 85 455H379Q393 354 434 304Q509 213 691 213ZM2484 640V0H2193V663Q2193 751 2163 805Q2124 881 2015 881Q1902 881 1843.5 805.5Q1785 730 1785 590V0H1501V1469H1785V948Q1847 1043 1928.5 1080.5Q2010 1118 2100 1118Q2201 1118 2283.5 1083.0Q2366 1048 2419 976Q2464 915 2474.0 850.5Q2484 786 2484 640ZM3298 827Q3126 827 3067 715Q3034 652 3034 521V0H2747V1090H3019V900Q3085 1009 3134 1049Q3214 1116 3342 1116Q3350 1116 3355.5 1115.5Q3361 1115 3380 1114V822Q3353 825 3332.0 826.0Q3311 827 3298 827ZM4480 320Q4469 223 4379 123Q4239 -36 3987 -36Q3779 -36 3620.0 98.0Q3461 232 3461 534Q3461 817 3604.5 968.0Q3748 1119 3977 1119Q4113 1119 4222.0 1068.0Q4331 1017 4402 907Q4466 810 4485 682Q4496 607 4494 466H3748Q3754 302 3851 236Q3910 195 3993 195Q4081 195 4136 245Q4166 272 4189 320ZM4198 654Q4191 767 4129.5 825.5Q4068 884 3977 884Q3878 884 3823.5 822.0Q3769 760 3755 654ZM5129 286 5354 1090H5657L5283 18Q5175 -292 5112.0 -366.5Q5049 -441 4860 -441Q4822 -441 4799.0 -440.5Q4776 -440 4730 -437V-209L4766 -211Q4808 -213 4846.0 -208.0Q4884 -203 4910 -185Q4935 -168 4956.5 -114.0Q4978 -60 4974 -48L4574 1090H4891ZM5866 972Q5979 1116 6254 1116Q6433 1116 6572 1045Q6711 974 6711 777V277Q6711 225 6713 151Q6716 95 6730.0 75.0Q6744 55 6772 42V0H6462Q6449 33 6444.0 62.0Q6439 91 6436 128Q6377 64 6300 19Q6208 -34 6092 -34Q5944 -34 5847.5 50.5Q5751 135 5751 290Q5751 491 5906 581Q5991 630 6156 651L6253 663Q6332 673 6366 688Q6427 714 6427 769Q6427 836 6380.5 861.5Q6334 887 6244 887Q6143 887 6101 837Q6071 800 6061 737H5786Q5795 880 5866 972ZM6078 206Q6118 173 6176 173Q6268 173 6345.5 227.0Q6423 281 6426 424V530Q6399 513 6371.5 502.5Q6344 492 6296 483L6232 471Q6142 455 6103 432Q6037 393 6037 311Q6037 238 6078 206ZM7715 1040Q7843 958 7862 758H7577Q7571 813 7546 845Q7499 903 7386 903Q7293 903 7253.5 874.0Q7214 845 7214 806Q7214 757 7256 735Q7298 712 7553 656Q7723 616 7808 535Q7892 453 7892 330Q7892 168 7771.5 65.5Q7651 -37 7399 -37Q7142 -37 7019.5 71.5Q6897 180 6897 348H7186Q7195 272 7225 240Q7278 183 7421 183Q7505 183 7554.5 208.0Q7604 233 7604 283Q7604 331 7564 356Q7524 381 7267 442Q7082 488 7006 557Q6930 625 6930 753Q6930 904 7048.5 1012.5Q7167 1121 7382 1121Q7586 1121 7715 1040ZM9330 0H8695V1474H9330Q9467 1472 9558 1442Q9713 1391 9809 1255Q9886 1145 9914.0 1017.0Q9942 889 9942 773Q9942 479 9824 275Q9664 0 9330 0ZM9559 1098Q9488 1218 9278 1218H8994V256H9278Q9496 256 9582 471Q9629 589 9629 752Q9629 977 9559 1098ZM11060 952Q11198 779 11198 543Q11198 303 11060.0 132.5Q10922 -38 10641 -38Q10360 -38 10222.0 132.5Q10084 303 10084 543Q10084 779 10222.0 952.0Q10360 1125 10641 1125Q10922 1125 11060 952ZM10640 884Q10515 884 10447.5 795.5Q10380 707 10380 543Q10380 379 10447.5 290.0Q10515 201 10640 201Q10765 201 10832.0 290.0Q10899 379 10899 543Q10899 707 10832.0 795.5Q10765 884 10640 884ZM12153 1040Q12281 958 12300 758H12015Q12009 813 11984 845Q11937 903 11824 903Q11731 903 11691.5 874.0Q11652 845 11652 806Q11652 757 11694 735Q11736 712 11991 656Q12161 616 12246 535Q12330 453 12330 330Q12330 168 12209.5 65.5Q12089 -37 11837 -37Q11580 -37 11457.5 71.5Q11335 180 11335 348H11624Q11633 272 11663 240Q11716 183 11859 183Q11943 183 11992.5 208.0Q12042 233 12042 283Q12042 331 12002 356Q11962 381 11705 442Q11520 488 11444 557Q11368 625 11368 753Q11368 904 11486.5 1012.5Q11605 1121 11820 1121Q12024 1121 12153 1040ZM13526 640V0H13235V663Q13235 751 13205 805Q13166 881 13057 881Q12944 881 12885.5 805.5Q12827 730 12827 590V0H12543V1469H12827V948Q12889 1043 12970.5 1080.5Q13052 1118 13142 1118Q13243 1118 13325.5 1083.0Q13408 1048 13461 976Q13506 915 13516.0 850.5Q13526 786 13526 640ZM14085 1090V0H13796V1090ZM14085 1483V1220H13796V1483Z"/></g></svg>
