<svg xmlns="http://www.w3.org/2000/svg" width="182" height="22" viewBox="0 0 182 22"><defs><linearGradient id="crisp-grad" gradientUnits="userSpaceOnUse" x1="0" y1="0" x2="22079" y2="0"><stop offset="0%" stop-color="#0A78E8"/><stop offset="50%" stop-color="#0071E3"/><stop offset="100%" stop-color="#006ADD"/></linearGradient></defs><g fill="url(#crisp-grad)" transform="translate(6, 15) scale(0.007812, -0.007812)"><path d="M691 213Q800 213 868 237Q997 283 997 408Q997 481 933 521Q869 560 732 590L576 625Q346 677 258 738Q109 840 109 1057Q109 1255 253.0 1386.0Q397 1517 676 1517Q909 1517 1073.5 1393.5Q1238 1270 1246 1035H950Q942 1168 834 1224Q762 1261 655 1261Q536 1261 465.0 1213.0Q394 1165 394 1079Q394 1000 464 961Q509 935 656 900L910 839Q1077 799 1162 732Q1294 628 1294 431Q1294 229 1139.5 95.5Q985 -38 703 -38Q415 -38 250.0 93.5Q85 225 85 455H379Q393 354 434 304Q509 213 691 213ZM1998 203V-10L1863 -15Q1661 -22 1587 55Q1539 104 1539 206V877H1387V1080H1539V1384H1821V1080H1998V877H1821V301Q1821 234 1838.0 217.5Q1855 201 1942 201Q1955 201 1969.5 201.5Q1984 202 1998 203ZM2222 972Q2335 1116 2610 1116Q2789 1116 2928 1045Q3067 974 3067 777V277Q3067 225 3069 151Q3072 95 3086.0 75.0Q3100 55 3128 42V0H2818Q2805 33 2800.0 62.0Q2795 91 2792 128Q2733 64 2656 19Q2564 -34 2448 -34Q2300 -34 2203.5 50.5Q2107 135 2107 290Q2107 491 2262 581Q2347 630 2512 651L2609 663Q2688 673 2722 688Q2783 714 2783 769Q2783 836 2736.5 861.5Q2690 887 2600 887Q2499 887 2457 837Q2427 800 2417 737H2142Q2151 880 2222 972ZM2434 206Q2474 173 2532 173Q2624 173 2701.5 227.0Q2779 281 2782 424V530Q2755 513 2727.5 502.5Q2700 492 2652 483L2588 471Q2498 455 2459 432Q2393 393 2393 311Q2393 238 2434 206ZM3833 879Q3688 879 3634 756Q3606 691 3606 590V0H3322V1088H3597V929Q3652 1013 3701 1050Q3789 1116 3924 1116Q4093 1116 4200.5 1027.5Q4308 939 4308 734V0H4016V663Q4016 749 3993 795Q3951 879 3833 879ZM5082 1483V1251Q5058 1254 5001.5 1255.5Q4945 1257 4923.5 1230.5Q4902 1204 4902 1172V1080H5089V879H4902V0H4618V879H4459V1080H4615V1150Q4615 1325 4674 1391Q4736 1489 4973 1489Q5000 1489 5022.0 1487.5Q5044 1486 5082 1483ZM6162 952Q6300 779 6300 543Q6300 303 6162.0 132.5Q6024 -38 5743 -38Q5462 -38 5324.0 132.5Q5186 303 5186 543Q5186 779 5324.0 952.0Q5462 1125 5743 1125Q6024 1125 6162 952ZM5742 884Q5617 884 5549.5 795.5Q5482 707 5482 543Q5482 379 5549.5 290.0Q5617 201 5742 201Q5867 201 5934.0 290.0Q6001 379 6001 543Q6001 707 5934.0 795.5Q5867 884 5742 884ZM7052 827Q6880 827 6821 715Q6788 652 6788 521V0H6501V1090H6773V900Q6839 1009 6888 1049Q6968 1116 7096 1116Q7104 1116 7109.5 1115.5Q7115 1115 7134 1114V822Q7107 825 7086.0 826.0Q7065 827 7052 827ZM8293 1472V0H8016V151Q7955 54 7877.0 10.0Q7799 -34 7683 -34Q7492 -34 7361.5 120.5Q7231 275 7231 517Q7231 796 7359.5 956.0Q7488 1116 7703 1116Q7802 1116 7879.0 1072.5Q7956 1029 8004 952V1472ZM7525 538Q7525 387 7585 297Q7644 206 7765 206Q7886 206 7949.0 296.0Q8012 386 8012 529Q8012 729 7911 815Q7849 867 7767 867Q7642 867 7583.5 772.5Q7525 678 7525 538ZM10007 303H9464L9362 0H9040L9566 1474H9914L10436 0H10102ZM9921 557 9737 1137 9547 557ZM10599 1474H10905V0H10599ZM11737 1474H12043V0H11737ZM12820 879Q12675 879 12621 756Q12593 691 12593 590V0H12309V1088H12584V929Q12639 1013 12688 1050Q12776 1116 12911 1116Q13080 1116 13187.5 1027.5Q13295 939 13295 734V0H13003V663Q13003 749 12980 795Q12938 879 12820 879ZM14550 1472V0H14273V151Q14212 54 14134.0 10.0Q14056 -34 13940 -34Q13749 -34 13618.5 120.5Q13488 275 13488 517Q13488 796 13616.5 956.0Q13745 1116 13960 1116Q14059 1116 14136.0 1072.5Q14213 1029 14261 952V1472ZM13782 538Q13782 387 13842 297Q13901 206 14022 206Q14143 206 14206.0 296.0Q14269 386 14269 529Q14269 729 14168 815Q14106 867 14024 867Q13899 867 13840.5 772.5Q13782 678 13782 538ZM15742 320Q15731 223 15641 123Q15501 -36 15249 -36Q15041 -36 14882.0 98.0Q14723 232 14723 534Q14723 817 14866.5 968.0Q15010 1119 15239 1119Q15375 1119 15484.0 1068.0Q15593 1017 15664 907Q15728 810 15747 682Q15758 607 15756 466H15010Q15016 302 15113 236Q15172 195 15255 195Q15343 195 15398 245Q15428 272 15451 320ZM15460 654Q15453 767 15391.5 825.5Q15330 884 15239 884Q15140 884 15085.5 822.0Q15031 760 15017 654ZM16919 0H16564L16376 327L16187 0H15841L16213 552L15857 1088H16206L16388 772L16566 1088H16905L16547 557ZM18235 1155Q18184 1216 18089 1216Q17959 1216 17912 1119Q17885 1063 17880 941H17603Q17610 1126 17670 1240Q17784 1457 18075 1457Q18305 1457 18441.0 1329.5Q18577 1202 18577 992Q18577 831 18481 706Q18418 623 18274 521L18160 440Q18053 364 18013.5 330.0Q17974 296 17947 251H18580V0H17587Q17591 156 17654 285Q17715 430 17942 592Q18139 733 18197 794Q18286 889 18286 1002Q18286 1094 18235 1155ZM19226 -36Q18949 -36 18837.5 158.0Q18726 352 18726 711Q18726 1070 18837.5 1265.0Q18949 1460 19226 1460Q19503 1460 19615 1265Q19726 1070 19726 711Q19726 352 19614.5 158.0Q19503 -36 19226 -36ZM19393 329Q19432 461 19432 711Q19432 973 19392.5 1099.0Q19353 1225 19226 1225Q19099 1225 19058.0 1099.0Q19017 973 19017 711Q19017 461 19058.0 328.5Q19099 196 19226 196Q19353 196 19393 329ZM20513 1155Q20462 1216 20367 1216Q20237 1216 20190 1119Q20163 1063 20158 941H19881Q19888 1126 19948 1240Q20062 1457 20353 1457Q20583 1457 20719.0 1329.5Q20855 1202 20855 992Q20855 831 20759 706Q20696 623 20552 521L20438 440Q20331 364 20291.5 330.0Q20252 296 20225 251H20858V0H19865Q19869 156 19932 285Q19993 430 20220 592Q20417 733 20475 794Q20564 889 20564 1002Q20564 1094 20513 1155ZM21566 941Q21759 941 21882.5 810.0Q22006 679 22006 475Q22006 272 21885.0 117.0Q21764 -38 21509 -38Q21235 -38 21105 191Q21004 370 21004 653Q21004 819 21018 923Q21043 1108 21115 1231Q21177 1336 21277.5 1400.0Q21378 1464 21518 1464Q21720 1464 21840.0 1360.5Q21960 1257 21975 1085H21691Q21691 1120 21664 1162Q21618 1230 21525 1230Q21386 1230 21327 1074Q21295 988 21283 820Q21336 883 21406.0 912.0Q21476 941 21566 941ZM21374 669Q21290 604 21290 459Q21290 342 21353.0 268.0Q21416 194 21513 194Q21608 194 21662.5 265.5Q21717 337 21717 451Q21717 578 21655.0 645.5Q21593 713 21503 713Q21430 713 21374 669Z"/></g></svg>
