<svg xmlns="http://www.w3.org/2000/svg" width="98" height="22" viewBox="0 0 98 22"><defs><linearGradient id="crisp-grad" gradientUnits="userSpaceOnUse" x1="0" y1="0" x2="11270" y2="0"><stop offset="0%" stop-color="#0A78E8"/><stop offset="50%" stop-color="#0071E3"/><stop offset="100%" stop-color="#006ADD"/></linearGradient></defs><g fill="url(#crisp-grad)" transform="translate(6, 15) scale(0.007812, -0.007812)"><path d="M691 213Q800 213 868 237Q997 283 997 408Q997 481 933 521Q869 560 732 590L576 625Q346 677 258 738Q109 840 109 1057Q109 1255 253.0 1386.0Q397 1517 676 1517Q909 1517 1073.5 1393.5Q1238 1270 1246 1035H950Q942 1168 834 1224Q762 1261 655 1261Q536 1261 465.0 1213.0Q394 1165 394 1079Q394 1000 464 961Q509 935 656 900L910 839Q1077 799 1162 732Q1294 628 1294 431Q1294 229 1139.5 95.5Q985 -38 703 -38Q415 -38 250.0 93.5Q85 225 85 455H379Q393 354 434 304Q509 213 691 213ZM1998 203V-10L1863 -15Q1661 -22 1587 55Q1539 104 1539 206V877H1387V1080H1539V1384H1821V1080H1998V877H1821V301Q1821 234 1838.0 217.5Q1855 201 1942 201Q1955 201 1969.5 201.5Q1984 202 1998 203ZM2729 827Q2557 827 2498 715Q2465 652 2465 521V0H2178V1090H2450V900Q2516 1009 2565 1049Q2645 1116 2773 1116Q2781 1116 2786.5 1115.5Q2792 1115 2811 1114V822Q2784 825 2763.0 826.0Q2742 827 2729 827ZM3019 972Q3132 1116 3407 1116Q3586 1116 3725 1045Q3864 974 3864 777V277Q3864 225 3866 151Q3869 95 3883.0 75.0Q3897 55 3925 42V0H3615Q3602 33 3597.0 62.0Q3592 91 3589 128Q3530 64 3453 19Q3361 -34 3245 -34Q3097 -34 3000.5 50.5Q2904 135 2904 290Q2904 491 3059 581Q3144 630 3309 651L3406 663Q3485 673 3519 688Q3580 714 3580 769Q3580 836 3533.5 861.5Q3487 887 3397 887Q3296 887 3254 837Q3224 800 3214 737H2939Q2948 880 3019 972ZM3231 206Q3271 173 3329 173Q3421 173 3498.5 227.0Q3576 281 3579 424V530Q3552 513 3524.5 502.5Q3497 492 3449 483L3385 471Q3295 455 3256 432Q3190 393 3190 311Q3190 238 3231 206ZM4616 203V-10L4481 -15Q4279 -22 4205 55Q4157 104 4157 206V877H4005V1080H4157V1384H4439V1080H4616V877H4439V301Q4439 234 4456.0 217.5Q4473 201 4560 201Q4573 201 4587.5 201.5Q4602 202 4616 203ZM5732 320Q5721 223 5631 123Q5491 -36 5239 -36Q5031 -36 4872.0 98.0Q4713 232 4713 534Q4713 817 4856.5 968.0Q5000 1119 5229 1119Q5365 1119 5474.0 1068.0Q5583 1017 5654 907Q5718 810 5737 682Q5748 607 5746 466H5000Q5006 302 5103 236Q5162 195 5245 195Q5333 195 5388 245Q5418 272 5441 320ZM5450 654Q5443 767 5381.5 825.5Q5320 884 5229 884Q5130 884 5075.5 822.0Q5021 760 5007 654ZM6881 699H6589Q6581 760 6548 809Q6500 875 6399 875Q6255 875 6202 732Q6174 656 6174 530Q6174 410 6202 337Q6253 201 6394 201Q6494 201 6536.0 255.0Q6578 309 6587 395H6878Q6868 265 6784 149Q6650 -38 6387 -38Q6124 -38 6000.0 118.0Q5876 274 5876 523Q5876 804 6013.0 960.0Q6150 1116 6391 1116Q6596 1116 6726.5 1024.0Q6857 932 6881 699ZM8062 640V0H7771V663Q7771 751 7741 805Q7702 881 7593 881Q7480 881 7421.5 805.5Q7363 730 7363 590V0H7079V1469H7363V948Q7425 1043 7506.5 1080.5Q7588 1118 7678 1118Q7779 1118 7861.5 1083.0Q7944 1048 7997 976Q8042 915 8052.0 850.5Q8062 786 8062 640ZM9261 320Q9250 223 9160 123Q9020 -36 8768 -36Q8560 -36 8401.0 98.0Q8242 232 8242 534Q8242 817 8385.5 968.0Q8529 1119 8758 1119Q8894 1119 9003.0 1068.0Q9112 1017 9183 907Q9247 810 9266 682Q9277 607 9275 466H8529Q8535 302 8632 236Q8691 195 8774 195Q8862 195 8917 245Q8947 272 8970 320ZM8979 654Q8972 767 8910.5 825.5Q8849 884 8758 884Q8659 884 8604.5 822.0Q8550 760 8536 654ZM10015 827Q9843 827 9784 715Q9751 652 9751 521V0H9464V1090H9736V900Q9802 1009 9851 1049Q9931 1116 10059 1116Q10067 1116 10072.5 1115.5Q10078 1115 10097 1114V822Q10070 825 10049.0 826.0Q10028 827 10015 827ZM10707 286 10932 1090H11235L10861 18Q10753 -292 10690.0 -366.5Q10627 -441 10438 -441Q10400 -441 10377.0 -440.5Q10354 -440 10308 -437V-209L10344 -211Q10386 -213 10424.0 -208.0Q10462 -203 10488 -185Q10513 -168 10534.5 -114.0Q10556 -60 10552 -48L10152 1090H10469Z"/></g></svg>
