<svg xmlns="http://www.w3.org/2000/svg" width="49" height="22" viewBox="0 0 49 22"><defs><linearGradient id="crisp-grad" gradientUnits="userSpaceOnUse" x1="0" y1="0" x2="5010" y2="0"><stop offset="0%" stop-color="#0A78E8"/><stop offset="50%" stop-color="#0071E3"/><stop offset="100%" stop-color="#006ADD"/></linearGradient></defs><g fill="url(#crisp-grad)" transform="translate(6, 15) scale(0.007812, -0.007812)"><path d="M884 1040Q1012 958 1031 758H746Q740 813 715 845Q668 903 555 903Q462 903 422.5 874.0Q383 845 383 806Q383 757 425 735Q467 712 722 656Q892 616 977 535Q1061 453 1061 330Q1061 168 940.5 65.5Q820 -37 568 -37Q311 -37 188.5 71.5Q66 180 66 348H355Q364 272 394 240Q447 183 590 183Q674 183 723.5 208.0Q773 233 773 283Q773 331 733 356Q693 381 436 442Q251 488 175 557Q99 625 99 753Q99 904 217.5 1012.5Q336 1121 551 1121Q755 1121 884 1040ZM2099 0 1928 794 1755 0H1459L1153 1090H1459L1629 308L1786 1090H2075L2241 305L2411 1090H2708L2392 0ZM3308 286 3533 1090H3836L3462 18Q3354 -292 3291.0 -366.5Q3228 -441 3039 -441Q3001 -441 2978.0 -440.5Q2955 -440 2909 -437V-209L2945 -211Q2987 -213 3025.0 -208.0Q3063 -203 3089 -185Q3114 -168 3135.5 -114.0Q3157 -60 3153 -48L2753 1090H3070ZM4975 0H4620L4432 327L4243 0H3897L4269 552L3913 1088H4262L4444 772L4622 1088H4961L4603 557Z"/></g></svg>
