<svg xmlns="http://www.w3.org/2000/svg" width="149" height="22" viewBox="0 0 149 22"><defs><linearGradient id="crisp-grad" gradientUnits="userSpaceOnUse" x1="0" y1="0" x2="17751" y2="0"><stop offset="0%" stop-color="#0A78E8"/><stop offset="50%" stop-color="#0071E3"/><stop offset="100%" stop-color="#006ADD"/></linearGradient></defs><g fill="url(#crisp-grad)" transform="translate(6, 15) scale(0.007812, -0.007812)"><path d="M1227 1474V1213H786V0H476V1213H33V1474ZM2369 640V0H2078V663Q2078 751 2048 805Q2009 881 1900 881Q1787 881 1728.5 805.5Q1670 730 1670 590V0H1386V1469H1670V948Q1732 1043 1813.5 1080.5Q1895 1118 1985 1118Q2086 1118 2168.5 1083.0Q2251 1048 2304 976Q2349 915 2359.0 850.5Q2369 786 2369 640ZM3568 320Q3557 223 3467 123Q3327 -36 3075 -36Q2867 -36 2708.0 98.0Q2549 232 2549 534Q2549 817 2692.5 968.0Q2836 1119 3065 1119Q3201 1119 3310.0 1068.0Q3419 1017 3490 907Q3554 810 3573 682Q3584 607 3582 466H2836Q2842 302 2939 236Q2998 195 3081 195Q3169 195 3224 245Q3254 272 3277 320ZM3286 654Q3279 767 3217.5 825.5Q3156 884 3065 884Q2966 884 2911.5 822.0Q2857 760 2843 654ZM5406 110Q5241 -41 4984 -41Q4666 -41 4484 163Q4302 368 4302 725Q4302 1111 4509 1320Q4689 1502 4967 1502Q5339 1502 5511 1258Q5606 1121 5613 983H5305Q5275 1089 5228 1143Q5144 1239 4979 1239Q4811 1239 4714.0 1103.5Q4617 968 4617 720Q4617 472 4719.5 348.5Q4822 225 4980 225Q5142 225 5227 331Q5274 388 5305 502H5610Q5570 261 5406 110ZM6731 952Q6869 779 6869 543Q6869 303 6731.0 132.5Q6593 -38 6312 -38Q6031 -38 5893.0 132.5Q5755 303 5755 543Q5755 779 5893.0 952.0Q6031 1125 6312 1125Q6593 1125 6731 952ZM6311 884Q6186 884 6118.5 795.5Q6051 707 6051 543Q6051 379 6118.5 290.0Q6186 201 6311 201Q6436 201 6503.0 290.0Q6570 379 6570 543Q6570 707 6503.0 795.5Q6436 884 6311 884ZM7685 790Q7649 869 7544 869Q7422 869 7380 790Q7357 745 7357 656V0H7068V1088H7345V929Q7398 1014 7445 1050Q7528 1114 7660 1114Q7785 1114 7862 1059Q7924 1008 7956 928Q8012 1024 8095 1069Q8183 1114 8291 1114Q8363 1114 8433.0 1086.0Q8503 1058 8560 988Q8606 931 8622 848Q8632 793 8632 687L8630 0H8338V694Q8338 756 8318 796Q8280 872 8178 872Q8060 872 8015 774Q7992 722 7992 649V0H7705V649Q7705 746 7685 790ZM9187 1090V0H8898V1090ZM9187 1483V1220H8898V1483ZM9976 879Q9831 879 9777 756Q9749 691 9749 590V0H9465V1088H9740V929Q9795 1013 9844 1050Q9932 1116 10067 1116Q10236 1116 10343.5 1027.5Q10451 939 10451 734V0H10159V663Q10159 749 10136 795Q10094 879 9976 879ZM11022 -191Q11068 -230 11177 -230Q11331 -230 11383 -127Q11417 -61 11417 95V165Q11376 95 11329 60Q11244 -5 11108 -5Q10898 -5 10772.5 142.5Q10647 290 10647 542Q10647 785 10768.0 950.5Q10889 1116 11111 1116Q11193 1116 11254 1091Q11358 1048 11422 933V1090H11699V56Q11699 -155 11628 -262Q11506 -446 11160 -446Q10951 -446 10819.0 -364.0Q10687 -282 10673 -119H10983Q10995 -169 11022 -191ZM10974 372Q11032 234 11182 234Q11282 234 11351.0 309.5Q11420 385 11420 550Q11420 705 11354.5 786.0Q11289 867 11179 867Q11029 867 10972 726Q10942 651 10942 541Q10942 446 10974 372ZM13991 1474H14304L13889 0H13595L13417 862L13365 1147L13313 862L13135 0H12849L12431 1474H12758L12953 630L12995 395L13038 625L13204 1474H13529L13704 630L13749 395L13794 621ZM14508 972Q14621 1116 14896 1116Q15075 1116 15214 1045Q15353 974 15353 777V277Q15353 225 15355 151Q15358 95 15372.0 75.0Q15386 55 15414 42V0H15104Q15091 33 15086.0 62.0Q15081 91 15078 128Q15019 64 14942 19Q14850 -34 14734 -34Q14586 -34 14489.5 50.5Q14393 135 14393 290Q14393 491 14548 581Q14633 630 14798 651L14895 663Q14974 673 15008 688Q15069 714 15069 769Q15069 836 15022.5 861.5Q14976 887 14886 887Q14785 887 14743 837Q14713 800 14703 737H14428Q14437 880 14508 972ZM14720 206Q14760 173 14818 173Q14910 173 14987.5 227.0Q15065 281 15068 424V530Q15041 513 15013.5 502.5Q14986 492 14938 483L14874 471Q14784 455 14745 432Q14679 393 14679 311Q14679 238 14720 206ZM15499 1090H15819L16046 286L16278 1090H16584L16191 0H15890ZM17678 320Q17667 223 17577 123Q17437 -36 17185 -36Q16977 -36 16818.0 98.0Q16659 232 16659 534Q16659 817 16802.5 968.0Q16946 1119 17175 1119Q17311 1119 17420.0 1068.0Q17529 1017 17600 907Q17664 810 17683 682Q17694 607 17692 466H16946Q16952 302 17049 236Q17108 195 17191 195Q17279 195 17334 245Q17364 272 17387 320ZM17396 654Q17389 767 17327.5 825.5Q17266 884 17175 884Q17076 884 17021.5 822.0Q16967 760 16953 654Z"/></g></svg>
