<svg xmlns="http://www.w3.org/2000/svg" width="193" height="22" viewBox="0 0 193 22"><defs><linearGradient id="crisp-grad" gradientUnits="userSpaceOnUse" x1="0" y1="0" x2="23445" y2="0"><stop offset="0%" stop-color="#0A78E8"/><stop offset="50%" stop-color="#0071E3"/><stop offset="100%" stop-color="#006ADD"/></linearGradient></defs><g fill="url(#crisp-grad)" transform="translate(6, 15) scale(0.007812, -0.007812)"><path d="M1227 1474V1213H786V0H476V1213H33V1474ZM2369 640V0H2078V663Q2078 751 2048 805Q2009 881 1900 881Q1787 881 1728.5 805.5Q1670 730 1670 590V0H1386V1469H1670V948Q1732 1043 1813.5 1080.5Q1895 1118 1985 1118Q2086 1118 2168.5 1083.0Q2251 1048 2304 976Q2349 915 2359.0 850.5Q2369 786 2369 640ZM3568 320Q3557 223 3467 123Q3327 -36 3075 -36Q2867 -36 2708.0 98.0Q2549 232 2549 534Q2549 817 2692.5 968.0Q2836 1119 3065 1119Q3201 1119 3310.0 1068.0Q3419 1017 3490 907Q3554 810 3573 682Q3584 607 3582 466H2836Q2842 302 2939 236Q2998 195 3081 195Q3169 195 3224 245Q3254 272 3277 320ZM3286 654Q3279 767 3217.5 825.5Q3156 884 3065 884Q2966 884 2911.5 822.0Q2857 760 2843 654ZM4992 530H4679V0H4373V1474H5015Q5237 1474 5369.0 1360.0Q5501 1246 5501 1007Q5501 746 5369.0 638.0Q5237 530 4992 530ZM5136 837Q5196 890 5196 1005Q5196 1120 5135.5 1169.0Q5075 1218 4966 1218H4679V784H4966Q5075 784 5136 837ZM6257 827Q6085 827 6026 715Q5993 652 5993 521V0H5706V1090H5978V900Q6044 1009 6093 1049Q6173 1116 6301 1116Q6309 1116 6314.5 1115.5Q6320 1115 6339 1114V822Q6312 825 6291.0 826.0Q6270 827 6257 827ZM6547 972Q6660 1116 6935 1116Q7114 1116 7253 1045Q7392 974 7392 777V277Q7392 225 7394 151Q7397 95 7411.0 75.0Q7425 55 7453 42V0H7143Q7130 33 7125.0 62.0Q7120 91 7117 128Q7058 64 6981 19Q6889 -34 6773 -34Q6625 -34 6528.5 50.5Q6432 135 6432 290Q6432 491 6587 581Q6672 630 6837 651L6934 663Q7013 673 7047 688Q7108 714 7108 769Q7108 836 7061.5 861.5Q7015 887 6925 887Q6824 887 6782 837Q6752 800 6742 737H6467Q6476 880 6547 972ZM6759 206Q6799 173 6857 173Q6949 173 7026.5 227.0Q7104 281 7107 424V530Q7080 513 7052.5 502.5Q7025 492 6977 483L6913 471Q6823 455 6784 432Q6718 393 6718 311Q6718 238 6759 206ZM7953 -191Q7999 -230 8108 -230Q8262 -230 8314 -127Q8348 -61 8348 95V165Q8307 95 8260 60Q8175 -5 8039 -5Q7829 -5 7703.5 142.5Q7578 290 7578 542Q7578 785 7699.0 950.5Q7820 1116 8042 1116Q8124 1116 8185 1091Q8289 1048 8353 933V1090H8630V56Q8630 -155 8559 -262Q8437 -446 8091 -446Q7882 -446 7750.0 -364.0Q7618 -282 7604 -119H7914Q7926 -169 7953 -191ZM7905 372Q7963 234 8113 234Q8213 234 8282.0 309.5Q8351 385 8351 550Q8351 705 8285.5 786.0Q8220 867 8110 867Q7960 867 7903 726Q7873 651 7873 541Q7873 446 7905 372ZM9508 790Q9472 869 9367 869Q9245 869 9203 790Q9180 745 9180 656V0H8891V1088H9168V929Q9221 1014 9268 1050Q9351 1114 9483 1114Q9608 1114 9685 1059Q9747 1008 9779 928Q9835 1024 9918 1069Q10006 1114 10114 1114Q10186 1114 10256.0 1086.0Q10326 1058 10383 988Q10429 931 10445 848Q10455 793 10455 687L10453 0H10161V694Q10161 756 10141 796Q10103 872 10001 872Q9883 872 9838 774Q9815 722 9815 649V0H9528V649Q9528 746 9508 790ZM10758 972Q10871 1116 11146 1116Q11325 1116 11464 1045Q11603 974 11603 777V277Q11603 225 11605 151Q11608 95 11622.0 75.0Q11636 55 11664 42V0H11354Q11341 33 11336.0 62.0Q11331 91 11328 128Q11269 64 11192 19Q11100 -34 10984 -34Q10836 -34 10739.5 50.5Q10643 135 10643 290Q10643 491 10798 581Q10883 630 11048 651L11145 663Q11224 673 11258 688Q11319 714 11319 769Q11319 836 11272.5 861.5Q11226 887 11136 887Q11035 887 10993 837Q10963 800 10953 737H10678Q10687 880 10758 972ZM10970 206Q11010 173 11068 173Q11160 173 11237.5 227.0Q11315 281 11318 424V530Q11291 513 11263.5 502.5Q11236 492 11188 483L11124 471Q11034 455 10995 432Q10929 393 10929 311Q10929 238 10970 206ZM12355 203V-10L12220 -15Q12018 -22 11944 55Q11896 104 11896 206V877H11744V1080H11896V1384H12178V1080H12355V877H12178V301Q12178 234 12195.0 217.5Q12212 201 12299 201Q12312 201 12326.5 201.5Q12341 202 12355 203ZM12831 1090V0H12542V1090ZM12831 1483V1220H12542V1483ZM14050 699H13758Q13750 760 13717 809Q13669 875 13568 875Q13424 875 13371 732Q13343 656 13343 530Q13343 410 13371 337Q13422 201 13563 201Q13663 201 13705.0 255.0Q13747 309 13756 395H14047Q14037 265 13953 149Q13819 -38 13556 -38Q13293 -38 13169.0 118.0Q13045 274 13045 523Q13045 804 13182.0 960.0Q13319 1116 13560 1116Q13765 1116 13895.5 1024.0Q14026 932 14050 699ZM15864 644H15148V265H15964V0H14847V1474H15928V1213H15148V900H15864ZM16694 879Q16549 879 16495 756Q16467 691 16467 590V0H16183V1088H16458V929Q16513 1013 16562 1050Q16650 1116 16785 1116Q16954 1116 17061.5 1027.5Q17169 939 17169 734V0H16877V663Q16877 749 16854 795Q16812 879 16694 879ZM17740 -191Q17786 -230 17895 -230Q18049 -230 18101 -127Q18135 -61 18135 95V165Q18094 95 18047 60Q17962 -5 17826 -5Q17616 -5 17490.5 142.5Q17365 290 17365 542Q17365 785 17486.0 950.5Q17607 1116 17829 1116Q17911 1116 17972 1091Q18076 1048 18140 933V1090H18417V56Q18417 -155 18346 -262Q18224 -446 17878 -446Q17669 -446 17537.0 -364.0Q17405 -282 17391 -119H17701Q17713 -169 17740 -191ZM17692 372Q17750 234 17900 234Q18000 234 18069.0 309.5Q18138 385 18138 550Q18138 705 18072.5 786.0Q18007 867 17897 867Q17747 867 17690 726Q17660 651 17660 541Q17660 446 17692 372ZM18976 1090V0H18687V1090ZM18976 1483V1220H18687V1483ZM19765 879Q19620 879 19566 756Q19538 691 19538 590V0H19254V1088H19529V929Q19584 1013 19633 1050Q19721 1116 19856 1116Q20025 1116 20132.5 1027.5Q20240 939 20240 734V0H19948V663Q19948 749 19925 795Q19883 879 19765 879ZM21436 320Q21425 223 21335 123Q21195 -36 20943 -36Q20735 -36 20576.0 98.0Q20417 232 20417 534Q20417 817 20560.5 968.0Q20704 1119 20933 1119Q21069 1119 21178.0 1068.0Q21287 1017 21358 907Q21422 810 21441 682Q21452 607 21450 466H20704Q20710 302 20807 236Q20866 195 20949 195Q21037 195 21092 245Q21122 272 21145 320ZM21154 654Q21147 767 21085.5 825.5Q21024 884 20933 884Q20834 884 20779.5 822.0Q20725 760 20711 654ZM22575 320Q22564 223 22474 123Q22334 -36 22082 -36Q21874 -36 21715.0 98.0Q21556 232 21556 534Q21556 817 21699.5 968.0Q21843 1119 22072 1119Q22208 1119 22317.0 1068.0Q22426 1017 22497 907Q22561 810 22580 682Q22591 607 22589 466H21843Q21849 302 21946 236Q22005 195 22088 195Q22176 195 22231 245Q22261 272 22284 320ZM22293 654Q22286 767 22224.5 825.5Q22163 884 22072 884Q21973 884 21918.5 822.0Q21864 760 21850 654ZM23329 827Q23157 827 23098 715Q23065 652 23065 521V0H22778V1090H23050V900Q23116 1009 23165 1049Q23245 1116 23373 1116Q23381 1116 23386.5 1115.5Q23392 1115 23411 1114V822Q23384 825 23363.0 826.0Q23342 827 23329 827Z"/></g></svg>
