<svg xmlns="http://www.w3.org/2000/svg" width="276" height="22" viewBox="0 0 276 22"><defs><linearGradient id="crisp-grad" gradientUnits="userSpaceOnUse" x1="0" y1="0" x2="34022" y2="0"><stop offset="0%" stop-color="#0A78E8"/><stop offset="50%" stop-color="#0071E3"/><stop offset="100%" stop-color="#006ADD"/></linearGradient></defs><g fill="url(#crisp-grad)" transform="translate(6, 15) scale(0.007812, -0.007812)"><path d="M1227 1474V1213H786V0H476V1213H33V1474ZM2369 640V0H2078V663Q2078 751 2048 805Q2009 881 1900 881Q1787 881 1728.5 805.5Q1670 730 1670 590V0H1386V1469H1670V948Q1732 1043 1813.5 1080.5Q1895 1118 1985 1118Q2086 1118 2168.5 1083.0Q2251 1048 2304 976Q2349 915 2359.0 850.5Q2369 786 2369 640ZM3568 320Q3557 223 3467 123Q3327 -36 3075 -36Q2867 -36 2708.0 98.0Q2549 232 2549 534Q2549 817 2692.5 968.0Q2836 1119 3065 1119Q3201 1119 3310.0 1068.0Q3419 1017 3490 907Q3554 810 3573 682Q3584 607 3582 466H2836Q2842 302 2939 236Q2998 195 3081 195Q3169 195 3224 245Q3254 272 3277 320ZM3286 654Q3279 767 3217.5 825.5Q3156 884 3065 884Q2966 884 2911.5 822.0Q2857 760 2843 654ZM5229 303H4686L4584 0H4262L4788 1474H5136L5658 0H5324ZM5143 557 4959 1137 4769 557ZM6370 827Q6198 827 6139 715Q6106 652 6106 521V0H5819V1090H6091V900Q6157 1009 6206 1049Q6286 1116 6414 1116Q6422 1116 6427.5 1115.5Q6433 1115 6452 1114V822Q6425 825 6404.0 826.0Q6383 827 6370 827ZM7118 203V-10L6983 -15Q6781 -22 6707 55Q6659 104 6659 206V877H6507V1080H6659V1384H6941V1080H7118V877H6941V301Q6941 234 6958.0 217.5Q6975 201 7062 201Q7075 201 7089.5 201.5Q7104 202 7118 203ZM8779 952Q8917 779 8917 543Q8917 303 8779.0 132.5Q8641 -38 8360 -38Q8079 -38 7941.0 132.5Q7803 303 7803 543Q7803 779 7941.0 952.0Q8079 1125 8360 1125Q8641 1125 8779 952ZM8359 884Q8234 884 8166.5 795.5Q8099 707 8099 543Q8099 379 8166.5 290.0Q8234 201 8359 201Q8484 201 8551.0 290.0Q8618 379 8618 543Q8618 707 8551.0 795.5Q8484 884 8359 884ZM9632 1483V1251Q9608 1254 9551.5 1255.5Q9495 1257 9473.5 1230.5Q9452 1204 9452 1172V1080H9639V879H9452V0H9168V879H9009V1080H9165V1150Q9165 1325 9224 1391Q9286 1489 9523 1489Q9550 1489 9572.0 1487.5Q9594 1486 9632 1483ZM11258 303H10715L10613 0H10291L10817 1474H11165L11687 0H11353ZM11172 557 10988 1137 10798 557ZM11850 1474H12156V0H11850ZM13638 530H13325V0H13019V1474H13661Q13883 1474 14015.0 1360.0Q14147 1246 14147 1007Q14147 746 14015.0 638.0Q13883 530 13638 530ZM13782 837Q13842 890 13842 1005Q13842 1120 13781.5 1169.0Q13721 1218 13612 1218H13325V784H13612Q13721 784 13782 837ZM14903 827Q14731 827 14672 715Q14639 652 14639 521V0H14352V1090H14624V900Q14690 1009 14739 1049Q14819 1116 14947 1116Q14955 1116 14960.5 1115.5Q14966 1115 14985 1114V822Q14958 825 14937.0 826.0Q14916 827 14903 827ZM16061 952Q16199 779 16199 543Q16199 303 16061.0 132.5Q15923 -38 15642 -38Q15361 -38 15223.0 132.5Q15085 303 15085 543Q15085 779 15223.0 952.0Q15361 1125 15642 1125Q15923 1125 16061 952ZM15641 884Q15516 884 15448.5 795.5Q15381 707 15381 543Q15381 379 15448.5 290.0Q15516 201 15641 201Q15766 201 15833.0 290.0Q15900 379 15900 543Q15900 707 15833.0 795.5Q15766 884 15641 884ZM17395 1472V0H17118V151Q17057 54 16979.0 10.0Q16901 -34 16785 -34Q16594 -34 16463.5 120.5Q16333 275 16333 517Q16333 796 16461.5 956.0Q16590 1116 16805 1116Q16904 1116 16981.0 1072.5Q17058 1029 17106 952V1472ZM16627 538Q16627 387 16687 297Q16746 206 16867 206Q16988 206 17051.0 296.0Q17114 386 17114 529Q17114 729 17013 815Q16951 867 16869 867Q16744 867 16685.5 772.5Q16627 678 16627 538ZM18353 154Q18349 149 18333.0 124.0Q18317 99 18295 80Q18228 20 18165.5 -2.0Q18103 -24 18019 -24Q17777 -24 17693 150Q17646 246 17646 433V1090H17938V433Q17938 340 17960 293Q17999 210 18113 210Q18259 210 18313 328Q18341 392 18341 497V1090H18630V0H18353ZM19848 699H19556Q19548 760 19515 809Q19467 875 19366 875Q19222 875 19169 732Q19141 656 19141 530Q19141 410 19169 337Q19220 201 19361 201Q19461 201 19503.0 255.0Q19545 309 19554 395H19845Q19835 265 19751 149Q19617 -38 19354 -38Q19091 -38 18967.0 118.0Q18843 274 18843 523Q18843 804 18980.0 960.0Q19117 1116 19358 1116Q19563 1116 19693.5 1024.0Q19824 932 19848 699ZM20543 203V-10L20408 -15Q20206 -22 20132 55Q20084 104 20084 206V877H19932V1080H20084V1384H20366V1080H20543V877H20366V301Q20366 234 20383.0 217.5Q20400 201 20487 201Q20500 201 20514.5 201.5Q20529 202 20543 203ZM21953 0H21318V1474H21953Q22090 1472 22181 1442Q22336 1391 22432 1255Q22509 1145 22537.0 1017.0Q22565 889 22565 773Q22565 479 22447 275Q22287 0 21953 0ZM22182 1098Q22111 1218 21901 1218H21617V256H21901Q22119 256 22205 471Q22252 589 22252 752Q22252 977 22182 1098ZM23707 320Q23696 223 23606 123Q23466 -36 23214 -36Q23006 -36 22847.0 98.0Q22688 232 22688 534Q22688 817 22831.5 968.0Q22975 1119 23204 1119Q23340 1119 23449.0 1068.0Q23558 1017 23629 907Q23693 810 23712 682Q23723 607 23721 466H22975Q22981 302 23078 236Q23137 195 23220 195Q23308 195 23363 245Q23393 272 23416 320ZM23425 654Q23418 767 23356.5 825.5Q23295 884 23204 884Q23105 884 23050.5 822.0Q22996 760 22982 654ZM23806 1090H24126L24353 286L24585 1090H24891L24498 0H24197ZM25985 320Q25974 223 25884 123Q25744 -36 25492 -36Q25284 -36 25125.0 98.0Q24966 232 24966 534Q24966 817 25109.5 968.0Q25253 1119 25482 1119Q25618 1119 25727.0 1068.0Q25836 1017 25907 907Q25971 810 25990 682Q26001 607 25999 466H25253Q25259 302 25356 236Q25415 195 25498 195Q25586 195 25641 245Q25671 272 25694 320ZM25703 654Q25696 767 25634.5 825.5Q25573 884 25482 884Q25383 884 25328.5 822.0Q25274 760 25260 654ZM26197 1474H26482V0H26197ZM27669 952Q27807 779 27807 543Q27807 303 27669.0 132.5Q27531 -38 27250 -38Q26969 -38 26831.0 132.5Q26693 303 26693 543Q26693 779 26831.0 952.0Q26969 1125 27250 1125Q27531 1125 27669 952ZM27249 884Q27124 884 27056.5 795.5Q26989 707 26989 543Q26989 379 27056.5 290.0Q27124 201 27249 201Q27374 201 27441.0 290.0Q27508 379 27508 543Q27508 707 27441.0 795.5Q27374 884 27249 884ZM28924 973Q29056 832 29056 559Q29056 271 28926.5 120.0Q28797 -31 28593 -31Q28463 -31 28377 34Q28330 70 28285 139V-429H28003V1090H28276V929Q28322 1000 28374 1041Q28469 1114 28600 1114Q28791 1114 28924 973ZM28762 545Q28762 671 28704.5 768.0Q28647 865 28518 865Q28363 865 28305 718Q28275 640 28275 520Q28275 330 28376 253Q28436 208 28518 208Q28637 208 28699.5 300.0Q28762 392 28762 545ZM29874 790Q29838 869 29733 869Q29611 869 29569 790Q29546 745 29546 656V0H29257V1088H29534V929Q29587 1014 29634 1050Q29717 1114 29849 1114Q29974 1114 30051 1059Q30113 1008 30145 928Q30201 1024 30284 1069Q30372 1114 30480 1114Q30552 1114 30622.0 1086.0Q30692 1058 30749 988Q30795 931 30811 848Q30821 793 30821 687L30819 0H30527V694Q30527 756 30507 796Q30469 872 30367 872Q30249 872 30204 774Q30181 722 30181 649V0H29894V649Q29894 746 29874 790ZM32016 320Q32005 223 31915 123Q31775 -36 31523 -36Q31315 -36 31156.0 98.0Q30997 232 30997 534Q30997 817 31140.5 968.0Q31284 1119 31513 1119Q31649 1119 31758.0 1068.0Q31867 1017 31938 907Q32002 810 32021 682Q32032 607 32030 466H31284Q31290 302 31387 236Q31446 195 31529 195Q31617 195 31672 245Q31702 272 31725 320ZM31734 654Q31727 767 31665.5 825.5Q31604 884 31513 884Q31414 884 31359.5 822.0Q31305 760 31291 654ZM32735 879Q32590 879 32536 756Q32508 691 32508 590V0H32224V1088H32499V929Q32554 1013 32603 1050Q32691 1116 32826 1116Q32995 1116 33102.5 1027.5Q33210 939 33210 734V0H32918V663Q32918 749 32895 795Q32853 879 32735 879ZM33972 203V-10L33837 -15Q33635 -22 33561 55Q33513 104 33513 206V877H33361V1080H33513V1384H33795V1080H33972V877H33795V301Q33795 234 33812.0 217.5Q33829 201 33916 201Q33929 201 33943.5 201.5Q33958 202 33972 203Z"/></g></svg>
