<svg xmlns="http://www.w3.org/2000/svg" width="218" height="22" viewBox="0 0 218 22"><defs><linearGradient id="crisp-grad" gradientUnits="userSpaceOnUse" x1="0" y1="0" x2="26628" y2="0"><stop offset="0%" stop-color="#0A78E8"/><stop offset="50%" stop-color="#0071E3"/><stop offset="100%" stop-color="#006ADD"/></linearGradient></defs><g fill="url(#crisp-grad)" transform="translate(6, 15) scale(0.007812, -0.007812)"><path d="M1227 1474V1213H786V0H476V1213H33V1474ZM2369 640V0H2078V663Q2078 751 2048 805Q2009 881 1900 881Q1787 881 1728.5 805.5Q1670 730 1670 590V0H1386V1469H1670V948Q1732 1043 1813.5 1080.5Q1895 1118 1985 1118Q2086 1118 2168.5 1083.0Q2251 1048 2304 976Q2349 915 2359.0 850.5Q2369 786 2369 640ZM3568 320Q3557 223 3467 123Q3327 -36 3075 -36Q2867 -36 2708.0 98.0Q2549 232 2549 534Q2549 817 2692.5 968.0Q2836 1119 3065 1119Q3201 1119 3310.0 1068.0Q3419 1017 3490 907Q3554 810 3573 682Q3584 607 3582 466H2836Q2842 302 2939 236Q2998 195 3081 195Q3169 195 3224 245Q3254 272 3277 320ZM3286 654Q3279 767 3217.5 825.5Q3156 884 3065 884Q2966 884 2911.5 822.0Q2857 760 2843 654ZM4992 578H4674V0H4373V1474H5096Q5251 1471 5334.5 1436.0Q5418 1401 5476 1333Q5524 1277 5552.0 1209.0Q5580 1141 5580 1054Q5580 949 5527.0 847.5Q5474 746 5352 704Q5454 663 5496.5 587.5Q5539 512 5539 357V258Q5539 157 5547 121Q5559 64 5603 37V0H5264Q5250 49 5244 79Q5232 141 5231 206L5229 343Q5227 484 5177.5 531.0Q5128 578 4992 578ZM5179 846Q5271 888 5271 1012Q5271 1146 5182 1192Q5132 1218 5032 1218H4674V822H5023Q5127 822 5179 846ZM6115 1090V0H5826V1090ZM6115 1483V1220H5826V1483ZM7142 1040Q7270 958 7289 758H7004Q6998 813 6973 845Q6926 903 6813 903Q6720 903 6680.5 874.0Q6641 845 6641 806Q6641 757 6683 735Q6725 712 6980 656Q7150 616 7235 535Q7319 453 7319 330Q7319 168 7198.5 65.5Q7078 -37 6826 -37Q6569 -37 6446.5 71.5Q6324 180 6324 348H6613Q6622 272 6652 240Q6705 183 6848 183Q6932 183 6981.5 208.0Q7031 233 7031 283Q7031 331 6991 356Q6951 381 6694 442Q6509 488 6433 557Q6357 625 6357 753Q6357 904 6475.5 1012.5Q6594 1121 6809 1121Q7013 1121 7142 1040ZM8463 320Q8452 223 8362 123Q8222 -36 7970 -36Q7762 -36 7603.0 98.0Q7444 232 7444 534Q7444 817 7587.5 968.0Q7731 1119 7960 1119Q8096 1119 8205.0 1068.0Q8314 1017 8385 907Q8449 810 8468 682Q8479 607 8477 466H7731Q7737 302 7834 236Q7893 195 7976 195Q8064 195 8119 245Q8149 272 8172 320ZM8181 654Q8174 767 8112.5 825.5Q8051 884 7960 884Q7861 884 7806.5 822.0Q7752 760 7738 654ZM10147 952Q10285 779 10285 543Q10285 303 10147.0 132.5Q10009 -38 9728 -38Q9447 -38 9309.0 132.5Q9171 303 9171 543Q9171 779 9309.0 952.0Q9447 1125 9728 1125Q10009 1125 10147 952ZM9727 884Q9602 884 9534.5 795.5Q9467 707 9467 543Q9467 379 9534.5 290.0Q9602 201 9727 201Q9852 201 9919.0 290.0Q9986 379 9986 543Q9986 707 9919.0 795.5Q9852 884 9727 884ZM11000 1483V1251Q10976 1254 10919.5 1255.5Q10863 1257 10841.5 1230.5Q10820 1204 10820 1172V1080H11007V879H10820V0H10536V879H10377V1080H10533V1150Q10533 1325 10592 1391Q10654 1489 10891 1489Q10918 1489 10940.0 1487.5Q10962 1486 11000 1483ZM12239 203V-10L12104 -15Q11902 -22 11828 55Q11780 104 11780 206V877H11628V1080H11780V1384H12062V1080H12239V877H12062V301Q12062 234 12079.0 217.5Q12096 201 12183 201Q12196 201 12210.5 201.5Q12225 202 12239 203ZM13407 640V0H13116V663Q13116 751 13086 805Q13047 881 12938 881Q12825 881 12766.5 805.5Q12708 730 12708 590V0H12424V1469H12708V948Q12770 1043 12851.5 1080.5Q12933 1118 13023 1118Q13124 1118 13206.5 1083.0Q13289 1048 13342 976Q13387 915 13397.0 850.5Q13407 786 13407 640ZM14606 320Q14595 223 14505 123Q14365 -36 14113 -36Q13905 -36 13746.0 98.0Q13587 232 13587 534Q13587 817 13730.5 968.0Q13874 1119 14103 1119Q14239 1119 14348.0 1068.0Q14457 1017 14528 907Q14592 810 14611 682Q14622 607 14620 466H13874Q13880 302 13977 236Q14036 195 14119 195Q14207 195 14262 245Q14292 272 14315 320ZM14324 654Q14317 767 14255.5 825.5Q14194 884 14103 884Q14004 884 13949.5 822.0Q13895 760 13881 654ZM16267 303H15724L15622 0H15300L15826 1474H16174L16696 0H16362ZM16181 557 15997 1137 15807 557ZM16859 1474H17165V0H16859ZM19047 644H18331V265H19147V0H18030V1474H19111V1213H18331V900H19047ZM19877 879Q19732 879 19678 756Q19650 691 19650 590V0H19366V1088H19641V929Q19696 1013 19745 1050Q19833 1116 19968 1116Q20137 1116 20244.5 1027.5Q20352 939 20352 734V0H20060V663Q20060 749 20037 795Q19995 879 19877 879ZM20923 -191Q20969 -230 21078 -230Q21232 -230 21284 -127Q21318 -61 21318 95V165Q21277 95 21230 60Q21145 -5 21009 -5Q20799 -5 20673.5 142.5Q20548 290 20548 542Q20548 785 20669.0 950.5Q20790 1116 21012 1116Q21094 1116 21155 1091Q21259 1048 21323 933V1090H21600V56Q21600 -155 21529 -262Q21407 -446 21061 -446Q20852 -446 20720.0 -364.0Q20588 -282 20574 -119H20884Q20896 -169 20923 -191ZM20875 372Q20933 234 21083 234Q21183 234 21252.0 309.5Q21321 385 21321 550Q21321 705 21255.5 786.0Q21190 867 21080 867Q20930 867 20873 726Q20843 651 20843 541Q20843 446 20875 372ZM22159 1090V0H21870V1090ZM22159 1483V1220H21870V1483ZM22948 879Q22803 879 22749 756Q22721 691 22721 590V0H22437V1088H22712V929Q22767 1013 22816 1050Q22904 1116 23039 1116Q23208 1116 23315.5 1027.5Q23423 939 23423 734V0H23131V663Q23131 749 23108 795Q23066 879 22948 879ZM24619 320Q24608 223 24518 123Q24378 -36 24126 -36Q23918 -36 23759.0 98.0Q23600 232 23600 534Q23600 817 23743.5 968.0Q23887 1119 24116 1119Q24252 1119 24361.0 1068.0Q24470 1017 24541 907Q24605 810 24624 682Q24635 607 24633 466H23887Q23893 302 23990 236Q24049 195 24132 195Q24220 195 24275 245Q24305 272 24328 320ZM24337 654Q24330 767 24268.5 825.5Q24207 884 24116 884Q24017 884 23962.5 822.0Q23908 760 23894 654ZM25758 320Q25747 223 25657 123Q25517 -36 25265 -36Q25057 -36 24898.0 98.0Q24739 232 24739 534Q24739 817 24882.5 968.0Q25026 1119 25255 1119Q25391 1119 25500.0 1068.0Q25609 1017 25680 907Q25744 810 25763 682Q25774 607 25772 466H25026Q25032 302 25129 236Q25188 195 25271 195Q25359 195 25414 245Q25444 272 25467 320ZM25476 654Q25469 767 25407.5 825.5Q25346 884 25255 884Q25156 884 25101.5 822.0Q25047 760 25033 654ZM26512 827Q26340 827 26281 715Q26248 652 26248 521V0H25961V1090H26233V900Q26299 1009 26348 1049Q26428 1116 26556 1116Q26564 1116 26569.5 1115.5Q26575 1115 26594 1114V822Q26567 825 26546.0 826.0Q26525 827 26512 827Z"/></g></svg>
