<svg xmlns="http://www.w3.org/2000/svg" width="218" height="22" viewBox="0 0 218 22"><defs><linearGradient id="crisp-grad" gradientUnits="userSpaceOnUse" x1="0" y1="0" x2="26630" y2="0"><stop offset="0%" stop-color="#0A78E8"/><stop offset="50%" stop-color="#0071E3"/><stop offset="100%" stop-color="#006ADD"/></linearGradient></defs><g fill="url(#crisp-grad)" transform="translate(6, 15) scale(0.007812, -0.007812)"><path d="M1227 1474V1213H786V0H476V1213H33V1474ZM2369 640V0H2078V663Q2078 751 2048 805Q2009 881 1900 881Q1787 881 1728.5 805.5Q1670 730 1670 590V0H1386V1469H1670V948Q1732 1043 1813.5 1080.5Q1895 1118 1985 1118Q2086 1118 2168.5 1083.0Q2251 1048 2304 976Q2349 915 2359.0 850.5Q2369 786 2369 640ZM3568 320Q3557 223 3467 123Q3327 -36 3075 -36Q2867 -36 2708.0 98.0Q2549 232 2549 534Q2549 817 2692.5 968.0Q2836 1119 3065 1119Q3201 1119 3310.0 1068.0Q3419 1017 3490 907Q3554 810 3573 682Q3584 607 3582 466H2836Q2842 302 2939 236Q2998 195 3081 195Q3169 195 3224 245Q3254 272 3277 320ZM3286 654Q3279 767 3217.5 825.5Q3156 884 3065 884Q2966 884 2911.5 822.0Q2857 760 2843 654ZM4901 213Q5010 213 5078 237Q5207 283 5207 408Q5207 481 5143 521Q5079 560 4942 590L4786 625Q4556 677 4468 738Q4319 840 4319 1057Q4319 1255 4463.0 1386.0Q4607 1517 4886 1517Q5119 1517 5283.5 1393.5Q5448 1270 5456 1035H5160Q5152 1168 5044 1224Q4972 1261 4865 1261Q4746 1261 4675.0 1213.0Q4604 1165 4604 1079Q4604 1000 4674 961Q4719 935 4866 900L5120 839Q5287 799 5372 732Q5504 628 5504 431Q5504 229 5349.5 95.5Q5195 -38 4913 -38Q4625 -38 4460.0 93.5Q4295 225 4295 455H4589Q4603 354 4644 304Q4719 213 4901 213ZM6208 203V-10L6073 -15Q5871 -22 5797 55Q5749 104 5749 206V877H5597V1080H5749V1384H6031V1080H6208V877H6031V301Q6031 234 6048.0 217.5Q6065 201 6152 201Q6165 201 6179.5 201.5Q6194 202 6208 203ZM6432 972Q6545 1116 6820 1116Q6999 1116 7138 1045Q7277 974 7277 777V277Q7277 225 7279 151Q7282 95 7296.0 75.0Q7310 55 7338 42V0H7028Q7015 33 7010.0 62.0Q7005 91 7002 128Q6943 64 6866 19Q6774 -34 6658 -34Q6510 -34 6413.5 50.5Q6317 135 6317 290Q6317 491 6472 581Q6557 630 6722 651L6819 663Q6898 673 6932 688Q6993 714 6993 769Q6993 836 6946.5 861.5Q6900 887 6810 887Q6709 887 6667 837Q6637 800 6627 737H6352Q6361 880 6432 972ZM6644 206Q6684 173 6742 173Q6834 173 6911.5 227.0Q6989 281 6992 424V530Q6965 513 6937.5 502.5Q6910 492 6862 483L6798 471Q6708 455 6669 432Q6603 393 6603 311Q6603 238 6644 206ZM8029 203V-10L7894 -15Q7692 -22 7618 55Q7570 104 7570 206V877H7418V1080H7570V1384H7852V1080H8029V877H7852V301Q7852 234 7869.0 217.5Q7886 201 7973 201Q7986 201 8000.5 201.5Q8015 202 8029 203ZM9145 320Q9134 223 9044 123Q8904 -36 8652 -36Q8444 -36 8285.0 98.0Q8126 232 8126 534Q8126 817 8269.5 968.0Q8413 1119 8642 1119Q8778 1119 8887.0 1068.0Q8996 1017 9067 907Q9131 810 9150 682Q9161 607 9159 466H8413Q8419 302 8516 236Q8575 195 8658 195Q8746 195 8801 245Q8831 272 8854 320ZM8863 654Q8856 767 8794.5 825.5Q8733 884 8642 884Q8543 884 8488.5 822.0Q8434 760 8420 654ZM10829 952Q10967 779 10967 543Q10967 303 10829.0 132.5Q10691 -38 10410 -38Q10129 -38 9991.0 132.5Q9853 303 9853 543Q9853 779 9991.0 952.0Q10129 1125 10410 1125Q10691 1125 10829 952ZM10409 884Q10284 884 10216.5 795.5Q10149 707 10149 543Q10149 379 10216.5 290.0Q10284 201 10409 201Q10534 201 10601.0 290.0Q10668 379 10668 543Q10668 707 10601.0 795.5Q10534 884 10409 884ZM11682 1483V1251Q11658 1254 11601.5 1255.5Q11545 1257 11523.5 1230.5Q11502 1204 11502 1172V1080H11689V879H11502V0H11218V879H11059V1080H11215V1150Q11215 1325 11274 1391Q11336 1489 11573 1489Q11600 1489 11622.0 1487.5Q11644 1486 11682 1483ZM13308 303H12765L12663 0H12341L12867 1474H13215L13737 0H13403ZM13222 557 13038 1137 12848 557ZM13900 1474H14206V0H13900ZM15688 578H15370V0H15069V1474H15792Q15947 1471 16030.5 1436.0Q16114 1401 16172 1333Q16220 1277 16248.0 1209.0Q16276 1141 16276 1054Q16276 949 16223.0 847.5Q16170 746 16048 704Q16150 663 16192.5 587.5Q16235 512 16235 357V258Q16235 157 16243 121Q16255 64 16299 37V0H15960Q15946 49 15940 79Q15928 141 15927 206L15925 343Q15923 484 15873.5 531.0Q15824 578 15688 578ZM15875 846Q15967 888 15967 1012Q15967 1146 15878 1192Q15828 1218 15728 1218H15370V822H15719Q15823 822 15875 846ZM17451 320Q17440 223 17350 123Q17210 -36 16958 -36Q16750 -36 16591.0 98.0Q16432 232 16432 534Q16432 817 16575.5 968.0Q16719 1119 16948 1119Q17084 1119 17193.0 1068.0Q17302 1017 17373 907Q17437 810 17456 682Q17467 607 17465 466H16719Q16725 302 16822 236Q16881 195 16964 195Q17052 195 17107 245Q17137 272 17160 320ZM17169 654Q17162 767 17100.5 825.5Q17039 884 16948 884Q16849 884 16794.5 822.0Q16740 760 16726 654ZM18570 973Q18702 832 18702 559Q18702 271 18572.5 120.0Q18443 -31 18239 -31Q18109 -31 18023 34Q17976 70 17931 139V-429H17649V1090H17922V929Q17968 1000 18020 1041Q18115 1114 18246 1114Q18437 1114 18570 973ZM18408 545Q18408 671 18350.5 768.0Q18293 865 18164 865Q18009 865 17951 718Q17921 640 17921 520Q17921 330 18022 253Q18082 208 18164 208Q18283 208 18345.5 300.0Q18408 392 18408 545ZM19817 952Q19955 779 19955 543Q19955 303 19817.0 132.5Q19679 -38 19398 -38Q19117 -38 18979.0 132.5Q18841 303 18841 543Q18841 779 18979.0 952.0Q19117 1125 19398 1125Q19679 1125 19817 952ZM19397 884Q19272 884 19204.5 795.5Q19137 707 19137 543Q19137 379 19204.5 290.0Q19272 201 19397 201Q19522 201 19589.0 290.0Q19656 379 19656 543Q19656 707 19589.0 795.5Q19522 884 19397 884ZM20707 827Q20535 827 20476 715Q20443 652 20443 521V0H20156V1090H20428V900Q20494 1009 20543 1049Q20623 1116 20751 1116Q20759 1116 20764.5 1115.5Q20770 1115 20789 1114V822Q20762 825 20741.0 826.0Q20720 827 20707 827ZM21455 203V-10L21320 -15Q21118 -22 21044 55Q20996 104 20996 206V877H20844V1080H20996V1384H21278V1080H21455V877H21278V301Q21278 234 21295.0 217.5Q21312 201 21399 201Q21412 201 21426.5 201.5Q21441 202 21455 203ZM22786 1155Q22735 1216 22640 1216Q22510 1216 22463 1119Q22436 1063 22431 941H22154Q22161 1126 22221 1240Q22335 1457 22626 1457Q22856 1457 22992.0 1329.5Q23128 1202 23128 992Q23128 831 23032 706Q22969 623 22825 521L22711 440Q22604 364 22564.5 330.0Q22525 296 22498 251H23131V0H22138Q22142 156 22205 285Q22266 430 22493 592Q22690 733 22748 794Q22837 889 22837 1002Q22837 1094 22786 1155ZM23777 -36Q23500 -36 23388.5 158.0Q23277 352 23277 711Q23277 1070 23388.5 1265.0Q23500 1460 23777 1460Q24054 1460 24166 1265Q24277 1070 24277 711Q24277 352 24165.5 158.0Q24054 -36 23777 -36ZM23944 329Q23983 461 23983 711Q23983 973 23943.5 1099.0Q23904 1225 23777 1225Q23650 1225 23609.0 1099.0Q23568 973 23568 711Q23568 461 23609.0 328.5Q23650 196 23777 196Q23904 196 23944 329ZM25064 1155Q25013 1216 24918 1216Q24788 1216 24741 1119Q24714 1063 24709 941H24432Q24439 1126 24499 1240Q24613 1457 24904 1457Q25134 1457 25270.0 1329.5Q25406 1202 25406 992Q25406 831 25310 706Q25247 623 25103 521L24989 440Q24882 364 24842.5 330.0Q24803 296 24776 251H25409V0H24416Q24420 156 24483 285Q24544 430 24771 592Q24968 733 25026 794Q25115 889 25115 1002Q25115 1094 25064 1155ZM26037 720Q25985 720 25947 707Q25880 683 25846 618L25590 630L25692 1431H26491V1189H25898L25846 872Q25912 915 25949 929Q26011 952 26100 952Q26280 952 26414.0 831.0Q26548 710 26548 479Q26548 278 26419.0 120.0Q26290 -38 26033 -38Q25826 -38 25693.0 73.0Q25560 184 25545 388H25829Q25846 295 25894.0 244.5Q25942 194 26034 194Q26140 194 26195.5 268.5Q26251 343 26251 456Q26251 567 26199.0 643.5Q26147 720 26037 720Z"/></g></svg>
