<svg xmlns="http://www.w3.org/2000/svg" width="116" height="22" viewBox="0 0 116 22"><defs><linearGradient id="crisp-grad" gradientUnits="userSpaceOnUse" x1="0" y1="0" x2="13540" y2="0"><stop offset="0%" stop-color="#0A78E8"/><stop offset="50%" stop-color="#0071E3"/><stop offset="100%" stop-color="#006ADD"/></linearGradient></defs><g fill="url(#crisp-grad)" transform="translate(6, 15) scale(0.007812, -0.007812)"><path d="M1227 1474V1213H786V0H476V1213H33V1474ZM2293 952Q2431 779 2431 543Q2431 303 2293.0 132.5Q2155 -38 1874 -38Q1593 -38 1455.0 132.5Q1317 303 1317 543Q1317 779 1455.0 952.0Q1593 1125 1874 1125Q2155 1125 2293 952ZM1873 884Q1748 884 1680.5 795.5Q1613 707 1613 543Q1613 379 1680.5 290.0Q1748 201 1873 201Q1998 201 2065.0 290.0Q2132 379 2132 543Q2132 707 2065.0 795.5Q1998 884 1873 884ZM3544 952Q3682 779 3682 543Q3682 303 3544.0 132.5Q3406 -38 3125 -38Q2844 -38 2706.0 132.5Q2568 303 2568 543Q2568 779 2706.0 952.0Q2844 1125 3125 1125Q3406 1125 3544 952ZM3124 884Q2999 884 2931.5 795.5Q2864 707 2864 543Q2864 379 2931.5 290.0Q2999 201 3124 201Q3249 201 3316.0 290.0Q3383 379 3383 543Q3383 707 3316.0 795.5Q3249 884 3124 884ZM3892 1474H4177V0H3892ZM5206 1040Q5334 958 5353 758H5068Q5062 813 5037 845Q4990 903 4877 903Q4784 903 4744.5 874.0Q4705 845 4705 806Q4705 757 4747 735Q4789 712 5044 656Q5214 616 5299 535Q5383 453 5383 330Q5383 168 5262.5 65.5Q5142 -37 4890 -37Q4633 -37 4510.5 71.5Q4388 180 4388 348H4677Q4686 272 4716 240Q4769 183 4912 183Q4996 183 5045.5 208.0Q5095 233 5095 283Q5095 331 5055 356Q5015 381 4758 442Q4573 488 4497 557Q4421 625 4421 753Q4421 904 4539.5 1012.5Q4658 1121 4873 1121Q5077 1121 5206 1040ZM6674 1483V1251Q6650 1254 6593.5 1255.5Q6537 1257 6515.5 1230.5Q6494 1204 6494 1172V1080H6681V879H6494V0H6210V879H6051V1080H6207V1150Q6207 1325 6266 1391Q6328 1489 6565 1489Q6592 1489 6614.0 1487.5Q6636 1486 6674 1483ZM7754 952Q7892 779 7892 543Q7892 303 7754.0 132.5Q7616 -38 7335 -38Q7054 -38 6916.0 132.5Q6778 303 6778 543Q6778 779 6916.0 952.0Q7054 1125 7335 1125Q7616 1125 7754 952ZM7334 884Q7209 884 7141.5 795.5Q7074 707 7074 543Q7074 379 7141.5 290.0Q7209 201 7334 201Q7459 201 7526.0 290.0Q7593 379 7593 543Q7593 707 7526.0 795.5Q7459 884 7334 884ZM8644 827Q8472 827 8413 715Q8380 652 8380 521V0H8093V1090H8365V900Q8431 1009 8480 1049Q8560 1116 8688 1116Q8696 1116 8701.5 1115.5Q8707 1115 8726 1114V822Q8699 825 8678.0 826.0Q8657 827 8644 827ZM10111 530H9798V0H9492V1474H10134Q10356 1474 10488.0 1360.0Q10620 1246 10620 1007Q10620 746 10488.0 638.0Q10356 530 10111 530ZM10255 837Q10315 890 10315 1005Q10315 1120 10254.5 1169.0Q10194 1218 10085 1218H9798V784H10085Q10194 784 10255 837ZM11133 0H10846V1474H11294L11562 315L11828 1474H12271V0H11984V997Q11984 1040 11985.0 1117.5Q11986 1195 11986 1237L11707 0H11408L11131 1237Q11131 1195 11132.0 1117.5Q11133 1040 11133 997ZM13285 1040Q13413 958 13432 758H13147Q13141 813 13116 845Q13069 903 12956 903Q12863 903 12823.5 874.0Q12784 845 12784 806Q12784 757 12826 735Q12868 712 13123 656Q13293 616 13378 535Q13462 453 13462 330Q13462 168 13341.5 65.5Q13221 -37 12969 -37Q12712 -37 12589.5 71.5Q12467 180 12467 348H12756Q12765 272 12795 240Q12848 183 12991 183Q13075 183 13124.5 208.0Q13174 233 13174 283Q13174 331 13134 356Q13094 381 12837 442Q12652 488 12576 557Q12500 625 12500 753Q12500 904 12618.5 1012.5Q12737 1121 12952 1121Q13156 1121 13285 1040Z"/></g></svg>
