<svg xmlns="http://www.w3.org/2000/svg" width="28" height="22" viewBox="0 0 28 22"><defs><linearGradient id="crisp-grad" gradientUnits="userSpaceOnUse" x1="0" y1="0" x2="2278" y2="0"><stop offset="0%" stop-color="#0A78E8"/><stop offset="50%" stop-color="#0071E3"/><stop offset="100%" stop-color="#006ADD"/></linearGradient></defs><g fill="url(#crisp-grad)" transform="translate(6, 15) scale(0.007812, -0.007812)"><path d="M26 1090H346L573 286L805 1090H1111L718 0H417ZM1703 -36Q1426 -36 1314.5 158.0Q1203 352 1203 711Q1203 1070 1314.5 1265.0Q1426 1460 1703 1460Q1980 1460 2092 1265Q2203 1070 2203 711Q2203 352 2091.5 158.0Q1980 -36 1703 -36ZM1870 329Q1909 461 1909 711Q1909 973 1869.5 1099.0Q1830 1225 1703 1225Q1576 1225 1535.0 1099.0Q1494 973 1494 711Q1494 461 1535.0 328.5Q1576 196 1703 196Q1830 196 1870 329Z"/></g></svg>
