<svg xmlns="http://www.w3.org/2000/svg" width="175" height="22" viewBox="0 0 175 22"><defs><linearGradient id="crisp-grad" gradientUnits="userSpaceOnUse" x1="0" y1="0" x2="21166" y2="0"><stop offset="0%" stop-color="#0A78E8"/><stop offset="50%" stop-color="#0071E3"/><stop offset="100%" stop-color="#006ADD"/></linearGradient></defs><g fill="url(#crisp-grad)" transform="translate(6, 15) scale(0.007812, -0.007812)"><path d="M1590 1474H1903L1488 0H1194L1016 862L964 1147L912 862L734 0H448L30 1474H357L552 630L594 395L637 625L803 1474H1128L1303 630L1348 395L1393 621ZM2614 827Q2442 827 2383 715Q2350 652 2350 521V0H2063V1090H2335V900Q2401 1009 2450 1049Q2530 1116 2658 1116Q2666 1116 2671.5 1115.5Q2677 1115 2696 1114V822Q2669 825 2648.0 826.0Q2627 827 2614 827ZM3156 1090V0H2867V1090ZM3156 1483V1220H2867V1483ZM3931 203V-10L3796 -15Q3594 -22 3520 55Q3472 104 3472 206V877H3320V1080H3472V1384H3754V1080H3931V877H3754V301Q3754 234 3771.0 217.5Q3788 201 3875 201Q3888 201 3902.5 201.5Q3917 202 3931 203ZM4407 1090V0H4118V1090ZM4407 1483V1220H4118V1483ZM5196 879Q5051 879 4997 756Q4969 691 4969 590V0H4685V1088H4960V929Q5015 1013 5064 1050Q5152 1116 5287 1116Q5456 1116 5563.5 1027.5Q5671 939 5671 734V0H5379V663Q5379 749 5356 795Q5314 879 5196 879ZM6242 -191Q6288 -230 6397 -230Q6551 -230 6603 -127Q6637 -61 6637 95V165Q6596 95 6549 60Q6464 -5 6328 -5Q6118 -5 5992.5 142.5Q5867 290 5867 542Q5867 785 5988.0 950.5Q6109 1116 6331 1116Q6413 1116 6474 1091Q6578 1048 6642 933V1090H6919V56Q6919 -155 6848 -262Q6726 -446 6380 -446Q6171 -446 6039.0 -364.0Q5907 -282 5893 -119H6203Q6215 -169 6242 -191ZM6194 372Q6252 234 6402 234Q6502 234 6571.0 309.5Q6640 385 6640 550Q6640 705 6574.5 786.0Q6509 867 6399 867Q6249 867 6192 726Q6162 651 6162 541Q6162 446 6194 372ZM8208 -36Q7984 -36 7858.0 96.0Q7732 228 7732 389Q7732 522 7798.0 617.0Q7864 712 8014 805L8045 824Q7981 896 7946.0 971.0Q7911 1046 7911 1127Q7911 1288 8019.0 1378.5Q8127 1469 8299 1469Q8456 1469 8558.5 1376.5Q8661 1284 8661 1140Q8661 1010 8599.5 929.0Q8538 848 8419 779L8628 521Q8664 573 8683.5 634.0Q8703 695 8704 763H8957Q8951 629 8893 492Q8861 415 8789 322L9057 0H8711L8609 125Q8535 56 8471 23Q8357 -36 8208 -36ZM8192 642Q8085 571 8050.5 517.0Q8016 463 8016 398Q8016 325 8075.5 264.0Q8135 203 8228 203Q8298 203 8360.5 235.5Q8423 268 8462 308ZM8173 1137Q8173 1097 8201 1053Q8219 1024 8279 950Q8339 992 8365 1021Q8415 1075 8415 1138Q8415 1184 8385.0 1220.0Q8355 1256 8294 1256Q8256 1256 8223 1235Q8173 1204 8173 1137ZM11017 0H10709L10107 1047V0H9820V1474H10143L10730 445V1474H11017ZM12214 320Q12203 223 12113 123Q11973 -36 11721 -36Q11513 -36 11354.0 98.0Q11195 232 11195 534Q11195 817 11338.5 968.0Q11482 1119 11711 1119Q11847 1119 11956.0 1068.0Q12065 1017 12136 907Q12200 810 12219 682Q12230 607 12228 466H11482Q11488 302 11585 236Q11644 195 11727 195Q11815 195 11870 245Q11900 272 11923 320ZM11932 654Q11925 767 11863.5 825.5Q11802 884 11711 884Q11612 884 11557.5 822.0Q11503 760 11489 654ZM13247 0 13076 794 12903 0H12607L12301 1090H12607L12777 308L12934 1090H13223L13389 305L13559 1090H13856L13540 0ZM14764 1040Q14892 958 14911 758H14626Q14620 813 14595 845Q14548 903 14435 903Q14342 903 14302.5 874.0Q14263 845 14263 806Q14263 757 14305 735Q14347 712 14602 656Q14772 616 14857 535Q14941 453 14941 330Q14941 168 14820.5 65.5Q14700 -37 14448 -37Q14191 -37 14068.5 71.5Q13946 180 13946 348H14235Q14244 272 14274 240Q14327 183 14470 183Q14554 183 14603.5 208.0Q14653 233 14653 283Q14653 331 14613 356Q14573 381 14316 442Q14131 488 14055 557Q13979 625 13979 753Q13979 904 14097.5 1012.5Q14216 1121 14431 1121Q14635 1121 14764 1040ZM15158 1474H15443V0H15158ZM16654 320Q16643 223 16553 123Q16413 -36 16161 -36Q15953 -36 15794.0 98.0Q15635 232 15635 534Q15635 817 15778.5 968.0Q15922 1119 16151 1119Q16287 1119 16396.0 1068.0Q16505 1017 16576 907Q16640 810 16659 682Q16670 607 16668 466H15922Q15928 302 16025 236Q16084 195 16167 195Q16255 195 16310 245Q16340 272 16363 320ZM16372 654Q16365 767 16303.5 825.5Q16242 884 16151 884Q16052 884 15997.5 822.0Q15943 760 15929 654ZM17359 203V-10L17224 -15Q17022 -22 16948 55Q16900 104 16900 206V877H16748V1080H16900V1384H17182V1080H17359V877H17182V301Q17182 234 17199.0 217.5Q17216 201 17303 201Q17316 201 17330.5 201.5Q17345 202 17359 203ZM18041 203V-10L17906 -15Q17704 -22 17630 55Q17582 104 17582 206V877H17430V1080H17582V1384H17864V1080H18041V877H17864V301Q17864 234 17881.0 217.5Q17898 201 17985 201Q17998 201 18012.5 201.5Q18027 202 18041 203ZM19157 320Q19146 223 19056 123Q18916 -36 18664 -36Q18456 -36 18297.0 98.0Q18138 232 18138 534Q18138 817 18281.5 968.0Q18425 1119 18654 1119Q18790 1119 18899.0 1068.0Q19008 1017 19079 907Q19143 810 19162 682Q19173 607 19171 466H18425Q18431 302 18528 236Q18587 195 18670 195Q18758 195 18813 245Q18843 272 18866 320ZM18875 654Q18868 767 18806.5 825.5Q18745 884 18654 884Q18555 884 18500.5 822.0Q18446 760 18432 654ZM19911 827Q19739 827 19680 715Q19647 652 19647 521V0H19360V1090H19632V900Q19698 1009 19747 1049Q19827 1116 19955 1116Q19963 1116 19968.5 1115.5Q19974 1115 19993 1114V822Q19966 825 19945.0 826.0Q19924 827 19911 827ZM20911 1040Q21039 958 21058 758H20773Q20767 813 20742 845Q20695 903 20582 903Q20489 903 20449.5 874.0Q20410 845 20410 806Q20410 757 20452 735Q20494 712 20749 656Q20919 616 21004 535Q21088 453 21088 330Q21088 168 20967.5 65.5Q20847 -37 20595 -37Q20338 -37 20215.5 71.5Q20093 180 20093 348H20382Q20391 272 20421 240Q20474 183 20617 183Q20701 183 20750.5 208.0Q20800 233 20800 283Q20800 331 20760 356Q20720 381 20463 442Q20278 488 20202 557Q20126 625 20126 753Q20126 904 20244.5 1012.5Q20363 1121 20578 1121Q20782 1121 20911 1040Z"/></g></svg>
